<svg width="32" height="32" viewBox="0 0 32 32" fill="none" xmlns="http://www.w3.org/2000/svg">
<rect width="32" height="32" rx="16" transform="matrix(1 0 0 -1 0 32)" fill="#FFAA00"/>
<path d="M14.2103 21.9133L20.3579 16.4477C20.4927 16.3284 20.5684 16.1674 20.5684 15.9997C20.5684 15.832 20.4927 15.671 20.3579 15.5517L14.2116 10.0861C14.0768 9.96616 14.0013 9.80465 14.0013 9.63642C14.0013 9.46819 14.0768 9.30668 14.2116 9.18669C14.2774 9.1276 14.3561 9.08064 14.443 9.04858C14.5299 9.01652 14.6233 9 14.7176 9C14.8119 9 14.9052 9.01652 14.9921 9.04858C15.079 9.08064 15.1577 9.1276 15.2235 9.18669L21.3698 14.6511C21.7737 15.011 22 15.4953 22 15.9997C22 16.5041 21.7737 16.9884 21.3698 17.3483L15.2235 22.8127C15.1577 22.872 15.0789 22.9191 14.9919 22.9513C14.9049 22.9834 14.8114 23 14.7169 23C14.6224 23 14.5289 22.9834 14.4419 22.9513C14.3549 22.9191 14.2761 22.872 14.2103 22.8127C14.0755 22.6927 14 22.5312 14 22.363C14 22.1947 14.0755 22.0332 14.2103 21.9133Z" fill="#0E0214"/>
</svg>
