<svg width="32" height="32" viewBox="0 0 32 32" fill="none" xmlns="http://www.w3.org/2000/svg">
<rect width="32" height="32" rx="16" fill="#FFAA00"/>
<path d="M18.7897 10.0867L12.6421 15.5523C12.5073 15.6716 12.4316 15.8326 12.4316 16.0003C12.4316 16.168 12.5073 16.329 12.6421 16.4483L18.7884 21.9139C18.9232 22.0338 18.9987 22.1953 18.9987 22.3636C18.9987 22.5318 18.9232 22.6933 18.7884 22.8133C18.7226 22.8724 18.6439 22.9194 18.557 22.9514C18.4701 22.9835 18.3767 23 18.2824 23C18.1881 23 18.0948 22.9835 18.0079 22.9514C17.921 22.9194 17.8423 22.8724 17.7765 22.8133L11.6302 17.3489C11.2263 16.989 11 16.5047 11 16.0003C11 15.4959 11.2263 15.0116 11.6302 14.6517L17.7765 9.18729C17.8423 9.12802 17.9211 9.08091 18.0081 9.04874C18.0951 9.01657 18.1886 9 18.2831 9C18.3776 9 18.4711 9.01657 18.5581 9.04874C18.6451 9.08091 18.7239 9.12802 18.7897 9.18729C18.9245 9.30728 19 9.46878 19 9.63702C19 9.80525 18.9245 9.96675 18.7897 10.0867Z" fill="#0E0214"/>
</svg>
