<svg width="40" height="40" viewBox="0 0 40 40" fill="none" xmlns="http://www.w3.org/2000/svg">
<rect width="40" height="40" rx="20" fill="url(#paint0_linear_487_167)"/>
<path d="M24.6847 11.5525L15.4632 19.3605C15.2609 19.5308 15.1475 19.7608 15.1475 20.0004C15.1475 20.2401 15.2609 20.47 15.4632 20.6404L24.6827 28.4484C24.8849 28.6198 24.9981 28.8505 24.9981 29.0908C24.9981 29.3312 24.8849 29.5619 24.6827 29.7333C24.584 29.8177 24.466 29.8848 24.3356 29.9306C24.2053 29.9764 24.0652 30 23.9238 30C23.7823 30 23.6423 29.9764 23.5119 29.9306C23.3816 29.8848 23.2636 29.8177 23.1648 29.7333L13.9452 21.927C13.3394 21.4128 13 20.721 13 20.0004C13 19.2798 13.3394 18.588 13.9452 18.0739L23.1648 10.2676C23.2636 10.1829 23.3817 10.1156 23.5123 10.0696C23.6428 10.0237 23.7831 10 23.9248 10C24.0665 10 24.2067 10.0237 24.3373 10.0696C24.4678 10.1156 24.586 10.1829 24.6847 10.2676C24.8869 10.439 25.0001 10.6697 25.0001 10.91C25.0001 11.1504 24.8869 11.3811 24.6847 11.5525Z" fill="white"/>
<defs>
<linearGradient id="paint0_linear_487_167" x1="0" y1="20" x2="40" y2="20" gradientUnits="userSpaceOnUse">
<stop stop-color="#FFAA00"/>
<stop offset="1" stop-color="#AA00FF"/>
</linearGradient>
</defs>
</svg>
