<svg width="280" height="47" viewBox="0 0 280 47" fill="none" xmlns="http://www.w3.org/2000/svg">
<mask id="path-1-inside-1_2225_15695" fill="white">
<path fill-rule="evenodd" clip-rule="evenodd" d="M4 47C1.79086 47 0 45.2091 0 43V4C0 1.79086 1.79085 0 3.99999 0H276C278.209 0 280 1.79086 280 4V31.3431C280 32.404 279.579 33.4214 278.828 34.1716L267.172 45.8284C266.421 46.5786 265.404 47 264.343 47H256.828H4Z"/>
</mask>
<path d="M267.172 45.8284L268.586 47.2426L267.172 45.8284ZM278.828 34.1716L277.414 32.7574L278.828 34.1716ZM-2 4V43H2V4H-2ZM276 -2H3.99999V2H276V-2ZM282 31.3431V4H278V31.3431H282ZM268.586 47.2426L280.243 35.5858L277.414 32.7574L265.757 44.4142L268.586 47.2426ZM256.828 49H264.343V45H256.828V49ZM4 49H256.828V45H4V49ZM265.757 44.4142C265.382 44.7893 264.874 45 264.343 45V49C265.934 49 267.461 48.3679 268.586 47.2426L265.757 44.4142ZM278 31.3431C278 31.8736 277.789 32.3823 277.414 32.7574L280.243 35.5858C281.368 34.4606 282 32.9344 282 31.3431H278ZM276 2C277.105 2 278 2.89543 278 4H282C282 0.686292 279.314 -2 276 -2V2ZM-2 43C-2 46.3137 0.686292 49 4 49V45C2.89543 45 2 44.1046 2 43H-2ZM2 4C2 2.89542 2.89543 2 3.99999 2V-2C0.686278 -2 -2 0.686297 -2 4H2Z" fill="#0E0214" mask="url(#path-1-inside-1_2225_15695)"/>
</svg>
