<svg width="440" height="79" viewBox="0 0 440 79" fill="none" xmlns="http://www.w3.org/2000/svg">
<path fill-rule="evenodd" clip-rule="evenodd" d="M6 72C2.68629 72 0 69.3137 0 66V6C0 2.68629 2.68629 0 5.99999 0H434C437.314 0 440 2.68629 440 6V49.5147C440 51.106 439.368 52.6321 438.243 53.7574L421.757 70.2426C420.632 71.3679 419.106 72 417.515 72H403.586H6Z" fill="#FFAA00"/>
<path d="M44 65H152L140 79H32L44 65Z" fill="#AA00FF"/>
<path d="M171.852 28.4545V43H169.664V30.3295H162.817V43H160.63V28.4545H171.852ZM175.037 47.0909V32.0909H177.111V33.8594H177.288C177.411 33.6321 177.589 33.3693 177.821 33.071C178.053 32.7727 178.375 32.5123 178.787 32.2898C179.199 32.0625 179.743 31.9489 180.42 31.9489C181.301 31.9489 182.087 32.1714 182.778 32.6165C183.47 33.0616 184.012 33.7031 184.405 34.5412C184.803 35.3793 185.001 36.3878 185.001 37.5668C185.001 38.7457 184.805 39.7566 184.412 40.5994C184.019 41.4375 183.479 42.0838 182.793 42.5384C182.106 42.9882 181.322 43.2131 180.442 43.2131C179.779 43.2131 179.237 43.1018 178.815 42.8793C178.399 42.6567 178.072 42.3963 177.835 42.098C177.598 41.7997 177.416 41.5346 177.288 41.3026H177.161V47.0909H175.037ZM177.118 37.5455C177.118 38.3125 177.229 38.9848 177.452 39.5625C177.674 40.1402 177.996 40.5923 178.418 40.919C178.839 41.241 179.355 41.402 179.966 41.402C180.6 41.402 181.131 41.2339 181.557 40.8977C181.983 40.5568 182.305 40.0952 182.523 39.5128C182.745 38.9304 182.857 38.2746 182.857 37.5455C182.857 36.8258 182.748 36.1795 182.53 35.6065C182.317 35.0336 181.995 34.5814 181.564 34.25C181.138 33.9186 180.605 33.7528 179.966 33.7528C179.35 33.7528 178.83 33.9115 178.403 34.2287C177.982 34.5459 177.662 34.9886 177.445 35.5568C177.227 36.125 177.118 36.7879 177.118 37.5455ZM191.976 43.2202C190.953 43.2202 190.061 42.9858 189.298 42.517C188.536 42.0483 187.944 41.3925 187.523 40.5497C187.101 39.7069 186.891 38.7221 186.891 37.5952C186.891 36.4635 187.101 35.474 187.523 34.6264C187.944 33.7789 188.536 33.1207 189.298 32.652C190.061 32.1832 190.953 31.9489 191.976 31.9489C192.999 31.9489 193.891 32.1832 194.653 32.652C195.416 33.1207 196.008 33.7789 196.429 34.6264C196.85 35.474 197.061 36.4635 197.061 37.5952C197.061 38.7221 196.85 39.7069 196.429 40.5497C196.008 41.3925 195.416 42.0483 194.653 42.517C193.891 42.9858 192.999 43.2202 191.976 43.2202ZM191.983 41.4375C192.646 41.4375 193.195 41.2623 193.631 40.9119C194.066 40.5616 194.388 40.0952 194.597 39.5128C194.81 38.9304 194.916 38.2888 194.916 37.5881C194.916 36.892 194.81 36.2528 194.597 35.6705C194.388 35.0833 194.066 34.6122 193.631 34.2571C193.195 33.902 192.646 33.7244 191.983 33.7244C191.315 33.7244 190.761 33.902 190.321 34.2571C189.885 34.6122 189.561 35.0833 189.348 35.6705C189.14 36.2528 189.036 36.892 189.036 37.5881C189.036 38.2888 189.14 38.9304 189.348 39.5128C189.561 40.0952 189.885 40.5616 190.321 40.9119C190.761 41.2623 191.315 41.4375 191.983 41.4375ZM201.512 40.0241L206.321 32.0909H208.608V43H206.527V35.0597L201.74 43H199.431V32.0909H201.512V40.0241ZM205.412 28.3977H207.159C207.159 29.1979 206.875 29.849 206.306 30.3509C205.743 30.848 204.981 31.0966 204.02 31.0966C203.063 31.0966 202.303 30.848 201.74 30.3509C201.176 29.849 200.895 29.1979 200.895 28.3977H202.635C202.635 28.7528 202.739 29.0677 202.947 29.3423C203.155 29.6122 203.513 29.7472 204.02 29.7472C204.517 29.7472 204.872 29.6122 205.085 29.3423C205.303 29.0724 205.412 28.7576 205.412 28.3977ZM210.11 33.9233V32.0909H219.314V33.9233H215.756V43H213.682V33.9233H210.11ZM223.641 40.0241L228.45 32.0909H230.737V43H228.656V35.0597L223.869 43H221.56V32.0909H223.641V40.0241ZM238.274 33.9233V32.0909H247.478V33.9233H243.92V43H241.846V33.9233H238.274ZM253.918 43.2202C252.844 43.2202 251.918 42.9905 251.141 42.5312C250.37 42.0672 249.773 41.4162 249.352 40.5781C248.935 39.7353 248.727 38.7481 248.727 37.6165C248.727 36.4991 248.935 35.5142 249.352 34.6619C249.773 33.8097 250.36 33.1444 251.113 32.6662C251.871 32.188 252.756 31.9489 253.769 31.9489C254.385 31.9489 254.981 32.0507 255.559 32.2543C256.137 32.4579 256.655 32.7775 257.114 33.2131C257.574 33.6487 257.936 34.2145 258.201 34.9105C258.466 35.6018 258.599 36.4422 258.599 37.4318V38.1847H249.927V36.5938H256.518C256.518 36.035 256.404 35.5402 256.177 35.1094C255.95 34.6738 255.63 34.3305 255.218 34.0795C254.811 33.8286 254.333 33.7031 253.783 33.7031C253.187 33.7031 252.666 33.8499 252.221 34.1435C251.781 34.4323 251.44 34.8111 251.198 35.2798C250.961 35.7438 250.843 36.2481 250.843 36.7926V38.0355C250.843 38.7647 250.971 39.3849 251.227 39.8963C251.487 40.4077 251.849 40.7983 252.313 41.0682C252.777 41.3333 253.319 41.4659 253.94 41.4659C254.342 41.4659 254.709 41.4091 255.04 41.2955C255.372 41.1771 255.658 41.0019 255.9 40.7699C256.141 40.5379 256.326 40.2514 256.454 39.9105L258.464 40.2727C258.303 40.8646 258.014 41.383 257.597 41.8281C257.185 42.2685 256.667 42.6117 256.042 42.858C255.422 43.0994 254.714 43.2202 253.918 43.2202ZM265.55 43.2202C264.494 43.2202 263.585 42.9811 262.823 42.5028C262.065 42.0199 261.483 41.3546 261.076 40.5071C260.668 39.6596 260.465 38.6889 260.465 37.5952C260.465 36.4872 260.673 35.5095 261.09 34.6619C261.507 33.8097 262.094 33.1444 262.851 32.6662C263.609 32.188 264.501 31.9489 265.529 31.9489C266.357 31.9489 267.096 32.1027 267.745 32.4105C268.393 32.7135 268.917 33.1397 269.314 33.6889C269.717 34.2382 269.956 34.8797 270.032 35.6136H267.965C267.851 35.1023 267.591 34.6619 267.184 34.2926C266.781 33.9233 266.241 33.7386 265.564 33.7386C264.972 33.7386 264.454 33.8949 264.009 34.2074C263.569 34.5152 263.225 34.9555 262.979 35.5284C262.733 36.0966 262.61 36.7689 262.61 37.5455C262.61 38.3409 262.73 39.0275 262.972 39.6051C263.213 40.1828 263.554 40.6302 263.995 40.9474C264.44 41.2647 264.963 41.4233 265.564 41.4233C265.967 41.4233 266.331 41.3499 266.658 41.2031C266.989 41.0516 267.266 40.8362 267.489 40.5568C267.716 40.2775 267.875 39.9413 267.965 39.5483H270.032C269.956 40.2538 269.726 40.8835 269.343 41.4375C268.959 41.9915 268.445 42.4271 267.801 42.7443C267.162 43.0616 266.412 43.2202 265.55 43.2202ZM271.477 33.9233V32.0909H280.681V33.9233H277.123V43H275.049V33.9233H271.477Z" fill="#0E0214"/>
</svg>
