<svg width="210" height="205" viewBox="0 0 210 205" fill="none" xmlns="http://www.w3.org/2000/svg">
<path d="M93.5094 34.5938C93.1031 34.75 92.5094 35.3438 92.1656 35.9062C91.5719 36.9062 91.5406 37.4688 91.5406 52V67.0938H68.3531C42.5718 67.0938 42.5093 67.0938 37.0093 69.25C32.8531 70.8438 30.6968 72.2812 27.0093 76C23.9468 79.0312 23.3531 79.8125 21.9156 82.625C19.3843 87.5938 18.9781 89.4375 18.8218 97.4062L18.6656 104.125L17.8218 105.062C17.3218 105.562 16.5406 106.562 16.0406 107.219L15.1343 108.438L15.0406 117.781C14.9156 128.375 14.9156 128.344 17.5718 131.344L18.8843 132.844L19.1031 137.531C19.3218 143.312 19.9781 145.969 22.2906 150.719C27.3531 161.062 36.2906 167.875 48.1031 170.438C50.6031 170.969 53.7281 171 105.447 171H160.134L164.041 169.969C168.134 168.906 172.978 166.781 176.134 164.688C180.666 161.688 185.259 156.312 187.822 151C190.103 146.312 190.916 143.125 191.291 137.406L191.634 132.562L192.822 131.281C195.009 128.844 194.978 129.125 194.978 118.5C194.978 107.875 195.041 108.25 192.791 105.531L191.603 104.125L191.478 97.4062C191.353 91.25 191.259 90.4688 190.509 87.9375C188.072 79.9375 183.134 74.0625 175.759 70.375C169.228 67.125 170.916 67.2812 143.197 67.1562L119.072 67.0625L118.978 52.1562C118.884 38.5938 118.822 37.1562 118.322 36.25C116.916 33.625 112.978 33.6562 111.728 36.2812C111.322 37.1562 111.228 38.4688 111.228 43.7812V50.2188H105.322H99.4469L99.2281 48.3125C99.1344 47.25 99.0406 44.1875 99.0406 41.5312V36.7188L97.8219 35.5C96.8219 34.5 96.4156 34.2812 95.4156 34.3125C94.7281 34.3125 93.8844 34.4375 93.5094 34.5938ZM105.634 57.7188H111.228V62.5625V67.4062L105.228 67.3438L99.1969 67.25L99.1031 62.2812C99.0406 57.8438 99.0719 57.3438 99.5406 57.5312C99.7906 57.625 102.541 57.7188 105.634 57.7188ZM168.884 75.9375C174.822 78.0312 179.197 81.8438 181.947 87.25C182.541 88.4688 183.197 90.0312 183.384 90.7188C183.791 92.25 184.291 95.8438 184.103 95.8438C184.041 95.8438 182.947 94.875 181.697 93.7188C175.291 87.7188 167.634 83.7188 160.759 82.7188C158.947 82.4688 143.228 82.4062 103.728 82.4688L49.1968 82.5625L46.0718 83.4375C40.0406 85.125 35.1031 87.9688 29.3843 93.0625L26.1656 95.9375L26.3843 93.9375C27.4468 84.4062 34.8531 76.9062 44.9781 75.125C45.4156 75.0625 72.8844 75 106.072 75.0312L166.384 75.0625L168.884 75.9375ZM160.603 90.5312C167.322 91.75 173.134 97 174.822 103.375C175.509 105.875 175.478 132.312 174.822 135.156C173.697 139.969 169.916 144.75 165.447 147C161.134 149.219 162.353 149.094 142.228 149.219C126.416 149.312 123.791 149.25 122.322 148.812C120.322 148.25 119.103 147.125 117.759 144.562C116.478 142.188 113.947 139.844 111.603 138.906C110.009 138.25 109.322 138.188 104.978 138.188C100.259 138.188 100.103 138.219 98.3219 139.094C96.2281 140.156 93.8844 142.531 92.5094 144.938C91.3531 147 90.6031 147.844 89.2594 148.562C88.3531 149.094 86.7594 149.125 70.4781 149.219C50.0406 149.312 49.8218 149.281 45.0406 146.906C40.4468 144.594 37.8218 141.688 35.9468 136.812L35.1343 134.75L35.0406 119.812C34.9468 106.688 35.0093 104.656 35.4468 103.094C37.0718 97.4688 41.4156 93.0312 47.1656 91.0625C49.1968 90.375 49.2281 90.375 79.8219 90.2188C121.166 90 158.478 90.1562 160.603 90.5312ZM27.4781 117.562C27.4781 124.812 27.3843 129.594 27.1968 129.594C27.0406 129.594 25.8531 128.469 24.5406 127.062L22.1656 124.531V117.719V110.906L23.0093 109.844C24.2281 108.344 26.9468 105.531 27.1968 105.531C27.3218 105.531 27.4468 110.938 27.4781 117.562ZM188.103 117.75V124.625L185.509 127.312L182.916 129.969L182.853 117.688L182.791 105.375L185.447 108.125L188.103 110.875V117.75ZM30.6031 145.969C32.2593 147.75 35.8843 150.719 38.3843 152.312C40.7593 153.844 44.5093 155.406 48.0406 156.344L50.9781 157.094H69.2593C84.8844 157.094 87.8219 157.031 89.4469 156.594C93.4781 155.562 96.4781 153.281 98.5406 149.75C100.509 146.438 102.509 145.312 106.103 145.625C108.666 145.812 109.572 146.5 111.759 149.781C114.291 153.656 116.634 155.438 120.666 156.594C122.197 157.062 124.603 157.094 141.416 157.031L160.447 156.938L163.259 156.062C169.447 154.156 174.478 150.969 180.291 145.25C181.853 143.75 183.103 142.562 183.103 142.594C183.103 142.938 180.791 147.938 179.978 149.281C179.072 150.844 177.103 153.344 175.447 155.094C171.822 158.906 165.103 162.125 158.884 163.031C157.072 163.281 141.853 163.344 103.728 163.281L51.0718 163.188L48.6656 162.5C43.0406 160.906 39.0093 158.781 35.5406 155.562C32.2593 152.531 29.5718 148.469 27.9468 144.125L27.1343 141.938L28.1656 143.188C28.7281 143.875 29.8218 145.125 30.6031 145.969Z" fill="white" fill-opacity="0.4"/>
<path d="M69.4766 98.281C68.4766 99.1248 62.1953 105.312 55.5391 112C44.0391 123.531 43.4141 124.187 43.4141 125.281C43.4141 127.5 45.6328 129.094 47.6641 128.344C48.6641 127.969 73.9766 102.875 75.0078 101.25C75.4141 100.625 75.5703 99.9998 75.4453 99.4998C75.1641 98.3748 73.6641 97.0935 72.4141 96.906C71.4453 96.7498 71.1328 96.906 69.4766 98.281Z" fill="white" fill-opacity="0.4"/>
<path d="M136.352 106C133.602 108.875 133.102 109.531 133.102 110.375C133.102 112.406 135.133 113.969 137.008 113.344C138.133 112.969 143.227 107.938 143.695 106.75C144.383 104.906 143.102 103.094 140.914 102.813L139.602 102.625L136.352 106Z" fill="white" fill-opacity="0.4"/>
<path d="M65.8837 118.5C51.0399 133.344 50.4462 134 50.3524 135.219C50.2587 136.281 50.4149 136.625 51.1962 137.406C52.6962 138.906 53.9774 138.719 56.1649 136.719C61.1649 132.125 85.6649 107.469 85.7899 106.844C86.2899 104.937 84.7274 103.031 82.6337 103.031H81.3212L65.8837 118.5Z" fill="white" fill-opacity="0.4"/>
<path d="M80.7578 120.532C80.4141 120.657 77.3516 123.532 73.9766 126.875C68.1953 132.594 67.7891 133.094 67.7891 134.125C67.7891 135.594 68.2266 136.344 69.4141 136.969C71.4141 138 72.0391 137.594 78.6016 130.969C85.0078 124.5 85.4453 123.875 84.5391 122.125C83.8203 120.75 82.0391 120 80.7578 120.532Z" fill="white" fill-opacity="0.4"/>
<path d="M157.009 124.343C155.29 126.062 153.977 127.625 153.852 128.125C153.571 129.281 154.196 130.593 155.259 131.25C157.04 132.281 157.634 132.031 160.977 128.75C162.665 127.062 164.134 125.375 164.259 125C164.665 123.25 162.977 121.468 160.884 121.468C160.071 121.468 159.446 121.937 157.009 124.343Z" fill="white" fill-opacity="0.4"/>
<circle cx="140.5" cy="26.5" r="8.5" stroke="white" stroke-opacity="0.4" stroke-width="4"/>
<circle cx="30" cy="42" r="13" stroke="white" stroke-opacity="0.4" stroke-width="4"/>
<circle cx="189" cy="184" r="13" stroke="white" stroke-opacity="0.4" stroke-width="4"/>
<circle cx="29" cy="188" r="6" stroke="white" stroke-opacity="0.4" stroke-width="4"/>
<circle cx="184.5" cy="33.5" r="5" stroke="white" stroke-opacity="0.4" stroke-width="3"/>
<circle cx="105" cy="22" r="3.5" stroke="white" stroke-opacity="0.4" stroke-width="3"/>
<circle cx="105" cy="196" r="3.5" stroke="white" stroke-opacity="0.4" stroke-width="3"/>
<circle cx="68" cy="184" r="4" fill="white" fill-opacity="0.4"/>
<circle cx="140" cy="186" r="7" fill="white" fill-opacity="0.4"/>
<circle cx="161" cy="52" r="7" fill="white" fill-opacity="0.4"/>
<circle cx="63" cy="22" r="5" fill="white" fill-opacity="0.4"/>
<circle cx="73.5" cy="51.5" r="2.5" fill="white" fill-opacity="0.4"/>
<circle cx="12.5" cy="160.5" r="2.5" fill="white" fill-opacity="0.4"/>
</svg>
