<svg width="194" height="212" viewBox="0 0 194 212" fill="none" xmlns="http://www.w3.org/2000/svg">
<path d="M94.7094 13.8183C92.5305 14.8869 91.4178 16.7452 91.4178 19.1611C91.441 20.6245 92.0669 21.995 93.3186 23.2494L94.3154 24.2715L94.269 26.455L94.2226 28.6618L86.6195 28.8012C78.2283 28.9406 77.7415 29.0103 74.5195 30.5434C69.1185 33.0754 64.6447 38.2555 63.138 43.6911C62.883 44.6203 62.6744 45.8979 62.6744 46.5483C62.6744 47.1755 62.6049 48.0815 62.5353 48.5461L62.3962 49.4055L59.6842 49.4752C57.1807 49.5681 56.8794 49.6146 55.4422 50.3347C53.7037 51.1942 51.4552 53.401 50.6671 55.0502C50.3889 55.6077 50.0644 56.746 49.9485 57.5822C49.624 59.5102 49.624 64.5742 49.9253 66.177C50.5048 69.2201 52.2201 71.4965 54.9786 72.8438C56.6939 73.7033 56.8098 73.7265 59.6842 73.7962L62.628 73.8891L63.2539 75.5849C65.7806 82.5536 72.2246 87.6641 79.4337 88.3842L80.9868 88.5468V90.3587V92.1938H74.2181C66.5687 92.1938 65.3169 92.3564 62.6049 93.6805C59.1974 95.3297 56.323 98.396 55.0481 101.718C54.2368 103.808 54.3759 103.762 49.6935 103.344C45.9151 103.019 43.9216 103.321 41.1864 104.645C38.7293 105.829 35.7158 108.849 34.5337 111.288C32.9574 114.587 32.9806 113.936 33.0501 139.001C33.1428 164.506 33.0038 162.741 35.0436 166.156C36.898 169.268 39.7028 171.615 42.8322 172.66C48.9981 174.75 55.6508 172.033 58.502 166.225C60.1941 162.811 60.1246 164.088 60.1246 135.005V108.942L90.8615 108.919C124.844 108.919 122.572 109.012 123.337 107.432C123.963 106.085 123.152 104.482 121.598 104.041C121.042 103.901 110.588 103.808 90.7688 103.808H60.82L61.3068 102.856C61.8863 101.695 63.8566 99.7433 64.9924 99.1626C67.0091 98.1405 66.8468 98.1637 81.5663 98.4657C96.5407 98.7677 96.8188 98.7677 97.5374 97.6526C98.0937 96.8164 98.001 95.5852 97.352 94.8187L96.7956 94.1683L91.9046 94.0986L87.0136 94.0289V91.2414V88.4771H97.2824H107.551L107.459 92.1938C107.412 94.6096 107.459 96.1892 107.644 96.7235C108.154 98.2566 107.922 98.2334 118.006 98.2334C126.374 98.2334 127.208 98.2798 128.274 98.6747C129.943 99.3019 131.659 100.672 132.841 102.275L133.884 103.669L132.377 103.925C131.543 104.064 130.685 104.319 130.476 104.505C129.851 105.016 129.41 106.247 129.572 107.037C129.874 108.501 131.172 109.151 133.722 109.151H134.487L134.51 135.632C134.533 154.611 134.603 162.439 134.788 163.229C134.95 163.833 135.483 165.157 135.993 166.156C137.686 169.431 140.815 172.033 144.176 172.915C145.938 173.38 149.322 173.38 151.06 172.939C155.836 171.661 159.776 167.642 161.19 162.578C161.677 160.859 161.677 160.534 161.654 138.002C161.654 122.206 161.561 114.819 161.399 114.076C161.26 113.472 160.727 112.124 160.217 111.056C157.829 106.155 152.312 102.786 147.305 103.204C146.332 103.274 144.361 103.413 142.924 103.483C140.351 103.646 140.305 103.623 140.166 103.135C139.888 102.089 138.474 99.3716 137.57 98.1637C135.901 95.9569 132.98 93.8895 130.082 92.8442C128.715 92.3564 128.158 92.3332 121.042 92.2402L113.439 92.1705V90.3587V88.5468L115.572 88.268C117.959 87.9661 121.042 86.8975 123.082 85.6664C126.629 83.5293 130.871 77.9775 131.404 74.7486L131.566 73.8427H134.046C135.507 73.8427 137.083 73.7033 137.871 73.4942C141.186 72.6348 143.62 70.1957 144.616 66.781C144.941 65.666 144.987 64.6671 144.918 61.0898C144.848 56.7924 144.848 56.7692 144.106 55.1896C143.133 53.1454 141.302 51.2871 139.308 50.3579C137.732 49.6146 134.742 49.15 133.073 49.3823L132.215 49.4984V48.3602C132.145 40.8339 126.536 33.1218 118.863 30.0556C116.035 28.9173 114.807 28.778 107.25 28.778H100.226V26.455V24.1321L101.177 23.2726C102.591 21.995 103.101 20.8336 103.101 19.0217C103.077 14.701 98.5573 11.8903 94.7094 13.8183ZM98.256 17.9764C98.9746 18.6732 98.9746 19.1843 98.3255 19.8812C97.3751 20.9033 95.8221 20.3225 95.8221 18.952C95.8221 17.4653 97.2129 16.9078 98.256 17.9764ZM113.787 34.8176C119.28 35.6074 124.658 40.9036 125.817 46.7109C126.35 49.2429 126.35 69.1736 125.84 71.6359C124.774 76.7463 120.3 81.276 115.409 82.2052C114.436 82.391 108.849 82.4375 96.4016 82.391L78.7846 82.3214L77.4865 81.7871C73.4764 80.161 70.3239 76.9089 68.8867 72.9135C68.3536 71.4268 68.3536 71.2642 68.284 60.2536C68.2377 52.7505 68.3072 48.6157 68.4695 47.5937C69.0258 44.3416 70.7875 41.0662 73.2214 38.7898C75.6785 36.5133 78.3442 35.1428 80.9868 34.8176C83.2816 34.562 111.886 34.562 113.787 34.8176ZM60.82 61.7867V68.0818L59.0583 67.9889C57.4125 67.9192 57.2502 67.8495 56.6244 67.1527L55.9522 66.4093V61.6241V56.8389L56.6244 56.1652C57.2502 55.538 57.4357 55.4916 59.0583 55.4916H60.82V61.7867ZM138.126 56.0723C138.705 56.6298 138.705 56.6531 138.705 61.2989C138.705 66.5487 138.566 67.1294 137.199 67.7102C136.758 67.896 135.901 68.0354 135.275 68.0354C134.139 68.0354 134.139 68.0354 133.977 67.1527C133.791 65.9912 133.791 55.84 134 55.6542C134.069 55.5613 134.927 55.4916 135.854 55.4916C137.361 55.4916 137.639 55.5613 138.126 56.0723ZM150.296 109.685C151.849 110.266 153.888 112.217 154.723 113.913C155.256 115.051 155.279 115.237 155.349 121.509L155.418 127.967H148.001H140.56V118.559V109.174L143.411 109.081C147.189 108.965 148.766 109.105 150.296 109.685ZM54.0514 118.141C54.0514 123.112 54.0282 127.34 53.9587 127.549C53.8428 127.944 53.2864 127.967 46.541 127.967H39.2624V122.299C39.2624 117.281 39.3088 116.468 39.726 115.167C40.2823 113.379 41.4414 111.753 42.9249 110.661C44.6402 109.383 45.5906 109.174 50.0644 109.174L54.0282 109.151L54.0514 118.141ZM53.9587 141.091L53.9123 148.525L46.6801 148.641C42.7163 148.711 39.4015 148.711 39.3551 148.664C39.3088 148.618 39.2624 145.18 39.2624 141.045V133.542L46.6337 133.588L53.9818 133.658L53.9587 141.091ZM155.395 141.091V148.641H148.348C144.477 148.641 141.139 148.711 140.931 148.78C140.606 148.92 140.56 148.153 140.56 141.231V133.542H147.978H155.395V141.091ZM148.835 154.68H155.442L155.349 157.747C155.279 160.627 155.233 160.929 154.561 162.346C153.726 164.111 152.289 165.621 150.643 166.481C149.693 166.992 149.16 167.108 147.746 167.108C144.755 167.108 142.623 165.691 141.278 162.811C140.745 161.672 140.676 161.208 140.606 158.327C140.56 156.562 140.583 154.936 140.653 154.75C140.768 154.495 140.977 154.425 141.51 154.541C141.927 154.611 145.219 154.68 148.835 154.68ZM54.0977 157.538C54.0977 162.021 53.2864 164.158 50.8989 165.993C47.7 168.432 42.4613 166.829 40.3982 162.764C39.5869 161.161 39.2624 159.605 39.2624 157.05V154.68H46.6801H54.0977V157.538Z" fill="white" fill-opacity="0.4"/>
<path d="M90.9556 40.1612V42.0195H93.1577H95.3598V40.1612V38.3029H93.1577H90.9556V40.1612Z" fill="white" fill-opacity="0.4"/>
<path d="M98.8828 40.0917L98.9755 41.9036L101.108 41.9733L103.241 42.043V40.1846V38.3031H101.015H98.79L98.8828 40.0917Z" fill="white" fill-opacity="0.4"/>
<path d="M84.9956 45.597C84.0916 46.0151 83.7671 46.5958 83.7671 47.827C83.7671 48.5935 83.9062 48.942 84.4393 49.4763L85.1115 50.1499H97.0957C110.053 50.1499 109.961 50.1499 110.656 48.8955C111.189 47.8734 111.05 46.9443 110.216 46.1312L109.497 45.3879L97.6057 45.3415C87.87 45.295 85.5983 45.3415 84.9956 45.597Z" fill="white" fill-opacity="0.4"/>
<path d="M80.1056 52.6109C76.7908 53.4936 74.4032 56.1185 73.6615 59.6958C73.0356 62.6691 73.9164 65.5496 76.0722 67.7331C79.5724 71.2175 85.2979 71.171 88.8445 67.5937C91.0234 65.4334 91.9043 62.5298 91.3248 59.6726C90.2121 54.3995 85.182 51.2404 80.1056 52.6109ZM83.9766 58.2788C86.3874 59.51 86.5033 62.9014 84.1853 64.3184C82.5395 65.3173 80.2215 64.5739 79.3638 62.8085C78.7843 61.6006 78.7843 60.9966 79.3638 59.7887C80.2215 58.0233 82.215 57.3729 83.9766 58.2788Z" fill="white" fill-opacity="0.4"/>
<path d="M110.284 52.4723C106.668 53.2389 103.91 56.2122 103.191 60.138C102.496 63.8082 104.675 67.7804 108.291 69.4993C109.705 70.173 110.053 70.2427 112.046 70.2427C114.828 70.2194 116.381 69.6619 118.189 68.0127C121.99 64.5051 122.13 58.6048 118.49 54.9578C116.427 52.8904 113.066 51.8684 110.284 52.4723ZM113.646 58.2796C116.149 59.534 116.149 63.1345 113.669 64.3657C112.139 65.1555 110.586 64.7838 109.427 63.3901C108.291 62.0428 108.384 60.138 109.682 58.9068C110.887 57.7453 112.208 57.5363 113.646 58.2796Z" fill="white" fill-opacity="0.4"/>
<path d="M91.0682 73.0763C90.3264 73.2622 89.5847 74.0752 89.4224 74.8882C89.2602 75.7942 89.7933 77.1879 90.4655 77.5364C90.79 77.7222 93.1312 77.8151 97.3269 77.8151C104.374 77.8383 104.513 77.8151 105.092 76.3981C105.533 75.3064 105.162 74.0984 104.188 73.448C103.423 72.9137 103.284 72.9137 97.4659 72.937C94.1975 72.9602 91.3232 73.0067 91.0682 73.0763Z" fill="white" fill-opacity="0.4"/>
<path d="M146.795 116.887C145.845 117.514 145.428 118.281 145.428 119.373C145.428 121.161 147.143 122.601 148.882 122.276C150.064 122.044 151.455 120.604 151.455 119.582C151.455 117.073 148.789 115.54 146.795 116.887Z" fill="white" fill-opacity="0.4"/>
<path d="M45.1709 116.679C44.1278 117.143 43.6178 117.84 43.5019 118.978C43.2238 121.487 45.704 123.206 47.7903 121.928C48.6479 121.394 49.4592 120.186 49.4592 119.42C49.4592 118.56 48.8566 117.352 48.2075 116.934C47.3962 116.4 46.0054 116.284 45.1709 116.679Z" fill="white" fill-opacity="0.4"/>
<path d="M44.571 138.722C43.1106 139.721 42.9715 142.021 44.316 143.368C45.6836 144.738 47.9089 144.343 48.9984 142.555C50.621 139.883 47.2135 136.933 44.571 138.722Z" fill="white" fill-opacity="0.4"/>
<path d="M146.771 138.56C145.45 139.257 145.033 141.347 145.89 142.764C147.073 144.739 149.738 144.599 150.99 142.532C151.546 141.626 151.57 140.952 151.06 139.884C150.341 138.351 148.278 137.723 146.771 138.56Z" fill="white" fill-opacity="0.4"/>
<path d="M65.5048 112.869C65.0876 113.124 64.6471 113.612 64.5312 113.937C64.2299 114.704 64.2299 132.381 64.5081 133.148C65.2035 134.983 67.4983 135.262 68.75 133.682C69.1209 133.241 69.1673 132.335 69.1673 123.6C69.1673 113.031 69.1905 113.171 67.7301 112.659C66.7334 112.311 66.3857 112.334 65.5048 112.869Z" fill="white" fill-opacity="0.4"/>
<path d="M98.3272 112.985C97.145 113.636 97.006 115.633 98.0722 116.632L98.6518 117.167H113.951H129.25L129.922 116.4C130.756 115.448 130.803 114.425 130.038 113.45L129.481 112.753L114.206 112.706C101.109 112.66 98.8604 112.706 98.3272 112.985Z" fill="white" fill-opacity="0.4"/>
<path d="M126.257 120.209C125.863 120.395 125.422 120.859 125.26 121.208C125.098 121.649 125.028 124.32 125.075 129.919L125.144 138.002L125.793 138.56C126.952 139.559 129.247 139.071 129.618 137.724C129.711 137.398 129.78 133.565 129.78 129.198V121.254L129.178 120.65C128.436 119.883 127.23 119.698 126.257 120.209Z" fill="white" fill-opacity="0.4"/>
<path d="M76.4217 120.418C76.0276 120.58 75.5872 120.929 75.4481 121.208C75.2858 121.51 75.1931 123.879 75.1931 127.851V134.053L75.8653 134.704C76.7462 135.587 77.6039 135.796 78.5774 135.331C80.0841 134.611 80.1769 134.193 80.1073 129.315L80.0378 124.948H95.1976C110.056 124.948 110.381 124.948 110.96 124.483C111.841 123.786 112.166 122.625 111.725 121.626C111.053 120 111.818 120.069 93.575 120.069C80.1537 120.093 77.0243 120.139 76.4217 120.418Z" fill="white" fill-opacity="0.4"/>
<path d="M113.37 127.131C111.006 127.782 109.406 129.942 109.406 132.474C109.429 136.446 113.625 139.303 117.148 137.701C120.069 136.377 121.437 133.473 120.417 130.732C119.281 127.758 116.407 126.272 113.37 127.131ZM116.129 131.568C116.569 132.009 116.662 132.288 116.546 132.683C116.291 133.519 115.966 133.775 115.155 133.775C113.81 133.775 113.138 132.079 114.181 131.359C114.923 130.848 115.456 130.894 116.129 131.568Z" fill="white" fill-opacity="0.4"/>
<path d="M88.8456 129.57C88.3124 130.105 88.1733 130.453 88.1733 131.22C88.1733 131.986 88.3124 132.335 88.8456 132.869L89.5178 133.542H94.8956C98.3958 133.542 100.436 133.45 100.76 133.287C102.221 132.544 102.545 130.709 101.409 129.57L100.737 128.897H95.1274H89.5178L88.8456 129.57Z" fill="white" fill-opacity="0.4"/>
<path d="M95.3581 141.417C92.3679 142.346 90.5135 144.692 90.3049 147.828C90.1426 150.244 90.6757 151.638 92.3215 153.31C93.8283 154.82 95.1959 155.377 97.3285 155.377C99.461 155.377 100.829 154.82 102.335 153.31C105.117 150.523 105.233 146.434 102.59 143.507C101.13 141.858 99.6697 141.208 97.5603 141.231C96.6794 141.231 95.6827 141.324 95.3581 141.417ZM98.7193 146.806C99.3451 147.363 99.5306 147.712 99.5306 148.339C99.5306 149.477 98.4875 150.499 97.3285 150.499C96.7026 150.499 96.3085 150.313 95.7986 149.826C94.8714 148.896 94.8714 147.781 95.7986 146.806C96.7026 145.853 97.6066 145.853 98.7193 146.806Z" fill="white" fill-opacity="0.4"/>
<path d="M73.7534 141.905L65.2694 142.021L64.6668 142.579C63.8323 143.346 63.8555 144.623 64.6668 145.599L65.2694 146.319H74.6111H83.9295L84.5554 145.715C85.019 145.25 85.1581 144.855 85.1581 144.135C85.1349 142.811 84.5554 142.114 83.2805 141.929C82.7241 141.859 78.4358 141.836 73.7534 141.905Z" fill="white" fill-opacity="0.4"/>
<path d="M110.96 141.998C110.056 142.416 109.731 142.997 109.731 144.182C109.731 146.76 113.162 147.411 114.298 145.065C115.248 143.067 113.069 141.069 110.96 141.998Z" fill="white" fill-opacity="0.4"/>
<path d="M119.605 142.509C118.724 143.392 118.77 144.716 119.674 145.645L120.346 146.319H124.843C128.737 146.319 129.387 146.249 129.804 145.901C131.032 144.925 131.056 143.508 129.85 142.486C129.178 141.905 129.132 141.905 124.704 141.905H120.23L119.605 142.509Z" fill="white" fill-opacity="0.4"/>
<path d="M65.6902 149.571C64.2994 149.919 63.7199 151.243 64.4385 152.567C65.2034 153.984 65.1802 153.984 74.5682 153.984C84.188 153.984 84.443 153.938 85.0688 152.451C85.4629 151.499 85.2543 150.639 84.4198 149.873C83.9794 149.478 83.3071 149.455 75.2173 149.408C70.419 149.385 66.1306 149.455 65.6902 149.571Z" fill="white" fill-opacity="0.4"/>
<path d="M111.122 149.501C109.569 150.105 109.198 152.103 110.403 153.311C111.794 154.681 114.205 153.845 114.506 151.87C114.691 150.686 113.718 149.594 112.397 149.455C111.887 149.385 111.307 149.408 111.122 149.501Z" fill="white" fill-opacity="0.4"/>
<path d="M120.626 149.57C119.143 149.942 118.586 151.336 119.351 152.799C119.861 153.798 120.742 153.984 124.775 153.961C129.017 153.961 129.829 153.751 130.454 152.567C130.849 151.823 130.872 151.638 130.594 150.987C130.06 149.663 129.62 149.524 125.332 149.431C123.176 149.384 121.067 149.454 120.626 149.57Z" fill="white" fill-opacity="0.4"/>
<path d="M111.122 157.166C109.592 157.724 109.198 159.768 110.404 160.976C112.142 162.718 115.248 160.813 114.391 158.56C113.973 157.445 112.281 156.748 111.122 157.166Z" fill="white" fill-opacity="0.4"/>
<path d="M65.1086 157.515C63.9032 158.212 63.6946 159.768 64.6682 160.93L65.2708 161.65H74.6588H84.0468L84.719 160.976C85.2058 160.465 85.3912 160.07 85.3912 159.443C85.3912 158.816 85.2058 158.421 84.719 157.91L84.0468 157.236H74.7979C68.3075 157.26 65.4331 157.329 65.1086 157.515Z" fill="white" fill-opacity="0.4"/>
<path d="M120.045 157.515C119.28 157.933 119.002 158.444 119.002 159.466C119.002 160.279 119.118 160.558 119.721 161.046C120.416 161.65 120.439 161.65 124.681 161.65C127.022 161.65 129.201 161.557 129.526 161.418C130.291 161.139 130.94 159.815 130.731 158.979C130.638 158.63 130.314 158.096 130.013 157.794C129.456 157.236 129.41 157.236 124.982 157.236C122.201 157.236 120.323 157.352 120.045 157.515Z" fill="white" fill-opacity="0.4"/>
<path d="M71.7374 164.553C65.5019 165.924 60.2168 171.847 59.7068 178.026L59.5446 179.885L56.2762 180.001C53.4714 180.094 52.915 180.187 52.4978 180.558C51.3156 181.627 51.3852 183.973 52.6137 185.134L53.2164 185.692H97.2819C133.628 185.692 141.463 185.645 141.904 185.39C142.692 184.949 143.41 183.183 143.248 182.184C143.04 181.116 141.881 180.001 140.953 179.978C140.536 179.954 139.076 179.931 137.662 179.931L135.112 179.885L134.95 178.026C134.463 172.126 130.198 166.876 124.217 164.809C122.85 164.344 122.409 164.344 98.0237 164.275C77.5092 164.251 72.9659 164.298 71.7374 164.553ZM116.22 170.221C122.363 170.384 122.363 170.384 123.615 171.034C125.121 171.824 126.953 173.497 127.694 174.774C128.251 175.727 128.969 178.235 128.969 179.304V179.885H97.3283H65.6873V179.397C65.6873 179.118 65.8032 178.351 65.9191 177.655C66.6377 173.915 69.8829 170.825 73.6845 170.268C75.3535 170.035 107.481 169.989 116.22 170.221Z" fill="white" fill-opacity="0.4"/>
<path d="M23.7086 183.136C22.0164 184.066 22.48 186.876 24.404 187.457C24.9603 187.62 27.9274 187.689 33.3515 187.62C42.0441 187.55 42.1832 187.527 42.7163 186.342C43.1568 185.39 43.0177 184.251 42.415 183.554L41.8587 182.904L33.0734 182.858C25.818 182.811 24.2185 182.858 23.7086 183.136Z" fill="white" fill-opacity="0.4"/>
<path d="M152.729 183.044C151.918 183.509 151.454 184.275 151.454 185.181C151.454 185.901 151.616 186.25 152.265 186.9L153.054 187.69L161.769 187.62L170.508 187.551L171.18 186.784C172.084 185.762 172.131 184.298 171.25 183.462L170.647 182.905L161.932 182.858C155.812 182.812 153.054 182.881 152.729 183.044Z" fill="white" fill-opacity="0.4"/>
<path d="M45.4964 191.732C43.9665 192.568 44.1288 195.053 45.7514 195.843C46.4236 196.192 47.2117 196.261 50.5033 196.261C52.6822 196.261 54.838 196.145 55.3248 196.006C56.2984 195.75 56.8315 195.077 57.0401 193.845C57.156 193.125 57.0633 192.916 56.3447 192.196L55.5334 191.383H50.8278C47.1885 191.406 45.96 191.476 45.4964 191.732Z" fill="white" fill-opacity="0.4"/>
<path d="M65.9215 192.057C64.9943 192.963 64.8552 193.729 65.3884 194.798C65.6897 195.425 66.0374 195.75 66.6169 195.959C67.7064 196.331 146.473 196.377 147.817 196.006C149.556 195.518 150.181 193.311 148.93 192.057L148.258 191.383H107.414H66.5706L65.9215 192.057Z" fill="white" fill-opacity="0.4"/>
</svg>
