<svg width="40" height="40" viewBox="0 0 40 40" fill="none" xmlns="http://www.w3.org/2000/svg">
<path d="M7.90063 5.00073L35.0009 32.1005L32.1018 34.9996L5.00149 7.89983L7.90063 5.00073Z" fill="#FFAA00"/>
<path d="M34.9983 7.90112L7.89801 35.0009L4.99886 32.1018L32.0991 5.00203L34.9983 7.90112Z" fill="#FFAA00"/>
<path d="M7.90063 5.00073L35.0009 32.1005L32.1018 34.9996L5.00149 7.89983L7.90063 5.00073Z" fill="#FFAA00"/>
<path d="M34.9983 7.90112L7.89801 35.0009L4.99886 32.1018L32.0991 5.00203L34.9983 7.90112Z" fill="#FFAA00"/>
<path d="M19.7413 33.0603C20.2832 33.0603 20.7057 33.47 20.7057 33.9553C20.7057 34.4406 20.2832 34.8502 19.7413 34.8502C19.1995 34.8502 18.777 34.4406 18.777 33.9553C18.777 33.47 19.1995 33.0603 19.7413 33.0603Z" stroke="#FFAA00" stroke-width="0.3"/>
<path d="M19.7413 5.15017C20.2832 5.15017 20.7057 5.5598 20.7057 6.04513C20.7057 6.53046 20.2832 6.94009 19.7413 6.94009C19.1995 6.94009 18.777 6.53046 18.777 6.04513C18.777 5.5598 19.1995 5.15017 19.7413 5.15017Z" stroke="#FFAA00" stroke-width="0.3"/>
<path d="M6.07879 19.1741C6.07879 19.6594 5.65625 20.0691 5.11439 20.0691C4.57254 20.0691 4.15 19.6594 4.15 19.1741C4.15 18.6888 4.57254 18.2792 5.11439 18.2792C5.65625 18.2792 6.07879 18.6888 6.07879 19.1741Z" stroke="#FFAA00" stroke-width="0.3"/>
<path d="M35.4714 18.9632C35.4714 19.4485 35.0488 19.8581 34.507 19.8581C33.9651 19.8581 33.5426 19.4485 33.5426 18.9632C33.5426 18.4778 33.9651 18.0682 34.507 18.0682C35.0488 18.0682 35.4714 18.4778 35.4714 18.9632Z" stroke="#FFAA00" stroke-width="0.3"/>
</svg>
