<svg width="40" height="40" viewBox="0 0 40 40" fill="none" xmlns="http://www.w3.org/2000/svg">
<circle cx="20" cy="20" r="20" fill="white"/>
<path d="M29.9646 18.7672L25.7459 22.4075L27.0312 27.8516C27.1021 28.1471 27.0838 28.457 26.9787 28.7422C26.8736 29.0274 26.6863 29.275 26.4405 29.4537C26.1947 29.6325 25.9015 29.7344 25.5978 29.7466C25.2941 29.7588 24.9936 29.6807 24.7343 29.5222L19.9999 26.6085L15.2628 29.5222C15.0035 29.6798 14.7034 29.7571 14.4002 29.7445C14.097 29.7319 13.8044 29.6298 13.5591 29.4512C13.3139 29.2726 13.1269 29.0254 13.0219 28.7407C12.9168 28.4561 12.8983 28.1467 12.9687 27.8516L14.2587 22.4075L10.0399 18.7672C9.81053 18.5689 9.64462 18.3075 9.56293 18.0155C9.48123 17.7235 9.48737 17.4139 9.58058 17.1253C9.67379 16.8368 9.84994 16.5821 10.087 16.3931C10.3241 16.2041 10.6116 16.0891 10.9137 16.0625L16.4449 15.6163L18.5787 10.4525C18.6942 10.1711 18.8908 9.93039 19.1434 9.76097C19.3961 9.59156 19.6934 9.5011 19.9976 9.5011C20.3018 9.5011 20.5991 9.59156 20.8518 9.76097C21.1044 9.93039 21.301 10.1711 21.4165 10.4525L23.5493 15.6163L29.0806 16.0625C29.3832 16.0881 29.6716 16.2025 29.9095 16.3912C30.1475 16.58 30.3244 16.8348 30.4182 17.1236C30.512 17.4125 30.5185 17.7227 30.4368 18.0152C30.3551 18.3077 30.1889 18.5697 29.959 18.7682L29.9646 18.7672Z" fill="#AA00FF"/>
</svg>
