<svg width="744" height="963" viewBox="0 0 744 963" fill="none" xmlns="http://www.w3.org/2000/svg">
<g clip-path="url(#clip0_1175_32226)">
<g opacity="0.5">
<path d="M821.389 737.503C679.626 949.108 464.396 790.524 374.501 684.781C172.709 375.012 471.503 323.766 645.83 468.005C820.156 612.243 785.982 181.938 1062.41 236.658C1382.94 300.109 998.593 472.998 821.389 737.503Z" stroke="white" stroke-width="0.723562"/>
<path opacity="0.95875" d="M813.964 727.959C679.672 944.383 459.039 793.406 365.509 690.865C153.029 388.327 449.853 326.685 629.107 464.752C808.361 602.818 759.19 173.968 1037.36 219.008C1359.91 271.233 981.829 457.431 813.964 727.959Z" stroke="white" stroke-width="0.723562"/>
<path opacity="0.9175" d="M806.211 718.68C679.553 939.658 453.786 796.474 356.734 697.259C133.825 402.321 428.317 330.358 612.28 462.084C796.243 593.811 732.136 166.938 1011.71 202.242C1335.88 243.179 964.532 442.458 806.211 718.68Z" stroke="white" stroke-width="0.723562"/>
<path opacity="0.87625" d="M798.138 709.677C679.27 934.941 448.643 799.723 348.188 703.956C115.121 416.977 406.922 334.78 595.37 460.006C783.819 585.232 704.853 160.856 985.486 186.382C1310.89 215.981 946.723 428.098 798.138 709.677Z" stroke="white" stroke-width="0.723562"/>
<path opacity="0.835" d="M789.756 700.962C678.822 930.237 443.616 803.15 339.88 710.947C96.9407 432.277 385.695 339.946 578.399 458.519C771.103 577.092 677.374 155.73 958.727 171.447C1284.97 189.671 928.424 414.368 789.756 700.962Z" stroke="white" stroke-width="0.723562"/>
<path opacity="0.79375" d="M781.075 692.544C678.211 925.551 438.713 806.75 331.822 718.223C79.3049 448.201 364.661 345.849 561.386 457.625C758.11 569.401 649.733 151.567 931.463 157.455C1258.14 164.282 909.657 401.285 781.075 692.544Z" stroke="white" stroke-width="0.723562"/>
<path opacity="0.7525" d="M772.106 684.434C677.436 920.889 433.938 810.518 324.023 725.776C62.2355 464.732 343.846 352.483 544.351 457.325C744.857 562.167 621.964 148.37 903.728 144.422C1230.44 139.845 890.444 388.866 772.106 684.434Z" stroke="white" stroke-width="0.723562"/>
<path opacity="0.71125" d="M762.859 676.642C676.499 916.257 429.297 814.452 316.491 733.597C45.7536 481.848 323.275 359.84 527.317 457.62C731.36 555.401 594.1 146.145 875.555 132.366C1201.91 116.389 870.81 377.124 762.859 676.642Z" stroke="white" stroke-width="0.723562"/>
<path opacity="0.67" d="M753.346 669.178C675.4 911.661 424.797 818.545 309.238 741.676C29.879 499.529 302.973 367.91 510.304 458.51C717.635 549.11 566.176 144.893 846.978 121.3C1172.58 93.9431 850.778 366.075 753.346 669.178Z" stroke="white" stroke-width="0.723562"/>
<path opacity="0.62875" d="M743.578 662.05C674.142 907.105 420.442 822.792 302.271 750.004C14.6311 517.753 282.965 376.683 493.332 459.992C703.698 543.301 538.225 144.617 818.032 111.239C1142.48 72.5348 830.372 355.731 743.578 662.05Z" stroke="white" stroke-width="0.723562"/>
<path opacity="0.5875" d="M733.567 655.268C672.726 902.597 416.238 827.189 295.598 758.569C0.0285901 536.498 263.276 386.15 476.422 462.066C689.567 537.983 510.281 145.317 788.753 102.193C1111.65 52.1899 809.619 346.106 733.567 655.268Z" stroke="white" stroke-width="0.723562"/>
<path opacity="0.54625" d="M723.326 648.84C671.154 898.141 412.189 831.731 289.229 767.363C-13.911 555.743 243.929 396.298 459.594 464.73C675.26 533.162 482.379 146.992 759.176 94.176C1080.13 32.9341 788.541 337.212 723.326 648.84Z" stroke="white" stroke-width="0.723562"/>
<path opacity="0.505" d="M712.867 642.772C669.427 893.743 408.302 836.41 283.17 776.373C-27.1703 575.461 224.948 407.115 442.87 467.979C660.792 528.842 454.552 149.639 729.338 87.1951C1047.96 14.7892 767.166 329.058 712.867 642.772Z" stroke="white" stroke-width="0.723562"/>
<path opacity="0.46375" d="M702.202 637.072C667.547 889.406 404.581 841.221 277.43 785.587C-39.7335 595.629 206.356 418.587 426.27 471.808C646.183 525.029 426.834 153.254 699.273 81.2587C1015.18 -2.22293 745.52 321.654 702.202 637.072Z" stroke="white" stroke-width="0.723562"/>
<path opacity="0.4225" d="M691.344 631.749C665.517 885.139 401.03 846.161 272.014 794.999C-51.5852 616.225 188.176 430.702 409.813 476.216C631.45 521.73 399.259 157.837 669.02 76.3771C981.818 -18.0786 723.628 315.012 691.344 631.749Z" stroke="white" stroke-width="0.723562"/>
<path opacity="0.38125" d="M680.308 626.807C663.34 880.944 397.653 851.221 266.931 804.592C-62.7107 637.22 170.43 443.443 393.52 481.194C616.61 518.945 371.862 163.377 638.615 72.5524C947.926 -32.7622 701.518 309.137 680.308 626.807Z" stroke="white" stroke-width="0.723562"/>
<path opacity="0.34" d="M669.106 622.255C661.017 876.829 394.455 856.396 262.185 814.358C-73.0968 658.593 153.139 456.797 377.411 486.74C601.683 516.682 344.674 169.872 608.095 69.7931C913.543 -46.2522 679.217 304.038 669.106 622.255Z" stroke="white" stroke-width="0.723562"/>
<path opacity="0.29875" d="M657.752 618.096C658.552 872.797 391.439 861.68 257.783 824.283C-82.7307 680.314 136.325 470.746 361.505 492.843C586.685 514.94 317.73 177.311 577.498 68.0996C878.709 -58.5349 656.751 299.72 657.752 618.096Z" stroke="white" stroke-width="0.723562"/>
<path opacity="0.2575" d="M646.259 614.336C655.948 868.854 388.61 867.065 253.73 834.356C-91.6008 702.358 120.007 485.273 345.821 499.498C571.636 513.722 291.061 185.685 546.859 67.475C843.468 -69.5946 634.148 296.188 646.259 614.336Z" stroke="white" stroke-width="0.723562"/>
<path opacity="0.21625" d="M634.642 610.978C653.208 865.002 385.97 872.545 250.031 844.563C-99.6961 724.697 104.207 500.359 330.38 506.695C556.553 513.03 264.701 194.984 516.218 67.919C807.862 -79.4185 611.435 293.446 634.642 610.978Z" stroke="white" stroke-width="0.723562"/>
<path opacity="0.175" d="M622.916 608.029C650.335 861.251 383.524 878.115 246.691 854.895C-107.007 747.307 88.9428 515.99 315.199 514.428C541.456 512.866 238.682 205.2 485.611 69.4342C771.935 -87.9918 588.641 291.501 622.916 608.029Z" stroke="white" stroke-width="0.723562"/>
<path opacity="0.13375" d="M611.093 605.49C647.333 857.601 381.273 883.767 243.713 865.336C-113.524 770.158 74.2333 532.143 300.297 522.686C526.362 513.229 213.035 216.316 455.075 72.0156C735.731 -95.3071 565.793 290.351 611.093 605.49Z" stroke="white" stroke-width="0.723562"/>
<path opacity="0.0925" d="M599.189 603.366C644.206 854.059 379.221 889.493 241.101 875.874C-119.24 793.222 60.0966 548.799 285.693 531.458C511.289 514.117 187.791 228.321 424.648 75.6611C699.294 -101.354 542.918 290 599.189 603.366Z" stroke="white" stroke-width="0.723562"/>
<path opacity="0.05125" d="M587.218 601.658C640.957 850.627 377.369 895.288 238.859 886.498C-124.147 816.471 46.5497 565.939 271.404 540.735C496.257 515.532 162.982 241.199 394.367 80.3662C662.668 -106.126 520.045 290.447 587.218 601.658Z" stroke="white" stroke-width="0.723562"/>
<path opacity="0.01" d="M575.195 600.369C637.59 847.311 375.722 901.144 236.988 897.193C-128.24 839.878 33.6094 583.541 257.447 550.505C481.284 517.47 138.637 254.936 364.269 86.1253C625.897 -109.617 497.202 291.692 575.195 600.369Z" stroke="white" stroke-width="0.723562"/>
</g>
</g>
<defs>
<clipPath id="clip0_1175_32226">
<rect width="744" height="963" fill="white"/>
</clipPath>
</defs>
</svg>
