<svg width="58" height="32" viewBox="0 0 58 32" fill="none" xmlns="http://www.w3.org/2000/svg">
<g clip-path="url(#clip0_1198_10511)">
<mask id="mask0_1198_10511" style="mask-type:luminance" maskUnits="userSpaceOnUse" x="0" y="0" width="58" height="32">
<path d="M58 0H0V32H58V0Z" fill="white"/>
</mask>
<g mask="url(#mask0_1198_10511)">
<path fill-rule="evenodd" clip-rule="evenodd" d="M43.4153 1.85254H39.8709L36.8013 9.76833L38.6837 13.4736L43.4153 1.85254Z" fill="white"/>
<path fill-rule="evenodd" clip-rule="evenodd" d="M35.6988 21.2211L41.1596 32H45.111L37.9543 18.3579H34.0876L35.6988 21.2211Z" fill="white"/>
<path fill-rule="evenodd" clip-rule="evenodd" d="M36.3942 12.6315L31.0181 1.85254H27.1345L34.1895 15.4946H37.9883L36.3942 12.6315Z" fill="white"/>
<path fill-rule="evenodd" clip-rule="evenodd" d="M38.1578 29.4737L36.2923 26.2737H34.1385L35.2748 24.2021L33.3923 20.5474L27.4736 32H31.0011L32.3918 29.4737H38.1578Z" fill="white"/>
<path fill-rule="evenodd" clip-rule="evenodd" d="M56.0159 12.1094C57.1182 11.6378 57.6609 10.7452 57.8814 9.34728C57.9832 8.7578 58.0001 7.74728 58.0001 7.10728C58.0001 6.45043 57.9662 5.37254 57.8644 4.85043C57.4405 2.6778 56.0837 1.85254 53.3872 1.85254H45.8913V4.83359H53.065C53.7434 4.83359 54.2861 5.37254 54.2861 6.06307V8.13464C54.2861 8.79149 53.7434 9.36412 53.065 9.36412H45.8913L44.4329 12.5136H52.1832L53.913 15.4946H58.0001L56.0159 12.1094Z" fill="white"/>
<path fill-rule="evenodd" clip-rule="evenodd" d="M56.0498 28.48C57.1352 28.0253 57.6609 27.1326 57.8814 25.7516C57.9832 25.179 58.0001 24.1684 58.0001 23.5453C58.0001 22.8884 57.9662 21.8274 57.8644 21.3053C57.4405 19.1663 56.1177 18.3579 53.472 18.3579H44.4329L46.0948 21.3053H53.1329C53.7943 21.3053 54.337 21.8442 54.337 22.5179V24.5558C54.337 25.2126 53.8112 25.7684 53.1329 25.7684H46.0948V28.8842H52.2849L53.9808 32H58.0001L56.0498 28.48Z" fill="white"/>
<path d="M15.0427 32H20.0626V21.8274C20.0626 17.0442 18.2819 14.9053 13.3637 14.9053H6.95322C2.22164 14.9053 0 16.4042 0 21.1874V32H5.01988V20.9179C5.01988 19.2169 6.15614 18.6274 7.98772 18.6274H12.3123C14.5678 18.6274 15.0257 19.3347 15.0257 20.9347V32H15.0427Z" fill="white"/>
<path fill-rule="evenodd" clip-rule="evenodd" d="M22.4655 2.24268C22.0581 1.85484 21.2777 1.85484 19.7844 1.85484H17.5957C16.8321 0.607038 15.4577 0 13.184 0H6.88894C3.42751 0 2.05312 1.39956 1.74768 4.31672H0V7.90836H1.67982V8.65029C1.67982 12.6635 3.42751 14.1474 7.38101 14.1474H12.658C15.9158 14.1474 17.6805 13.1525 18.2066 10.5557H19.4621C19.8524 10.5557 22.8896 9.64517 22.8896 7.18329V5.36217C22.9066 3.54105 22.9066 2.66422 22.4655 2.24268ZM7.46585 3.08578H12.6071C12.8616 3.08578 13.0822 3.11949 13.2858 3.17009C13.1331 3.49048 13.0313 3.86144 12.9804 4.29986H5.73513C5.95572 3.54105 6.49868 3.08578 7.46585 3.08578ZM12.5901 11.0447H7.49979C6.1763 11.0447 5.59939 10.6569 5.59939 8.83579V7.8915H12.9634C13.0822 9.05499 13.5234 9.78006 14.3378 10.1679C14.0324 10.8761 13.4894 11.0447 12.5901 11.0447ZM18.1725 3.62536C17.9859 3.67596 17.6805 3.69282 17.392 3.69282C17.3412 3.69282 17.2733 3.69282 17.2224 3.70968H17.2055C17.1544 3.70968 17.0866 3.70968 17.0357 3.72654H17.0188C16.9679 3.72654 16.917 3.72653 16.866 3.74341H16.8491C16.7982 3.74341 16.7473 3.76027 16.7133 3.76027C16.7133 3.76027 16.7133 3.76027 16.6964 3.76027C16.6794 3.76027 16.6794 3.76027 16.6624 3.76027C16.6455 3.76027 16.6455 3.76027 16.6285 3.76027C16.6115 3.76027 16.6115 3.76027 16.5946 3.76027C16.5776 3.76027 16.5776 3.76027 16.5606 3.76027C16.5437 3.76027 16.5437 3.76027 16.5267 3.77713C16.5097 3.77713 16.5097 3.77713 16.4928 3.77713C16.4758 3.77713 16.4758 3.77713 16.4588 3.79399C16.4588 3.79399 16.4418 3.79399 16.4418 3.81085C16.4418 3.81085 16.4249 3.81085 16.4249 3.82772C16.4249 3.82772 16.4079 3.82772 16.4079 3.84458L16.3909 3.86144C16.3909 3.86144 16.374 3.86144 16.374 3.8783L16.357 3.89516C16.357 3.89516 16.357 3.89516 16.357 3.91203C16.357 3.92889 16.357 3.92889 16.34 3.94575C16.3231 4.03006 16.357 4.21555 16.374 4.43475C16.4249 4.87316 16.4928 5.42963 16.34 5.5308C16.3061 5.54766 16.2891 5.56451 16.2552 5.58137C16.2552 5.58137 16.2552 5.58137 16.2382 5.58137C16.2043 5.59825 16.1704 5.61511 16.1364 5.63197H16.1195C16.0855 5.64883 16.0346 5.66568 16.0007 5.68256H15.9837C15.9498 5.69942 15.8989 5.71628 15.848 5.73314H15.831C15.7801 5.75 15.7462 5.75 15.6953 5.76687H15.6783C15.6274 5.78373 15.5765 5.78373 15.5426 5.78373C15.5426 5.78373 15.5426 5.78373 15.5256 5.78373C15.4747 5.78373 15.4238 5.78373 15.3898 5.78373C15.3389 5.78373 15.305 5.76687 15.2541 5.75C15.2541 5.75 15.2541 5.75 15.2371 5.75C15.2202 5.73314 15.1862 5.73314 15.1693 5.71628C14.8978 5.54765 14.8978 4.45162 14.9317 3.91203C14.8469 3.6591 14.8129 3.23754 15.0844 3.06892C15.1014 3.05206 15.1184 3.05206 15.1523 3.0352H15.1693C15.2032 3.01832 15.2202 3.01832 15.2541 3.00147H15.2711C15.305 2.98461 15.3389 2.98461 15.3729 2.96775C15.3898 2.96775 15.3898 2.96775 15.4068 2.96775C15.4407 2.95089 15.4916 2.95089 15.5426 2.93401C15.5595 2.93401 15.5595 2.93401 15.5765 2.93401C15.6274 2.91715 15.6613 2.91715 15.7122 2.9003H15.7292C15.7801 2.88344 15.831 2.88344 15.8989 2.86658C15.9158 2.86658 15.9328 2.86658 15.9328 2.86658C15.9837 2.8497 16.0516 2.8497 16.1195 2.83284C16.1195 2.83284 16.1195 2.83284 16.1364 2.83284C16.2043 2.81598 16.2552 2.81598 16.3231 2.79912C16.34 2.79912 16.357 2.79912 16.374 2.79912C16.4418 2.78227 16.5097 2.78227 16.5606 2.76539C16.5776 2.76539 16.5776 2.76539 16.5946 2.76539C16.6455 2.76539 16.7133 2.74853 16.7642 2.74853C16.7812 2.74853 16.7982 2.74853 16.8151 2.74853C16.883 2.74853 16.9509 2.73167 17.0018 2.73167C17.0188 2.73167 17.0357 2.73167 17.0357 2.73167C17.0866 2.73167 17.1544 2.71481 17.2055 2.71481C17.2224 2.71481 17.2224 2.71481 17.2394 2.71481C17.3072 2.71481 17.3581 2.69795 17.4259 2.69795C17.4429 2.69795 17.4599 2.69795 17.4768 2.69795C17.5448 2.69795 17.5957 2.69795 17.6466 2.69795C17.6975 2.69795 17.7483 2.69795 17.7992 2.69795C17.8162 2.69795 17.8162 2.69795 17.8331 2.69795C17.8842 2.69795 17.9351 2.69795 17.9859 2.69795C18.2235 2.71481 18.3762 2.74853 18.427 2.79912C18.6307 3.08578 18.6816 3.50733 18.1725 3.62536Z" fill="white"/>
</g>
</g>
<defs>
<clipPath id="clip0_1198_10511">
<rect width="58" height="32" fill="white"/>
</clipPath>
</defs>
</svg>
