<svg width="72" height="40" viewBox="0 0 72 40" fill="none" xmlns="http://www.w3.org/2000/svg">
<g clip-path="url(#clip0_948_12906)">
<mask id="mask0_948_12906" style="mask-type:luminance" maskUnits="userSpaceOnUse" x="0" y="0" width="72" height="40">
<path d="M72 0.036377H0V39.9636H72V0.036377Z" fill="white"/>
</mask>
<g mask="url(#mask0_948_12906)">
<path fill-rule="evenodd" clip-rule="evenodd" d="M53.8947 2.34814H49.4947L45.6842 12.2249L48.021 16.848L53.8947 2.34814Z" fill="white"/>
<path fill-rule="evenodd" clip-rule="evenodd" d="M44.3158 26.5146L51.0947 39.9638H56L47.1158 22.9421H42.3158L44.3158 26.5146Z" fill="white"/>
<path fill-rule="evenodd" clip-rule="evenodd" d="M45.1789 15.7973L38.5053 2.34814H33.6842L42.4421 19.3698H47.1579L45.1789 15.7973Z" fill="white"/>
<path fill-rule="evenodd" clip-rule="evenodd" d="M47.3684 36.8114L45.0527 32.8187H42.379L43.7895 30.2339L41.4527 25.6738L34.1053 39.9636H38.4842L40.2105 36.8114H47.3684Z" fill="white"/>
<path fill-rule="evenodd" clip-rule="evenodd" d="M69.5368 15.1459C70.9053 14.5575 71.5789 13.4437 71.8526 11.6995C71.9789 10.964 72 9.70317 72 8.90462C72 8.08506 71.9579 6.74014 71.8316 6.0887C71.3053 3.37785 69.621 2.34814 66.2737 2.34814H56.9684V6.06769H65.8737C66.7158 6.06769 67.3895 6.74014 67.3895 7.60173V10.1865C67.3895 11.0061 66.7158 11.7205 65.8737 11.7205H56.9684L55.1579 15.6502H64.779L66.9263 19.3698H72L69.5368 15.1459Z" fill="white"/>
<path fill-rule="evenodd" clip-rule="evenodd" d="M69.5789 35.5718C70.9263 35.0044 71.5789 33.8906 71.8526 32.1674C71.9789 31.453 72 30.1921 72 29.4146C72 28.595 71.9579 27.2711 71.8316 26.6197C71.3053 23.9508 69.6632 22.9421 66.3789 22.9421H55.1579L57.2211 26.6197H65.9579C66.7789 26.6197 67.4526 27.2921 67.4526 28.1327V30.6754C67.4526 31.495 66.8 32.1885 65.9579 32.1885H57.2211V36.0761H64.9053L67.0105 39.9638H72L69.5789 35.5718Z" fill="white"/>
<path d="M18.6737 39.9636H24.9053V27.2709C24.9053 21.3029 22.6947 18.634 16.5895 18.634H8.63158C2.75789 18.634 0 20.5043 0 26.4724V39.9636H6.23158V26.1362C6.23158 24.0137 7.64211 23.2782 9.91579 23.2782H15.2842C18.0842 23.2782 18.6526 24.1608 18.6526 26.1572V39.9636H18.6737Z" fill="white"/>
<path fill-rule="evenodd" clip-rule="evenodd" d="M27.8882 2.83463C27.3825 2.35071 26.4137 2.35071 24.56 2.35071H21.8429C20.895 0.793795 19.1889 0.036377 16.3664 0.036377H8.55179C4.25484 0.036377 2.54869 1.78265 2.16954 5.42246H0V9.90386H2.08529V10.8296C2.08529 15.837 4.25484 17.6884 9.16263 17.6884H15.7134C19.7576 17.6884 21.9482 16.4471 22.6013 13.207H24.1598C24.6444 13.207 28.4147 12.0709 28.4147 8.99917V6.72691C28.4358 4.45465 28.4358 3.3606 27.8882 2.83463ZM9.26796 3.88658H15.6502C15.9662 3.88658 16.24 3.92866 16.4928 3.99178C16.3032 4.39154 16.1768 4.8544 16.1136 5.40143H7.11947C7.39331 4.45464 8.06733 3.88658 9.26796 3.88658ZM15.6291 13.8172H9.31009C7.66714 13.8172 6.95097 13.3333 6.95097 11.061V9.88282H16.0925C16.24 11.3345 16.7876 12.2392 17.7987 12.7231C17.4195 13.6068 16.7455 13.8172 15.6291 13.8172ZM22.5589 4.55984C22.3274 4.62297 21.9482 4.64401 21.5901 4.64401C21.5269 4.64401 21.4427 4.644 21.3796 4.66504H21.3585C21.2952 4.66504 21.2109 4.66504 21.1478 4.68608H21.1267C21.0636 4.68608 21.0004 4.68608 20.9372 4.70713H20.9161C20.8529 4.70713 20.7897 4.72817 20.7476 4.72817C20.7476 4.72817 20.7476 4.72817 20.7265 4.72817C20.7055 4.72817 20.7055 4.72817 20.6844 4.72817C20.6633 4.72817 20.6633 4.72817 20.6423 4.72817C20.6212 4.72817 20.6212 4.72817 20.6001 4.72817C20.5791 4.72817 20.5791 4.72817 20.558 4.72817C20.5369 4.72817 20.5369 4.72817 20.5159 4.7492C20.4948 4.7492 20.4948 4.7492 20.4738 4.7492C20.4527 4.7492 20.4527 4.7492 20.4316 4.77024C20.4316 4.77024 20.4106 4.77024 20.4106 4.79127C20.4106 4.79127 20.3895 4.79127 20.3895 4.81233C20.3895 4.81233 20.3684 4.81233 20.3684 4.83337L20.3474 4.8544C20.3474 4.8544 20.3263 4.8544 20.3263 4.87544L20.3052 4.89647C20.3052 4.89647 20.3052 4.89647 20.3052 4.91753C20.3052 4.93856 20.3052 4.93856 20.2842 4.9596C20.2631 5.0648 20.3052 5.29623 20.3263 5.56973C20.3895 6.11675 20.4738 6.81107 20.2842 6.9373C20.2421 6.95834 20.221 6.97937 20.1789 7.00041C20.1789 7.00041 20.1789 7.00041 20.1578 7.00041C20.1157 7.02146 20.0736 7.0425 20.0314 7.06353H20.0104C19.9682 7.08457 19.9051 7.10561 19.8629 7.12666H19.8419C19.7997 7.1477 19.7365 7.16873 19.6733 7.18977H19.6523C19.5891 7.2108 19.547 7.2108 19.4838 7.23186H19.4627C19.3995 7.25289 19.3363 7.2529 19.2942 7.2529C19.2942 7.2529 19.2942 7.2529 19.2731 7.2529C19.2099 7.2529 19.1468 7.2529 19.1046 7.2529C19.0414 7.2529 18.9993 7.23186 18.9361 7.2108C18.9361 7.2108 18.9361 7.2108 18.9151 7.2108C18.894 7.18977 18.8519 7.18977 18.8308 7.16873C18.4938 6.95834 18.4938 5.59079 18.5359 4.91753C18.4306 4.60193 18.3885 4.07595 18.7255 3.86555C18.7465 3.84451 18.7676 3.84451 18.8097 3.82348H18.8308C18.8729 3.80242 18.894 3.80242 18.9361 3.78139H18.9572C18.9993 3.76035 19.0414 3.76035 19.0836 3.73932C19.1046 3.73932 19.1046 3.73932 19.1257 3.73932C19.1678 3.71828 19.231 3.71828 19.2942 3.69722C19.3153 3.69722 19.3153 3.69722 19.3363 3.69722C19.3995 3.67619 19.4416 3.67619 19.5048 3.65515H19.5259C19.5891 3.63412 19.6523 3.63412 19.7365 3.61308C19.7576 3.61308 19.7787 3.61308 19.7787 3.61308C19.8419 3.59203 19.9261 3.59203 20.0104 3.57099C20.0104 3.57099 20.0104 3.57099 20.0314 3.57099C20.1157 3.54996 20.1789 3.54996 20.2631 3.52892C20.2842 3.52892 20.3052 3.52892 20.3263 3.52892C20.4106 3.50789 20.4948 3.50789 20.558 3.48683C20.5791 3.48683 20.5791 3.48683 20.6001 3.48683C20.6633 3.48683 20.7476 3.46579 20.8108 3.46579C20.8318 3.46579 20.8529 3.46579 20.874 3.46579C20.9582 3.46579 21.0425 3.44476 21.1057 3.44476C21.1267 3.44476 21.1478 3.44476 21.1478 3.44476C21.2109 3.44476 21.2952 3.42372 21.3585 3.42372C21.3796 3.42372 21.3796 3.42372 21.4006 3.42372C21.4848 3.42372 21.548 3.40269 21.6322 3.40269C21.6533 3.40269 21.6743 3.40269 21.6954 3.40269C21.7798 3.40269 21.8429 3.40269 21.9061 3.40269C21.9693 3.40269 22.0324 3.40269 22.0956 3.40269C22.1166 3.40269 22.1166 3.40269 22.1377 3.40269C22.2011 3.40269 22.2642 3.40269 22.3274 3.40269C22.6223 3.42372 22.8118 3.46579 22.8749 3.52892C23.1278 3.88658 23.1909 4.41257 22.5589 4.55984Z" fill="white"/>
</g>
</g>
<defs>
<clipPath id="clip0_948_12906">
<rect width="72" height="39.9273" fill="white" transform="translate(0 0.036377)"/>
</clipPath>
</defs>
</svg>
