<svg width="744" height="1193" viewBox="0 0 744 1193" fill="none" xmlns="http://www.w3.org/2000/svg">
<g opacity="0.5">
<path d="M-30.1908 947.14C111.396 1188.16 357.48 1028.38 462.824 918.364C703.992 592.079 379.967 516.557 179.625 663.273C-20.7161 809.989 44.6333 340.778 -261.761 382.799C-617.036 431.524 -207.174 645.863 -30.1908 947.14Z" stroke="white"/>
<path opacity="0.95875" d="M-21.4374 937.166C111.652 1182.98 363.162 1031.89 472.281 925.613C724.689 607.944 403.497 521.159 198.158 660.794C-7.18194 800.429 74.5029 333.784 -233.171 365.086C-589.931 401.383 -187.799 629.896 -21.4374 937.166Z" stroke="white"/>
<path opacity="0.9175" d="M-12.3412 927.503C112.088 1177.81 368.718 1035.59 481.48 933.187C744.821 624.521 426.853 526.579 216.765 658.963C6.67763 791.347 104.598 327.837 -203.98 348.382C-561.79 372.206 -167.878 614.614 -12.3412 927.503Z" stroke="white"/>
<path opacity="0.87625" d="M-2.9133 918.163C112.704 1172.66 374.142 1039.48 490.408 941.078C764.361 641.79 450.005 532.811 235.426 657.783C20.8457 782.754 134.883 322.943 -174.225 332.707C-532.647 344.029 -147.435 600.037 -2.9133 918.163Z" stroke="white"/>
<path opacity="0.835" d="M6.83483 909.158C113.5 1167.54 379.426 1043.56 499.056 949.276C783.287 659.731 472.926 539.848 254.116 657.254C35.3051 774.66 165.32 319.11 -143.94 318.08C-502.54 316.886 -126.497 586.182 6.83483 909.158Z" stroke="white"/>
<path opacity="0.79375" d="M16.8912 900.499C114.474 1162.44 384.565 1047.82 507.413 957.77C801.575 678.321 495.587 547.68 272.813 657.378C50.0381 767.077 195.872 316.341 -113.163 304.519C-471.503 290.811 -105.087 573.066 16.8912 900.499Z" stroke="white"/>
<path opacity="0.7525" d="M27.2438 892.196C115.625 1157.39 389.552 1052.26 515.468 966.551C819.204 697.539 517.962 556.298 291.494 658.155C65.0268 760.012 226.503 314.64 -81.9323 292.04C-439.575 265.835 -83.2332 560.706 27.2438 892.196Z" stroke="white"/>
<path opacity="0.71125" d="M37.8798 884.259C116.952 1152.37 394.381 1056.87 523.211 975.608C836.151 717.36 540.021 565.692 310.137 659.583C80.253 753.474 257.174 314.01 -50.2846 280.659C-406.795 241.988 -60.961 549.115 37.8798 884.259Z" stroke="white"/>
<path opacity="0.67" d="M48.7862 876.698C118.454 1147.41 399.046 1061.65 530.634 984.93C852.396 737.76 561.74 575.85 328.719 661.661C95.6979 747.472 287.848 314.449 -18.2591 270.389C-373.203 219.299 -38.298 538.309 48.7862 876.698Z" stroke="white"/>
<path opacity="0.62875" d="M59.95 869.523C120.127 1142.5 403.542 1066.58 537.727 994.505C867.919 758.715 583.09 586.759 347.217 664.386C111.343 742.013 318.488 315.96 14.1053 261.243C-338.839 197.797 -15.2716 528.301 59.95 869.523Z" stroke="white"/>
<path opacity="0.5875" d="M71.3573 862.742C121.971 1137.65 407.863 1071.67 544.482 1004.32C882.701 780.199 604.047 598.407 365.608 667.755C127.169 737.102 349.057 318.538 46.7692 253.232C-303.746 177.507 8.09001 519.102 71.3573 862.742Z" stroke="white"/>
<path opacity="0.54625" d="M82.9944 856.363C123.983 1132.87 412.003 1076.91 550.889 1014.37C896.725 802.186 624.585 610.78 383.871 671.764C143.157 732.748 379.518 322.183 79.6929 246.367C-267.966 158.455 31.7585 510.725 82.9944 856.363Z" stroke="white"/>
<path opacity="0.505" d="M94.8469 850.394C126.161 1128.17 415.958 1082.29 556.943 1024.63C909.972 824.648 644.678 623.862 401.983 676.408C159.287 728.954 409.832 326.887 112.836 240.654C-231.543 140.663 55.7048 503.178 94.8469 850.394Z" stroke="white"/>
<path opacity="0.46375" d="M106.901 844.841C128.501 1123.54 419.723 1087.8 562.634 1035.1C922.428 847.559 664.303 637.636 419.921 681.68C175.54 725.724 439.964 332.647 146.158 236.101C-194.521 124.152 79.9 496.471 106.901 844.841Z" stroke="white"/>
<path opacity="0.4225" d="M119.141 839.714C131.002 1118.99 423.293 1093.45 567.957 1045.76C934.076 870.891 683.435 652.088 437.665 687.577C191.895 723.065 469.877 339.455 179.619 232.714C-156.946 108.944 104.315 490.613 119.141 839.714Z" stroke="white"/>
<path opacity="0.38125" d="M131.552 835.016C133.659 1114.54 426.665 1099.21 572.904 1056.6C944.903 894.615 702.051 667.198 455.192 694.088C208.333 720.977 499.533 347.302 213.178 230.497C-118.862 95.0561 128.919 485.611 131.552 835.016Z" stroke="white"/>
<path opacity="0.34" d="M144.12 830.755C136.471 1110.18 429.833 1105.09 577.47 1067.61C954.896 918.703 720.128 682.949 472.481 701.207C224.834 719.465 528.898 356.181 246.794 229.453C-80.3178 82.5063 153.682 481.47 144.12 830.755Z" stroke="white"/>
<path opacity="0.29875" d="M156.829 826.934C139.433 1105.92 432.794 1111.07 581.649 1078.77C964.042 943.125 737.645 699.322 489.511 708.925C241.378 718.529 557.935 366.078 280.425 229.582C-41.3584 71.3092 178.575 478.197 156.829 826.934Z" stroke="white"/>
<path opacity="0.2575" d="M169.664 823.56C142.541 1101.77 435.544 1117.15 585.436 1090.07C972.33 967.851 754.579 716.295 506.262 717.233C257.945 718.172 586.609 376.983 314.032 230.885C-2.03214 61.4782 203.568 475.794 169.664 823.56Z" stroke="white"/>
<path opacity="0.21625" d="M182.609 820.635C145.793 1097.73 438.08 1123.33 588.826 1101.49C979.75 992.851 770.911 733.849 522.712 726.12C274.513 718.392 614.885 388.881 347.573 233.359C37.6133 53.0253 228.628 474.264 182.609 820.635Z" stroke="white"/>
<path opacity="0.175" d="M195.647 818.165C149.184 1093.81 440.4 1129.59 591.816 1113.02C986.293 1018.1 786.62 751.962 538.842 735.577C291.065 719.191 642.729 401.76 381.007 237.004C77.5296 45.9622 253.727 473.61 195.647 818.165Z" stroke="white"/>
<path opacity="0.13375" d="M208.765 816.15C152.709 1090 442.499 1135.93 594.401 1124.66C991.951 1043.55 801.687 770.613 554.633 745.59C307.578 720.567 670.106 415.602 414.293 241.812C117.668 40.296 278.834 473.833 208.765 816.15Z" stroke="white"/>
<path opacity="0.0925" d="M221.944 814.595C156.365 1086.33 444.376 1142.33 596.579 1136.37C996.717 1069.19 816.095 789.778 570.064 756.148C324.033 722.518 696.983 430.391 447.391 247.779C157.98 36.034 303.917 474.931 221.944 814.595Z" stroke="white"/>
<path opacity="0.05125" d="M235.17 813.5C160.148 1082.78 446.028 1148.8 598.346 1148.16C1000.58 1094.98 829.825 809.434 585.117 767.239C340.409 725.043 723.328 446.109 480.261 254.898C198.416 33.1816 328.947 476.905 235.17 813.5Z" stroke="white"/>
<path opacity="0.01" d="M248.425 812.868C164.051 1079.36 447.454 1155.32 599.702 1159.99C1003.55 1120.89 842.86 829.558 599.774 778.847C356.688 728.137 749.108 462.737 512.863 263.16C238.927 31.7421 353.893 479.75 248.425 812.868Z" stroke="white"/>
</g>
</svg>
