<svg width="1054" height="1547" viewBox="0 0 1054 1547" fill="none" xmlns="http://www.w3.org/2000/svg">
<g opacity="0.5">
<path d="M-68.0297 1179.07C110.269 1482.58 420.16 1281.37 552.818 1142.83C856.519 731.944 448.477 636.839 196.19 821.598C-56.0982 1006.36 26.1955 415.482 -359.643 468.399C-807.038 529.758 -290.903 799.674 -68.0297 1179.07Z" stroke="white"/>
<path opacity="0.95875" d="M-57.0065 1166.51C110.591 1476.06 427.316 1285.79 564.728 1151.96C882.583 751.922 478.109 642.634 219.527 818.475C-39.0548 994.316 63.8101 406.675 -323.64 446.094C-772.904 491.802 -266.504 779.566 -57.0065 1166.51Z" stroke="white"/>
<path opacity="0.9175" d="M-45.5518 1154.34C111.14 1469.55 434.312 1290.45 576.312 1161.5C907.934 772.797 507.521 649.46 242.96 816.17C-21.6016 982.879 101.709 399.186 -286.881 425.059C-737.466 455.06 -241.417 760.322 -45.5518 1154.34Z" stroke="white"/>
<path opacity="0.87625" d="M-33.6793 1142.58C111.917 1463.07 441.142 1295.35 587.556 1171.43C932.541 794.544 536.677 657.308 266.458 814.683C-3.75986 972.058 139.846 393.024 -249.41 405.319C-700.768 419.577 -215.674 741.965 -33.6793 1142.58Z" stroke="white"/>
<path opacity="0.835" d="M-21.4036 1131.24C112.919 1456.61 447.797 1300.49 598.446 1181.76C956.375 817.137 565.54 666.169 289.995 814.018C14.4487 961.866 178.175 388.196 -211.273 386.9C-662.853 385.396 -189.307 724.517 -21.4036 1131.24Z" stroke="white"/>
<path opacity="0.79375" d="M-8.73966 1120.33C114.145 1450.2 454.268 1305.86 608.969 1192.45C979.405 840.548 594.078 676.032 313.54 814.174C33.0018 952.316 216.649 384.71 -172.516 369.822C-623.769 352.56 -162.346 708.001 -8.73966 1120.33Z" stroke="white"/>
<path opacity="0.7525" d="M4.29715 1109.88C115.595 1443.83 460.548 1311.45 619.113 1203.51C1001.6 864.748 622.253 686.885 337.065 815.152C51.8769 943.419 255.222 382.568 -133.187 354.108C-583.563 321.107 -134.825 692.435 4.29715 1109.88Z" stroke="white"/>
<path opacity="0.71125" d="M17.691 1099.88C117.266 1437.52 466.629 1317.25 628.864 1214.92C1022.95 889.708 650.033 698.714 360.542 816.951C71.051 935.187 293.846 381.773 -93.3336 339.776C-542.283 291.077 -106.778 677.84 17.691 1099.88Z" stroke="white"/>
<path opacity="0.67" d="M31.4254 1090.36C119.157 1431.27 472.504 1323.27 638.212 1226.66C1043.4 915.398 677.382 711.506 383.942 819.567C90.5007 927.628 332.473 382.327 -53.0042 326.843C-499.981 262.506 -78.2389 664.232 31.4254 1090.36Z" stroke="white"/>
<path opacity="0.62875" d="M45.4837 1081.33C121.264 1425.08 478.166 1329.48 647.144 1238.71C1062.95 941.786 704.269 725.244 407.236 822.999C110.202 920.753 371.058 384.229 -12.248 315.325C-456.707 235.429 -49.2421 651.628 45.4837 1081.33Z" stroke="white"/>
<path opacity="0.5875" d="M59.8489 1072.79C123.586 1418.98 483.607 1335.89 655.649 1251.08C1081.57 968.84 730.66 739.913 430.396 827.241C130.132 914.57 409.554 387.476 28.8854 305.237C-412.515 209.878 -19.823 640.044 59.8489 1072.79Z" stroke="white"/>
<path opacity="0.54625" d="M74.5033 1064.75C126.12 1412.96 488.821 1342.49 663.719 1263.73C1099.23 996.529 756.523 755.494 453.394 832.291C150.265 909.087 447.912 392.066 70.3457 296.592C-367.457 185.886 9.98248 629.495 74.5033 1064.75Z" stroke="white"/>
<path opacity="0.505" d="M89.4291 1057.24C128.862 1407.03 493.801 1349.26 671.342 1276.65C1115.91 1024.82 781.826 771.968 476.202 838.138C170.578 904.309 486.087 397.991 112.083 289.398C-321.59 163.48 40.1379 619.992 89.4291 1057.24Z" stroke="white"/>
<path opacity="0.46375" d="M104.608 1050.24C131.809 1401.2 498.542 1356.2 678.509 1289.84C1131.59 1053.67 806.539 789.313 498.792 844.777C191.044 900.241 524.032 405.243 154.045 283.664C-274.969 142.688 70.6066 611.545 104.608 1050.24Z" stroke="white"/>
<path opacity="0.4225" d="M120.022 1043.79C134.958 1395.48 503.038 1363.31 685.211 1303.26C1146.26 1083.05 830.632 807.513 521.136 852.203C211.641 896.893 561.7 413.817 196.182 279.4C-227.651 123.537 101.352 604.169 120.022 1043.79Z" stroke="white"/>
<path opacity="0.38125" d="M135.652 1037.87C138.305 1389.87 507.284 1370.57 691.441 1316.91C1159.9 1112.92 854.075 826.54 543.208 860.402C232.341 894.263 599.047 423.699 238.442 276.607C-179.693 106.048 132.335 597.869 135.652 1037.87Z" stroke="white"/>
<path opacity="0.34" d="M151.479 1032.51C141.846 1384.39 511.273 1377.97 697.191 1330.77C1172.48 1143.26 876.839 846.376 564.98 869.368C253.121 892.36 636.025 434.88 280.774 275.292C-131.154 90.2443 163.52 592.656 151.479 1032.51Z" stroke="white"/>
<path opacity="0.29875" d="M167.483 1027.69C145.575 1379.02 515.002 1385.5 702.454 1344.83C1184 1174.01 898.898 866.993 586.426 879.087C273.954 891.181 672.591 447.343 323.126 275.455C-82.0929 76.1438 194.867 588.533 167.483 1027.69Z" stroke="white"/>
<path opacity="0.2575" d="M183.646 1023.45C149.49 1373.8 518.465 1393.16 707.223 1359.05C1194.43 1205.15 920.223 888.368 607.52 889.549C294.816 890.731 708.7 461.075 365.447 277.096C-32.5697 63.7638 226.34 585.507 183.646 1023.45Z" stroke="white"/>
<path opacity="0.21625" d="M199.947 1019.76C153.585 1368.71 521.66 1400.94 711.492 1373.44C1203.78 1236.63 940.789 910.472 628.235 900.74C315.681 891.008 744.308 476.058 407.684 280.211C17.3554 53.1189 257.899 583.58 199.947 1019.76Z" stroke="white"/>
<path opacity="0.175" d="M216.366 1016.65C157.855 1363.77 524.58 1408.82 715.257 1387.96C1212.02 1268.42 960.572 933.283 648.548 912.649C336.524 892.015 779.371 492.277 449.787 284.801C67.6216 44.2248 289.506 582.757 216.366 1016.65Z" stroke="white"/>
<path opacity="0.13375" d="M232.884 1014.11C162.294 1358.98 527.224 1416.81 718.513 1402.61C1219.14 1300.48 979.546 956.77 668.432 925.259C357.319 893.747 813.846 509.708 491.704 290.856C118.168 37.0893 321.122 583.038 232.884 1014.11Z" stroke="white"/>
<path opacity="0.0925" d="M249.481 1012.16C166.899 1354.34 529.588 1424.87 721.255 1417.37C1225.14 1332.77 997.689 980.904 687.865 938.554C378.04 896.205 847.693 528.332 533.385 298.371C168.932 31.7223 352.709 584.421 249.481 1012.16Z" stroke="white"/>
<path opacity="0.05125" d="M266.136 1010.78C171.662 1349.87 531.668 1433.02 723.481 1432.2C1230.02 1365.24 1014.98 1005.66 706.821 952.52C398.663 899.384 880.868 548.126 574.777 307.336C219.852 28.1302 384.229 586.906 266.136 1010.78Z" stroke="white"/>
<path opacity="0.01" d="M282.829 1009.98C176.578 1345.57 533.463 1441.23 725.187 1447.11C1233.75 1397.87 1031.39 1031 725.279 967.139C419.163 903.281 913.333 569.065 615.832 317.74C270.867 26.3174 415.643 590.489 282.829 1009.98Z" stroke="white"/>
</g>
</svg>
