<svg width="293" height="28" viewBox="0 0 293 28" fill="none" xmlns="http://www.w3.org/2000/svg">
<path d="M293 28H276L250 0H267L293 28Z" fill="#AA00FF"/>
<path d="M268 28H251L225 0H242L268 28Z" fill="#AA00FF"/>
<path d="M243 28H226L200 0H217L243 28Z" fill="#AA00FF"/>
<path d="M218 28H201L175 0H192L218 28Z" fill="#AA00FF"/>
<path d="M193 28H176L150 0H167L193 28Z" fill="#AA00FF"/>
<path d="M168 28H151L125 0H142L168 28Z" fill="#AA00FF"/>
<path d="M143 28H126L100 0H117L143 28Z" fill="#AA00FF"/>
<path d="M118 28H101L75 0H92L118 28Z" fill="#AA00FF" fill-opacity="0.5"/>
<path d="M93 28H76L50 0H67L93 28Z" fill="#AA00FF" fill-opacity="0.5"/>
<path d="M68 28H51L25 0H42L68 28Z" fill="#AA00FF" fill-opacity="0.5"/>
<path d="M43 28H26L0 0H17L43 28Z" fill="#AA00FF" fill-opacity="0.5"/>
</svg>
