<svg width="28" height="318" viewBox="0 0 28 318" fill="none" xmlns="http://www.w3.org/2000/svg">
<path d="M28 0V17L0 43V26L28 0Z" fill="#FFAA00"/>
<path d="M28 25V42L0 68V51L28 25Z" fill="#FFAA00"/>
<path d="M28 50V67L0 93V76L28 50Z" fill="#FFAA00"/>
<path d="M28 75V92L0 118V101L28 75Z" fill="#FFAA00"/>
<path d="M28 100V117L0 143V126L28 100Z" fill="#FFAA00"/>
<path d="M28 125V142L0 168V151L28 125Z" fill="#FFAA00"/>
<path d="M28 150V167L0 193V176L28 150Z" fill="#FFAA00"/>
<path d="M28 175V192L0 218V201L28 175Z" fill="#FFAA00" fill-opacity="0.5"/>
<path d="M28 200V217L0 243V226L28 200Z" fill="#FFAA00" fill-opacity="0.5"/>
<path d="M28 225V242L0 268V251L28 225Z" fill="#FFAA00" fill-opacity="0.5"/>
<path d="M28 250V267L0 293V276L28 250Z" fill="#FFAA00" fill-opacity="0.5"/>
<path d="M28 275V292L0 318V301L28 275Z" fill="#FFAA00" fill-opacity="0.5"/>
</svg>
