<svg width="18" height="18" viewBox="0 0 18 18" fill="none" xmlns="http://www.w3.org/2000/svg">
<path d="M12 11.25C13.2426 11.25 14.25 10.2426 14.25 9C14.25 7.75736 13.2426 6.75 12 6.75" stroke="#AA00FF"/>
<path d="M12 13.5C14.4853 13.5 16.5 11.4853 16.5 9C16.5 6.51472 14.4853 4.5 12 4.5" stroke="#AA00FF"/>
<path d="M8.1 3.30259L5.03323 5.60162C4.6871 5.8611 4.26617 6.00136 3.83358 6.00136H3C2.17157 6.00136 1.5 6.67263 1.5 7.50068V10.4993C1.5 11.3274 2.17157 11.9986 3 11.9986H3.83358C4.26617 11.9986 4.6871 12.1389 5.03323 12.3984L8.1 14.6974C9.08885 15.4387 10.5 14.7335 10.5 13.498V4.50204C10.5 3.26653 9.08885 2.56128 8.1 3.30259Z" stroke="#AA00FF" stroke-linecap="round" stroke-linejoin="round"/>
</svg>
