<svg width="21" height="16" viewBox="0 0 21 16" fill="none" xmlns="http://www.w3.org/2000/svg">
<path d="M19.5 0C18.9 0 15.9 1.5 10.5 1.5C5.2 1.5 2 0 1.5 0C1 0 0.5 0.4 0.5 1V15C0.5 15.6 1 16 1.5 16C2.1 16 5 14.5 10.5 14.5C15.9 14.5 18.9 16 19.5 16C20 16 20.5 15.6 20.5 15V1C20.5 0.4 20 0 19.5 0ZM18.5 13.6C16.5 13 13.9 12.5 10.5 12.5C7.1 12.5 4.5 13 2.5 13.6V2.4C5.1 3.1 7.8 3.5 10.5 3.5C13.9 3.5 16.5 3 18.5 2.4V13.6ZM7.7 7L4 11.4C6 11.1 8.2 11 10.5 11C12.8 11 15 11.1 17 11.4L12.5 6L9.7 9.4L7.7 7Z" fill="white"/>
</svg>
