<svg width="32" height="32" viewBox="0 0 32 32" fill="none" xmlns="http://www.w3.org/2000/svg">
<rect width="32" height="32" rx="16" fill="url(#paint0_linear_487_173)"/>
<path d="M20.6847 7.55249L11.4632 15.3605C11.2609 15.5308 11.1475 15.7608 11.1475 16.0004C11.1475 16.2401 11.2609 16.47 11.4632 16.6404L20.6827 24.4484C20.8849 24.6198 20.9981 24.8505 20.9981 25.0908C20.9981 25.3312 20.8849 25.5619 20.6827 25.7333C20.584 25.8177 20.466 25.8848 20.3356 25.9306C20.2053 25.9764 20.0652 26 19.9238 26C19.7823 26 19.6423 25.9764 19.5119 25.9306C19.3816 25.8848 19.2636 25.8177 19.1648 25.7333L9.94525 17.927C9.33942 17.4128 9 16.721 9 16.0004C9 15.2798 9.33942 14.588 9.94525 14.0739L19.1648 6.26756C19.2636 6.18289 19.3817 6.11559 19.5123 6.06963C19.6428 6.02368 19.7831 6 19.9248 6C20.0665 6 20.2067 6.02368 20.3373 6.06963C20.4678 6.11559 20.586 6.18289 20.6847 6.26756C20.8869 6.43897 21.0001 6.66969 21.0001 6.91003C21.0001 7.15036 20.8869 7.38108 20.6847 7.55249Z" fill="white"/>
<defs>
<linearGradient id="paint0_linear_487_173" x1="0" y1="16" x2="32" y2="16" gradientUnits="userSpaceOnUse">
<stop stop-color="#FFAA00"/>
<stop offset="0.464054" stop-color="#8B4BAA"/>
<stop offset="1" stop-color="#4700A2"/>
</linearGradient>
</defs>
</svg>
