<svg width="32" height="32" viewBox="0 0 32 32" fill="none" xmlns="http://www.w3.org/2000/svg">
<rect width="32" height="32" rx="16" transform="matrix(1 0 0 -1 0 32)" fill="url(#paint0_linear_490_97)"/>
<path d="M11.3153 24.4475L20.5368 16.6395C20.7391 16.4692 20.8525 16.2392 20.8525 15.9996C20.8525 15.7599 20.7391 15.53 20.5368 15.3596L11.3173 7.55164C11.1151 7.38022 11.0019 7.1495 11.0019 6.90917C11.0019 6.66884 11.1151 6.43812 11.3173 6.2667C11.416 6.18229 11.534 6.11521 11.6644 6.0694C11.7947 6.0236 11.9348 6 12.0762 6C12.2177 6 12.3577 6.0236 12.4881 6.0694C12.6184 6.11521 12.7364 6.18229 12.8352 6.2667L22.0548 14.073C22.6606 14.5872 23 15.279 23 15.9996C23 16.7202 22.6606 17.412 22.0548 17.9261L12.8352 25.7324C12.7364 25.8171 12.6183 25.8844 12.4877 25.9304C12.3572 25.9763 12.2169 26 12.0752 26C11.9335 26 11.7933 25.9763 11.6627 25.9304C11.5322 25.8844 11.414 25.8171 11.3153 25.7324C11.1131 25.561 10.9999 25.3303 10.9999 25.09C10.9999 24.8496 11.1131 24.6189 11.3153 24.4475Z" fill="white"/>
<defs>
<linearGradient id="paint0_linear_490_97" x1="0" y1="16" x2="32" y2="16" gradientUnits="userSpaceOnUse">
<stop stop-color="#FFAA00"/>
<stop offset="0.464054" stop-color="#8B4BAA"/>
<stop offset="1" stop-color="#4700A2"/>
</linearGradient>
</defs>
</svg>
