<svg width="40" height="40" viewBox="0 0 40 40" fill="none" xmlns="http://www.w3.org/2000/svg">
<rect width="40" height="40" rx="20" transform="matrix(1 0 0 -1 0 40)" fill="url(#paint0_linear_490_95)"/>
<path d="M15.3153 28.4475L24.5368 20.6395C24.7391 20.4692 24.8525 20.2392 24.8525 19.9996C24.8525 19.7599 24.7391 19.53 24.5368 19.3596L15.3173 11.5516C15.1151 11.3802 15.0019 11.1495 15.0019 10.9092C15.0019 10.6688 15.1151 10.4381 15.3173 10.2667C15.416 10.1823 15.534 10.1152 15.6644 10.0694C15.7947 10.0236 15.9348 10 16.0762 10C16.2177 10 16.3577 10.0236 16.4881 10.0694C16.6184 10.1152 16.7364 10.1823 16.8352 10.2667L26.0548 18.073C26.6606 18.5872 27 19.279 27 19.9996C27 20.7202 26.6606 21.412 26.0548 21.9261L16.8352 29.7324C16.7364 29.8171 16.6183 29.8844 16.4877 29.9304C16.3572 29.9763 16.2169 30 16.0752 30C15.9335 30 15.7933 29.9763 15.6627 29.9304C15.5322 29.8844 15.414 29.8171 15.3153 29.7324C15.1131 29.561 14.9999 29.3303 14.9999 29.09C14.9999 28.8496 15.1131 28.6189 15.3153 28.4475Z" fill="white"/>
<defs>
<linearGradient id="paint0_linear_490_95" x1="0" y1="20" x2="40" y2="20" gradientUnits="userSpaceOnUse">
<stop stop-color="#FFAA00"/>
<stop offset="1" stop-color="#AA00FF"/>
</linearGradient>
</defs>
</svg>
