<svg width="60" height="40" viewBox="0 0 60 40" fill="none" xmlns="http://www.w3.org/2000/svg">
<path d="M17.4675 6.6409L22.1251 7.66978V6.41117C22.1251 4.71104 20.7546 3.3335 19.0649 3.3335H14.8196L17.6733 5.21122L17.4675 6.64008V6.6409Z" fill="white"/>
<path d="M14.6317 7.84981V8.04207V8.22454V12.0704L16.0654 12.5673L17.086 5.47842L13.8265 3.3335H8.88135L9.00042 6.08451L14.6317 7.84981Z" fill="white"/>
<path d="M8.8855 28.3418H11.1471V25.0996L8.98594 26.0812L8.8855 28.3418Z" fill="white"/>
<path d="M6.07867 10.2651L3.37158 9.06836V22.5204L6.07867 21.3245V10.2651Z" fill="white"/>
<path d="M16.0807 18.4238L14.1528 19.0926L16.314 26.5636L18.0822 25.3995L16.0807 18.4238Z" fill="white"/>
<path d="M56.0074 9.15463L56.0082 7.62639L53.3254 3.86768V6.57958L56.0074 9.15463Z" fill="white"/>
<path d="M48.0838 26.9742V22.5744V22.0066H45.1734V20.04L41.9171 23.512V23.5112L41.2334 24.2395L40.9167 24.3169L40.8624 24.3299L40.2655 24.4757V24.4749L37.4231 25.1665V28.3419H47.2754L47.3207 28.2474L48.0838 26.9742Z" fill="white"/>
<path d="M53.3254 27.7821L54.7373 25.8042L56.0009 24.0331L56.0017 22.6523L53.3254 25.2209V27.7821Z" fill="white"/>
<path d="M45.1734 19.2439V19.204V12.5566L40.9491 8.0541L37.4231 7.19629V24.605L40.9491 23.7472L45.1734 19.2439Z" fill="white"/>
<path d="M40.2663 7.326L40.5652 7.39851L40.9167 7.48404L41.2334 7.56143L41.7899 8.15448L45.1734 11.7609V9.64282H46.9076H48.0838V9.07013V4.70126L47.264 3.3335H46.9076H37.4231V6.63438L40.2671 7.326H40.2663Z" fill="white"/>
<path d="M52.7827 6.8136V3.3335H48.7334H47.8975L48.6265 4.54974V9.84077V10.1577L48.7334 10.3092L49.5758 11.5042V20.1833L48.6265 21.5022V21.815V27.1256L47.8975 28.3419H52.7827V24.9872L56.0017 21.8965L56.0074 9.9092L52.7827 6.8136Z" fill="white"/>
<path d="M22.1243 14.5664V8.22943L17.389 7.18344L16.5093 13.3005L14.204 12.5005L11.147 13.4585V7.33008L8.4747 6.49264L8.337 3.3335H3.37158V3.36119V8.47219L6.62219 9.90839V21.6806L3.37158 23.1176V28.3419H8.34186L8.45688 25.722L11.147 24.5001V17.9252L12.4956 18.3472L13.6183 18.6999L15.8678 17.9187H15.8686L16.4445 17.7191L16.5862 18.2127L16.6332 18.2315L16.5951 18.2453L18.7158 25.6357L16.4728 27.1126L16.8284 28.3419H23.3499L20.0952 17.091L22.1243 14.5664Z" fill="white"/>
<path d="M33.0449 12.5682H31.8364L26.5129 12.5479V18.8401L31.919 18.8409H33.0449L33.0482 18.8352V12.5739L33.0449 12.5682Z" fill="white"/>
<path d="M28.3954 5.00675V3.3335H26.5129V9.64282H33.0482V6.12768L28.3954 5.00675Z" fill="white"/>
<path d="M28.3954 26.8161V28.3411H26.5129V22.0317H33.0482V25.687L28.3954 26.8161Z" fill="white"/>
<path d="M33.0483 26.248V28.3408H28.9382V27.2452L33.0483 26.248Z" fill="white"/>
<path d="M33.0483 5.56559V3.3335H28.9382V4.57662L33.0483 5.56559Z" fill="white"/>
<path d="M3.37061 35.8428V32.6445H4.56133C4.83107 32.6445 5.06274 32.6877 5.25633 32.7749C5.44993 32.8612 5.59897 32.9867 5.70346 33.1496C5.80795 33.3125 5.86061 33.5097 5.86061 33.741C5.86061 33.9724 5.80795 34.1606 5.70346 34.3235C5.59897 34.4864 5.44993 34.6111 5.25633 34.6982C5.06274 34.7846 4.83107 34.8286 4.56133 34.8286H3.55691L3.70676 34.673V35.8428H3.37061ZM3.70676 34.7007L3.55691 34.541H4.55161C4.86995 34.541 5.11134 34.4709 5.27577 34.3308C5.44102 34.1907 5.52364 33.9944 5.52364 33.741C5.52364 33.4877 5.44102 33.2873 5.27577 33.1472C5.11053 33.007 4.86914 32.937 4.55161 32.937H3.55691L3.70676 32.7773V34.7007ZM5.54227 35.8428L4.72415 34.6827H5.08785L5.91002 35.8428H5.54227Z" fill="white"/>
<path d="M8.04534 35.8703C7.80638 35.8703 7.58444 35.8304 7.38031 35.7498C7.17538 35.6691 6.99879 35.5551 6.84894 35.4068C6.69908 35.2594 6.58244 35.0867 6.49901 34.8903C6.41558 34.694 6.37427 34.4789 6.37427 34.2435C6.37427 34.0081 6.41558 33.7938 6.49901 33.5967C6.58244 33.4004 6.69908 33.2285 6.84894 33.0802C6.99879 32.9328 7.17538 32.8187 7.37788 32.7373C7.5812 32.6566 7.80314 32.6167 8.04534 32.6167C8.28753 32.6167 8.50543 32.6566 8.70874 32.7373C8.91125 32.8179 9.08783 32.9311 9.23769 33.0778C9.38754 33.2244 9.50418 33.3963 9.58762 33.5943C9.67105 33.7922 9.71236 34.0081 9.71236 34.2427C9.71236 34.4773 9.67105 34.694 9.58762 34.892C9.50418 35.0899 9.38754 35.2618 9.23769 35.4084C9.08783 35.5551 8.91125 35.6683 8.70874 35.749C8.50543 35.8296 8.2851 35.8695 8.04534 35.8695V35.8703ZM8.04534 35.5689C8.2365 35.5689 8.41228 35.5363 8.57509 35.4704C8.73709 35.4052 8.87804 35.3123 8.99792 35.1917C9.1178 35.0712 9.21096 34.9311 9.27738 34.7714C9.3438 34.6117 9.37701 34.4358 9.37701 34.2435C9.37701 34.0513 9.3438 33.8753 9.27738 33.7156C9.21096 33.556 9.1178 33.4159 8.99792 33.2953C8.87804 33.1747 8.73709 33.0819 8.57509 33.0167C8.41309 32.9515 8.2365 32.9181 8.04534 32.9181C7.85417 32.9181 7.67759 32.9507 7.51397 33.0167C7.35034 33.0819 7.20778 33.1747 7.08708 33.2953C6.96558 33.4159 6.87243 33.556 6.8052 33.7156C6.73878 33.8753 6.70557 34.0513 6.70557 34.2435C6.70557 34.4358 6.73878 34.6077 6.8052 34.769C6.87162 34.9303 6.96558 35.0712 7.08708 35.1917C7.20859 35.3123 7.35034 35.4052 7.51397 35.4704C7.67759 35.5355 7.85498 35.5689 8.04534 35.5689Z" fill="white"/>
<path d="M10.4664 35.8428V32.6445H11.8386C12.1933 32.6445 12.4679 32.7162 12.6632 32.8596C12.8584 33.003 12.9564 33.205 12.9564 33.4673C12.9564 33.6408 12.9159 33.7875 12.8357 33.9056C12.7555 34.0245 12.6461 34.1141 12.5084 34.1752C12.3707 34.2363 12.2201 34.2665 12.0565 34.2665L12.1334 34.1565C12.3359 34.1565 12.5109 34.1874 12.6583 34.2502C12.8049 34.3129 12.9199 34.4058 13.0009 34.5288C13.0827 34.6518 13.1233 34.8049 13.1233 34.9882C13.1233 35.2595 13.0244 35.4697 12.826 35.6188C12.6275 35.7678 12.3286 35.8428 11.9285 35.8428H10.4656H10.4664ZM10.8025 35.5642H11.9244C12.2031 35.5642 12.4169 35.5161 12.5651 35.42C12.7134 35.3239 12.7879 35.1707 12.7879 34.9605C12.7879 34.7504 12.7134 34.6021 12.5651 34.506C12.4169 34.4098 12.2031 34.3618 11.9244 34.3618H10.7661V34.0832H11.8159C12.0702 34.0832 12.2679 34.0343 12.4088 33.9365C12.5498 33.8396 12.6202 33.6946 12.6202 33.5023C12.6202 33.3101 12.5498 33.1618 12.4088 33.0657C12.2679 32.9696 12.0702 32.9215 11.8159 32.9215H10.8025V35.5625V35.5642Z" fill="white"/>
<path d="M15.2819 35.8703C15.043 35.8703 14.821 35.8304 14.6169 35.7498C14.4119 35.6691 14.2354 35.5551 14.0855 35.4068C13.9357 35.2585 13.819 35.0867 13.7356 34.8903C13.6522 34.694 13.6108 34.4789 13.6108 34.2435C13.6108 34.0081 13.6522 33.7938 13.7356 33.5967C13.819 33.3996 13.9357 33.2285 14.0855 33.0802C14.2354 32.9328 14.4119 32.8187 14.6145 32.7373C14.8178 32.6566 15.0397 32.6167 15.2819 32.6167C15.5241 32.6167 15.742 32.6566 15.9453 32.7373C16.1478 32.8179 16.3244 32.9311 16.4743 33.0778C16.6241 33.2244 16.7408 33.3963 16.8242 33.5943C16.9076 33.7922 16.9489 34.0081 16.9489 34.2427C16.9489 34.4773 16.9076 34.694 16.8242 34.892C16.7408 35.0899 16.6241 35.2618 16.4743 35.4084C16.3244 35.5551 16.1478 35.6683 15.9453 35.749C15.742 35.8296 15.5217 35.8695 15.2819 35.8695V35.8703ZM15.2819 35.5689C15.4731 35.5689 15.6488 35.5363 15.8117 35.4704C15.9737 35.4052 16.1146 35.3123 16.2345 35.1917C16.3544 35.0712 16.4475 34.9311 16.5139 34.7714C16.5804 34.6117 16.6136 34.4358 16.6136 34.2435C16.6136 34.0513 16.5804 33.8753 16.5139 33.7156C16.4475 33.556 16.3544 33.4159 16.2345 33.2953C16.1146 33.1747 15.9737 33.0819 15.8117 33.0167C15.6497 32.9515 15.4731 32.9181 15.2819 32.9181C15.0907 32.9181 14.9142 32.9507 14.7505 33.0167C14.5869 33.0827 14.4444 33.1747 14.3237 33.2953C14.2022 33.4159 14.109 33.556 14.0418 33.7156C13.9753 33.8753 13.9421 34.0513 13.9421 34.2435C13.9421 34.4358 13.9753 34.6077 14.0418 34.769C14.1082 34.9303 14.2022 35.0712 14.3237 35.1917C14.4452 35.3123 14.5869 35.4052 14.7505 35.4704C14.9142 35.5355 15.0916 35.5689 15.2819 35.5689Z" fill="white"/>
<path d="M18.2758 35.8428V32.937H17.158V32.6445H19.729V32.937H18.6111V35.8428H18.275H18.2758Z" fill="white"/>
<path d="M20.2661 35.8428V32.6445H20.6023V35.8428H20.2661Z" fill="white"/>
<path d="M23.0184 35.8705C22.7795 35.8705 22.5583 35.8306 22.355 35.7499C22.1517 35.6693 21.9768 35.5561 21.8277 35.4094C21.6795 35.2628 21.5636 35.0909 21.4802 34.8929C21.3968 34.695 21.3555 34.4791 21.3555 34.2437C21.3555 34.0083 21.3968 33.7932 21.4802 33.5952C21.5636 33.3973 21.6803 33.2254 21.8301 33.0788C21.98 32.9321 22.1566 32.8189 22.3591 32.7382C22.5624 32.6576 22.7827 32.6177 23.0225 32.6177C23.2623 32.6177 23.4688 32.6568 23.6721 32.7342C23.8746 32.8116 24.0464 32.9281 24.1857 33.0836L23.9718 33.2987C23.8414 33.1643 23.698 33.0682 23.5401 33.0087C23.3821 32.9492 23.2128 32.9199 23.0314 32.9199C22.8402 32.9199 22.6637 32.9525 22.5 33.0185C22.3364 33.0836 22.1938 33.1765 22.0731 33.2971C21.9516 33.4176 21.8577 33.5578 21.7888 33.7174C21.7208 33.8771 21.6868 34.0531 21.6868 34.2453C21.6868 34.4376 21.7208 34.6135 21.7888 34.7732C21.8569 34.9329 21.9516 35.073 22.0731 35.1935C22.1947 35.3141 22.3364 35.407 22.5 35.4721C22.6637 35.5373 22.841 35.5707 23.0314 35.5707C23.2218 35.5707 23.3829 35.5406 23.5401 35.4795C23.6972 35.4184 23.8414 35.3214 23.9718 35.187L24.1857 35.4021C24.0464 35.5577 23.8754 35.675 23.6721 35.754C23.4688 35.833 23.2509 35.8729 23.0176 35.8729L23.0184 35.8705Z" fill="white"/>
<path d="M25.7716 35.8705C25.5351 35.8705 25.3091 35.8314 25.0928 35.754C24.8757 35.6766 24.7088 35.5764 24.5906 35.455L24.7226 35.1944C24.8344 35.3043 24.9851 35.3964 25.1746 35.4705C25.3633 35.5455 25.5626 35.5821 25.7724 35.5821C25.9822 35.5821 26.1353 35.5569 26.2608 35.5064C26.3864 35.4559 26.4787 35.3882 26.5379 35.3027C26.597 35.2172 26.6262 35.1227 26.6262 35.0192C26.6262 34.8946 26.5905 34.7936 26.5192 34.7178C26.448 34.642 26.3548 34.5818 26.2398 34.5369C26.1248 34.493 25.9976 34.4539 25.8583 34.4205C25.7189 34.3871 25.5796 34.3512 25.4403 34.3129C25.301 34.2746 25.173 34.2241 25.0563 34.1598C24.9397 34.0954 24.8457 34.0115 24.7745 33.9064C24.7032 33.8013 24.6675 33.6637 24.6675 33.4926C24.6675 33.3346 24.7088 33.1887 24.7923 33.0559C24.8757 32.9232 25.0037 32.8164 25.1762 32.7358C25.3488 32.6551 25.5699 32.6152 25.8396 32.6152C26.0186 32.6152 26.1952 32.6405 26.371 32.6902C26.5468 32.7407 26.6982 32.8099 26.8254 32.8979L26.712 33.1676C26.5759 33.0763 26.4309 33.0095 26.2778 32.9663C26.1248 32.924 25.9773 32.902 25.8348 32.902C25.6436 32.902 25.4865 32.9281 25.3625 32.9794C25.2386 33.0315 25.1471 33.1008 25.0879 33.1871C25.0288 33.2735 24.9996 33.372 24.9996 33.482C24.9996 33.6066 25.0353 33.7077 25.1066 33.7834C25.1778 33.8592 25.2718 33.9186 25.3884 33.9618C25.5051 34.0042 25.6331 34.0425 25.7724 34.0759C25.9117 34.1093 26.0502 34.1459 26.1879 34.1858C26.3256 34.2258 26.4528 34.2763 26.5695 34.339C26.6861 34.4017 26.7801 34.4848 26.8513 34.5883C26.9226 34.6917 26.9583 34.8278 26.9583 34.9948C26.9583 35.1504 26.9161 35.2937 26.8311 35.4265C26.746 35.5593 26.6164 35.666 26.4423 35.7467C26.2681 35.8273 26.0446 35.8672 25.7724 35.8672L25.7716 35.8705Z" fill="white"/>
<path d="M29.2151 35.5503H31.1275V35.8428H28.8789V32.6445H31.0595V32.937H29.2151V35.5503ZM29.1786 34.0742H30.8594V34.3618H29.1786V34.0742Z" fill="white"/>
<path d="M31.9182 35.8428V32.6445H33.2134C33.5528 32.6445 33.8501 32.7121 34.1061 32.8482C34.362 32.9834 34.5613 33.1716 34.7039 33.4127C34.8464 33.6539 34.9177 33.9308 34.9177 34.2445C34.9177 34.5581 34.8464 34.8351 34.7039 35.0762C34.5613 35.3165 34.362 35.5047 34.1061 35.6407C33.8501 35.776 33.5528 35.8444 33.2134 35.8444H31.9182V35.8428ZM32.2544 35.5503H33.1948C33.4767 35.5503 33.7213 35.4949 33.9287 35.3833C34.136 35.2725 34.2972 35.1186 34.4123 34.9222C34.5273 34.7259 34.5848 34.4994 34.5848 34.2437C34.5848 33.9879 34.5273 33.7581 34.4123 33.5626C34.2972 33.3671 34.136 33.2148 33.9287 33.1032C33.7213 32.9924 33.4767 32.9362 33.1948 32.9362H32.2544V35.5495V35.5503Z" fill="white"/>
<path d="M36.9525 35.8705C36.5466 35.8705 36.2267 35.7532 35.9942 35.5186C35.7609 35.2839 35.6443 34.9369 35.6443 34.4766V32.6445H35.9804V34.4628C35.9804 34.8408 36.0655 35.1194 36.2348 35.2986C36.4041 35.4778 36.6439 35.5682 36.9525 35.5682C37.2611 35.5682 37.5049 35.4786 37.675 35.2986C37.8443 35.1186 37.9294 34.84 37.9294 34.4628V32.6445H38.2566V34.4766C38.2566 34.9369 38.1408 35.2839 37.9091 35.5186C37.6774 35.7532 37.3583 35.8705 36.9525 35.8705Z" fill="white"/>
<path d="M40.65 35.8705C40.4111 35.8705 40.1899 35.8306 39.9866 35.7499C39.7833 35.6693 39.6083 35.5561 39.4593 35.4094C39.3111 35.2628 39.1952 35.0909 39.1118 34.8929C39.0284 34.695 38.9871 34.4791 38.9871 34.2437C38.9871 34.0083 39.0284 33.7932 39.1118 33.5952C39.1952 33.3973 39.3119 33.2254 39.4617 33.0788C39.6116 32.9321 39.7882 32.8189 39.9907 32.7382C40.194 32.6576 40.4143 32.6177 40.6541 32.6177C40.8938 32.6177 41.1004 32.6568 41.3037 32.7342C41.5062 32.8116 41.6779 32.9281 41.8173 33.0836L41.6034 33.2987C41.473 33.1643 41.3296 33.0682 41.1717 33.0087C41.0145 32.9492 40.8444 32.9199 40.663 32.9199C40.4718 32.9199 40.2952 32.9525 40.1316 33.0185C39.968 33.0836 39.8254 33.1765 39.7047 33.2971C39.5832 33.4176 39.4893 33.5578 39.4204 33.7174C39.3524 33.8771 39.3184 34.0531 39.3184 34.2453C39.3184 34.4376 39.3524 34.6135 39.4204 34.7732C39.4885 34.9329 39.5832 35.073 39.7047 35.1935C39.8262 35.3141 39.968 35.407 40.1316 35.4721C40.2952 35.5373 40.4726 35.5707 40.663 35.5707C40.8533 35.5707 41.0145 35.5406 41.1717 35.4795C41.3288 35.4184 41.473 35.3214 41.6034 35.187L41.8173 35.4021C41.6779 35.5577 41.507 35.675 41.3037 35.754C41.1004 35.833 40.8825 35.8729 40.6492 35.8729L40.65 35.8705Z" fill="white"/>
<path d="M41.9446 35.8428L43.3986 32.6445H43.7299L45.1839 35.8428H44.8299L43.4941 32.8409H43.6302L42.2945 35.8428H41.9446ZM42.5173 34.9882L42.6177 34.7137H44.467L44.5674 34.9882H42.5181H42.5173Z" fill="white"/>
<path d="M46.1696 35.8428V32.937H45.0518V32.6445H47.6228V32.937H46.5049V35.8428H46.1688H46.1696Z" fill="white"/>
<path d="M48.1599 35.8428V32.6445H48.4961V35.8428H48.1599Z" fill="white"/>
<path d="M50.922 35.8703C50.6831 35.8703 50.4611 35.8304 50.257 35.7498C50.0521 35.6691 49.8755 35.5551 49.7256 35.4068C49.5758 35.2594 49.4592 35.0867 49.3757 34.8903C49.2923 34.694 49.251 34.4789 49.251 34.2435C49.251 34.0081 49.2923 33.7938 49.3757 33.5967C49.4592 33.4004 49.5758 33.2285 49.7256 33.0802C49.8755 32.9328 50.0521 32.8187 50.2546 32.7373C50.4579 32.6566 50.6799 32.6167 50.922 32.6167C51.1642 32.6167 51.3821 32.6566 51.5855 32.7373C51.788 32.8179 51.9645 32.9311 52.1144 33.0778C52.2643 33.2244 52.3809 33.3963 52.4643 33.5943C52.5478 33.7922 52.5891 34.0081 52.5891 34.2427C52.5891 34.4773 52.5478 34.694 52.4643 34.892C52.3809 35.0899 52.2643 35.2618 52.1144 35.4084C51.9645 35.5551 51.788 35.6683 51.5855 35.749C51.3821 35.8296 51.1618 35.8695 50.922 35.8695V35.8703ZM50.922 35.5689C51.1132 35.5689 51.289 35.5363 51.4518 35.4704C51.6138 35.4052 51.7547 35.3123 51.8746 35.1917C51.9945 35.0712 52.0877 34.9311 52.1541 34.7714C52.2205 34.6117 52.2537 34.4358 52.2537 34.2435C52.2537 34.0513 52.2205 33.8753 52.1541 33.7156C52.0877 33.556 51.9945 33.4159 51.8746 33.2953C51.7547 33.1747 51.6138 33.0819 51.4518 33.0167C51.2898 32.9515 51.1132 32.9181 50.922 32.9181C50.7309 32.9181 50.5543 32.9507 50.3907 33.0167C50.2271 33.0827 50.0845 33.1747 49.9638 33.2953C49.8423 33.4159 49.7491 33.556 49.6819 33.7156C49.6155 33.8753 49.5823 34.0513 49.5823 34.2435C49.5823 34.4358 49.6155 34.6077 49.6819 34.769C49.7483 34.9303 49.8423 35.0712 49.9638 35.1917C50.0853 35.3123 50.2271 35.4052 50.3907 35.4704C50.5543 35.5355 50.7317 35.5689 50.922 35.5689Z" fill="white"/>
<path d="M53.3431 35.8428V32.6445H53.6201L55.8145 35.4224H55.6687V32.6445H56V35.8428H55.7229L53.5334 33.0649H53.6784V35.8428H53.3423H53.3431Z" fill="white"/>
</svg>
