<svg width="360" height="53" viewBox="0 0 360 53" fill="none" xmlns="http://www.w3.org/2000/svg">
<mask id="path-1-inside-1_2225_14154" fill="white">
<path fill-rule="evenodd" clip-rule="evenodd" d="M6 53C2.68629 53 0 50.3137 0 47V6C0 2.68629 2.68629 0 5.99999 0H354C357.314 0 360 2.68629 360 5.99999L360 30.5147C360 32.106 359.368 33.6321 358.243 34.7574L341.757 51.2426C340.632 52.3679 339.106 53 337.515 53H330.207H6Z"/>
</mask>
<path d="M341.757 51.2426L343.172 52.6569L341.757 51.2426ZM360 30.5147L358 30.5147L360 30.5147ZM358.243 34.7574L356.828 33.3431L358.243 34.7574ZM360 5.99999L362 5.99999L360 5.99999ZM-2 6V47H2V6H-2ZM354 -2H5.99999V2H354V-2ZM362 30.5147L362 5.99999L358 6L358 30.5147L362 30.5147ZM343.172 52.6569L359.657 36.1716L356.828 33.3431L340.343 49.8284L343.172 52.6569ZM330.207 55H337.515V51H330.207V55ZM6 55H330.207V51H6V55ZM340.343 49.8284C339.593 50.5786 338.576 51 337.515 51V55C339.636 55 341.671 54.1571 343.172 52.6569L340.343 49.8284ZM358 30.5147C358 31.5756 357.579 32.593 356.828 33.3431L359.657 36.1716C361.157 34.6713 362 32.6364 362 30.5147L358 30.5147ZM354 2C356.209 2 358 3.79086 358 6L362 5.99999C362 1.58172 358.418 -2 354 -2V2ZM-2 47C-2 51.4183 1.58172 55 6 55V51C3.79086 51 2 49.2091 2 47H-2ZM2 6C2 3.79086 3.79086 2 5.99999 2V-2C1.58171 -2 -2 1.58172 -2 6H2Z" fill="#0E0214" mask="url(#path-1-inside-1_2225_14154)"/>
</svg>
