<svg width="360" height="72" viewBox="0 0 360 72" fill="none" xmlns="http://www.w3.org/2000/svg">
<mask id="path-1-inside-1_2225_18853" fill="white">
<path fill-rule="evenodd" clip-rule="evenodd" d="M6 72C2.68629 72 0 69.3137 0 66V6C0 2.68629 2.68629 0 5.99999 0H354C357.314 0 360 2.68629 360 6L360 49.5147C360 51.106 359.368 52.6321 358.243 53.7574L341.757 70.2426C340.632 71.3679 339.106 72 337.515 72H330.207H6Z"/>
</mask>
<path d="M341.757 70.2426L343.172 71.6569L341.757 70.2426ZM360 49.5147H358H360ZM358.243 53.7574L359.657 55.1716L358.243 53.7574ZM360 6L358 6L360 6ZM-2 6V66H2V6H-2ZM354 -2H5.99999V2H354V-2ZM362 49.5147L362 5.99999L358 6L358 49.5147H362ZM343.172 71.6569L359.657 55.1716L356.828 52.3431L340.343 68.8284L343.172 71.6569ZM330.207 74H337.515V70H330.207V74ZM6 74H330.207V70H6V74ZM340.343 68.8284C339.593 69.5786 338.576 70 337.515 70V74C339.636 74 341.671 73.1571 343.172 71.6569L340.343 68.8284ZM358 49.5147C358 50.5756 357.579 51.593 356.828 52.3431L359.657 55.1716C361.157 53.6713 362 51.6364 362 49.5147H358ZM354 2C356.209 2 358 3.79086 358 6L362 5.99999C362 1.58172 358.418 -2 354 -2V2ZM-2 66C-2 70.4183 1.58172 74 6 74V70C3.79086 70 2 68.2091 2 66H-2ZM2 6C2 3.79086 3.79086 2 5.99999 2V-2C1.58171 -2 -2 1.58173 -2 6H2Z" fill="#0E0214" mask="url(#path-1-inside-1_2225_18853)"/>
</svg>
