<svg width="24" height="24" viewBox="0 0 24 24" fill="none" xmlns="http://www.w3.org/2000/svg">
<path d="M22 18.6051C22 18.804 21.921 18.9947 21.7803 19.1354C21.6397 19.276 21.4489 19.3551 21.25 19.3551H16.15C15.983 19.9779 15.6151 20.5283 15.1034 20.9208C14.5918 21.3133 13.9649 21.5261 13.32 21.5261C12.6751 21.5261 12.0482 21.3133 11.5366 20.9208C11.0249 20.5283 10.657 19.9779 10.49 19.3551H2.75C2.55109 19.3551 2.36032 19.276 2.21967 19.1354C2.07902 18.9947 2 18.804 2 18.6051C2 18.4061 2.07902 18.2154 2.21967 18.0747C2.36032 17.9341 2.55109 17.8551 2.75 17.8551H10.49C10.657 17.2322 11.0249 16.6818 11.5366 16.2893C12.0482 15.8968 12.6751 15.684 13.32 15.684C13.9649 15.684 14.5918 15.8968 15.1034 16.2893C15.6151 16.6818 15.983 17.2322 16.15 17.8551H21.25C21.4489 17.8551 21.6397 17.9341 21.7803 18.0747C21.921 18.2154 22 18.4061 22 18.6051ZM22 5.39505C22 5.59396 21.921 5.78473 21.7803 5.92538C21.6397 6.06603 21.4489 6.14505 21.25 6.14505H18.8C18.633 6.76793 18.2651 7.3183 17.7534 7.71082C17.2418 8.10335 16.6149 8.31611 15.97 8.31611C15.3251 8.31611 14.6982 8.10335 14.1866 7.71082C13.6749 7.3183 13.307 6.76793 13.14 6.14505H2.75C2.65151 6.14505 2.55398 6.12565 2.46299 6.08796C2.37199 6.05027 2.28931 5.99503 2.21967 5.92538C2.15003 5.85574 2.09478 5.77306 2.05709 5.68207C2.0194 5.59107 2 5.49354 2 5.39505C2 5.29656 2.0194 5.19903 2.05709 5.10804C2.09478 5.01705 2.15003 4.93437 2.21967 4.86472C2.28931 4.79508 2.37199 4.73983 2.46299 4.70214C2.55398 4.66445 2.65151 4.64505 2.75 4.64505H13.14C13.307 4.02218 13.6749 3.47181 14.1866 3.07928C14.6982 2.68676 15.3251 2.474 15.97 2.474C16.6149 2.474 17.2418 2.68676 17.7534 3.07928C18.2651 3.47181 18.633 4.02218 18.8 4.64505H21.25C21.3489 4.64371 21.447 4.66219 21.5386 4.6994C21.6302 4.73662 21.7134 4.79181 21.7833 4.86172C21.8532 4.93164 21.9084 5.01485 21.9457 5.10646C21.9829 5.19806 22.0013 5.29619 22 5.39505ZM22 11.9951C22.0013 12.0939 21.9829 12.192 21.9457 12.2836C21.9084 12.3753 21.8532 12.4585 21.7833 12.5284C21.7134 12.5983 21.6302 12.6535 21.5386 12.6907C21.447 12.7279 21.3489 12.7464 21.25 12.7451H9.55C9.38296 13.3679 9.01509 13.9183 8.50342 14.3108C7.99176 14.7033 7.36489 14.9161 6.72 14.9161C6.07511 14.9161 5.44824 14.7033 4.93658 14.3108C4.42491 13.9183 4.05704 13.3679 3.89 12.7451H2.75C2.55109 12.7451 2.36032 12.666 2.21967 12.5254C2.07902 12.3847 2 12.194 2 11.9951C2 11.7961 2.07902 11.6054 2.21967 11.4647C2.36032 11.3241 2.55109 11.2451 2.75 11.2451H3.89C4.05704 10.6222 4.42491 10.0718 4.93658 9.67928C5.44824 9.28676 6.07511 9.074 6.72 9.074C7.36489 9.074 7.99176 9.28676 8.50342 9.67928C9.01509 10.0718 9.38296 10.6222 9.55 11.2451H21.25C21.4489 11.2451 21.6397 11.3241 21.7803 11.4647C21.921 11.6054 22 11.7961 22 11.9951Z" fill="white"/>
</svg>
