<svg width="210" height="205" viewBox="0 0 210 205" fill="none" xmlns="http://www.w3.org/2000/svg">
<path d="M106.585 15.3857C102.555 15.5428 102.031 15.7783 102.031 17.5318C102.031 18.317 102.214 18.7357 102.79 19.3377L103.549 20.0967H121.084H138.62L139.431 19.4162C140.295 18.6834 140.53 17.4533 139.954 16.3803C139.3 15.1764 138.855 15.1502 123.989 15.2025C116.295 15.2025 108.47 15.3072 106.585 15.3857Z" fill="white" fill-opacity="0.4"/>
<path d="M53.8503 20.3062C52.1753 21.1437 51.9136 22.9234 53.2745 24.3366C54.1905 25.2788 55.3683 25.305 56.4413 24.4152C58.1948 22.9495 57.5405 20.7511 55.1589 20.0183C54.9233 19.9398 54.3214 20.0706 53.8503 20.3062Z" fill="white" fill-opacity="0.4"/>
<path d="M64.9449 20.2272C63.5578 20.803 63.139 22.4518 63.9503 23.996C64.6308 25.3569 66.4367 25.4878 67.7191 24.31C68.7921 23.2893 68.8445 22.0069 67.8238 20.9077C66.9339 19.9655 66.0441 19.7561 64.9449 20.2272Z" fill="white" fill-opacity="0.4"/>
<path d="M87.4813 20.2014C85.911 20.8819 85.4399 22.269 86.1989 23.7608C86.9841 25.3049 88.7638 25.5405 90.02 24.3104C91.3286 22.9756 90.9884 20.908 89.3395 20.2014C88.2927 19.7826 88.502 19.7826 87.4813 20.2014Z" fill="white" fill-opacity="0.4"/>
<path d="M75.4683 20.7512C74.5522 21.6411 74.5522 23.3946 75.4683 24.3891C76.9077 25.9333 79.7866 24.7555 79.7866 22.6356C79.7866 22.0075 79.5511 21.4317 79.1062 20.9083C78.5304 20.2278 78.2425 20.0969 77.2741 20.0969C76.3843 20.0969 75.9394 20.254 75.4683 20.7512Z" fill="white" fill-opacity="0.4"/>
<path d="M39.5861 21.6145C38.644 21.7453 37.8065 22.8707 37.8326 23.9438C37.885 25.3047 39.1936 26.5086 40.3451 26.2731C41.6276 26.0114 42.3604 25.1477 42.3604 23.8914C42.3604 22.3211 41.1826 21.3528 39.5861 21.6145Z" fill="white" fill-opacity="0.4"/>
<path d="M169.791 22.321C168.744 22.8968 168.351 24.0745 168.822 25.2784C169.372 26.744 169.921 26.9011 174.344 26.7179C178.009 26.5608 178.244 26.5346 178.846 25.9065C179.814 24.9382 179.762 23.4987 178.689 22.6089C177.904 21.9546 177.799 21.9284 174.187 21.9284C171.492 21.9546 170.288 22.0593 169.791 22.321Z" fill="white" fill-opacity="0.4"/>
<path d="M105.276 29.8324C103.653 30.6176 103.679 33.4441 105.354 34.2031C105.799 34.4125 112.238 34.491 127.313 34.491C150.684 34.491 149.768 34.5434 150.448 32.9469C150.867 31.9262 150.579 30.6961 149.742 30.0418C149.088 29.5184 148.721 29.5184 127.443 29.5445C113.127 29.5445 105.642 29.6492 105.276 29.8324Z" fill="white" fill-opacity="0.4"/>
<path d="M35.3983 30.5653C35.1104 30.6699 34.5346 31.141 34.1682 31.6121L33.4616 32.4496L33.4092 41.3742C33.3307 60.4535 33.3307 62.3903 33.5139 63.2801C33.6186 63.8297 34.0635 64.5363 34.6131 65.0336L35.5553 65.8973H50.4733C66.9616 65.8973 66.4643 65.9496 67.485 64.2485C67.9823 63.4371 68.0084 62.8352 68.0084 48.1528C68.0084 31.3242 68.0608 31.8477 66.3596 30.827C65.5483 30.3297 64.9463 30.3035 50.735 30.3297C42.5955 30.3297 35.7123 30.4344 35.3983 30.5653ZM63.0358 48.2313V60.9246H50.7612C43.9827 60.9246 38.4342 60.8461 38.3819 60.7153C38.3295 60.6106 38.3295 54.9051 38.3819 48.0219L38.4604 35.5379H50.7612H63.0358V48.2313Z" fill="white" fill-opacity="0.4"/>
<path d="M45.0812 41.2959C43.7727 41.8193 43.668 42.3428 43.668 47.9959V53.2564L44.3484 53.9631L45.0551 54.6436H50.9176H56.8062L57.5652 53.8846C58.6121 52.8377 58.6121 51.5814 57.5652 50.4822L56.8062 49.6709H52.7234H48.6406V46.3209C48.6406 42.6568 48.4836 42.1596 47.0703 41.4268C46.2328 40.9818 45.8926 40.9557 45.0812 41.2959Z" fill="white" fill-opacity="0.4"/>
<path d="M75.5715 32.6325C75.0219 33.2083 74.8125 33.6532 74.8125 34.3599C74.8125 35.0665 75.0219 35.5114 75.5715 36.0872C76.6445 37.1603 77.7438 37.1079 78.8953 35.9563C79.8637 34.988 79.9945 34.3337 79.3926 33.1821C78.6074 31.638 76.8277 31.4024 75.5715 32.6325Z" fill="white" fill-opacity="0.4"/>
<path d="M16.6859 36.0355C15.4559 37.2656 15.8746 39.307 17.4973 39.9874C19.0414 40.6417 20.6379 39.4116 20.6379 37.5534C20.6379 35.4074 18.2563 34.4913 16.6859 36.0355Z" fill="white" fill-opacity="0.4"/>
<path d="M163.926 36.3494C161.963 36.4541 161.309 36.6373 160.131 37.2654C158.194 38.3123 156.519 40.0658 155.577 42.0811L154.766 43.7822V49.8018V55.8213L155.498 57.2346C156.493 59.1189 158.377 61.0818 160 61.9193C161.047 62.4689 161.78 62.626 163.743 62.7045L166.203 62.8092L169.029 65.5311C170.6 67.0229 172.039 68.2529 172.222 68.2529C172.877 68.2268 173.74 67.5725 176.148 65.217L178.582 62.8092L181.068 62.7045C183.293 62.626 183.738 62.4951 185.204 61.71C187.114 60.6893 188.449 59.3021 189.417 57.2607C190.098 55.8213 190.098 55.7689 190.098 49.54C190.098 43.285 190.098 43.2588 189.391 41.767C188.501 39.8826 186.826 38.0244 185.125 37.1607L183.816 36.4541L175.049 36.3232C170.233 36.2447 165.208 36.2709 163.926 36.3494ZM182.796 41.7932C183.267 42.0811 183.973 42.7354 184.366 43.285L185.125 44.2533V49.5139C185.125 55.2455 184.994 55.8213 183.529 56.9729C182.927 57.4439 182.482 57.5225 179.891 57.5225C177.09 57.5225 176.907 57.5486 175.939 58.2553C175.389 58.674 174.421 59.5639 173.793 60.2182C173.191 60.8986 172.589 61.4482 172.484 61.4482C172.379 61.4482 171.594 60.7416 170.73 59.8518C168.558 57.6533 168.244 57.5225 164.999 57.5225C162.434 57.5225 162.225 57.4701 161.439 56.842C159.974 55.5857 159.869 55.167 159.869 49.6709C159.869 44.2533 159.948 43.8607 161.361 42.5783C162.722 41.2959 162.643 41.3221 172.562 41.2959C181.382 41.2959 182.037 41.3221 182.796 41.7932Z" fill="white" fill-opacity="0.4"/>
<path d="M171.256 42.5783C166.022 43.9393 163.719 50.142 167.043 54.0154C168.456 55.6643 170.393 56.5803 172.434 56.6064C177.799 56.6064 181.385 51.215 179.082 46.5826C177.642 43.7037 174.031 41.8455 171.256 42.5783ZM173.874 48.2314C174.737 49.0689 174.763 50.5084 173.952 51.0842C173.01 51.7385 172.042 51.6076 171.283 50.6916C170.419 49.6709 170.419 49.2783 171.361 48.3361C172.303 47.4201 173.036 47.3678 173.874 48.2314Z" fill="white" fill-opacity="0.4"/>
<path d="M106.585 40.7718C105.041 41.3738 104.727 43.4152 105.93 44.7499C106.951 45.9015 108.364 45.9015 109.411 44.7238C110.589 43.389 110.354 41.6878 108.836 40.9027C107.998 40.4577 107.422 40.4316 106.585 40.7718Z" fill="white" fill-opacity="0.4"/>
<path d="M119.619 41.5053C119.174 41.924 118.729 42.5521 118.651 42.8924C118.572 43.2326 118.546 48.3885 118.572 54.3295L118.651 65.1646L119.619 66.0545L120.614 66.9443H131.318C141.761 66.9443 142.022 66.9443 142.703 66.3947C144.168 65.2432 144.168 65.2955 144.168 53.4396V42.5521L143.279 41.6623L142.389 40.7725H131.397H120.404L119.619 41.5053ZM139.196 53.8584V61.9717H131.501H123.833L123.65 61.1604C123.571 60.7154 123.493 57.0514 123.493 53.0471V45.7451H131.344H139.196V53.8584Z" fill="white" fill-opacity="0.4"/>
<path d="M87.5591 48.127C85.0728 48.7027 82.5864 50.6133 81.1993 52.9688C80.3618 54.4082 79.7075 57.4965 79.9431 59.0668C80.7544 64.6938 85.4392 68.541 91.0138 68.2008C93.6833 68.0176 95.6724 67.2063 97.4521 65.6098C99.9646 63.2805 101.273 59.5117 100.697 56.2664C100.017 52.6809 97.2165 49.357 94.0235 48.3625C92.1915 47.8129 89.365 47.7082 87.5591 48.127ZM92.5056 53.309C94.5208 54.225 96.0126 56.7898 95.62 58.648C94.6255 63.4113 88.8415 64.7461 86.1458 60.8465C85.5177 59.9566 85.413 59.5379 85.413 58.0461C85.413 55.7691 86.1982 54.4867 88.1872 53.4922C89.8099 52.6809 91.0138 52.6285 92.5056 53.309Z" fill="white" fill-opacity="0.4"/>
<path d="M19.6175 57.418L18.8062 58.0984V61.1082C18.8062 63.7515 18.7539 64.0918 18.3874 63.9609C18.1781 63.8824 17.7331 63.9348 17.4191 64.118C15.9011 64.9031 16.1367 65.6359 18.5968 68.1484C21.4757 71.1058 21.5542 71.1058 24.5902 67.9129C27.1288 65.2695 27.3906 64.589 26.2914 63.5422C25.6371 62.9664 25.1136 62.9402 23.9882 63.4113C23.5433 63.5945 23.5171 63.359 23.5171 60.8465C23.5171 58.0984 23.5171 58.0984 22.7058 57.418C22.2609 57.0254 21.5804 56.7375 21.1617 56.7375C20.7429 56.7375 20.0624 57.0254 19.6175 57.418Z" fill="white" fill-opacity="0.4"/>
<path d="M193.554 72.3354C192.481 72.9112 192.324 73.644 192.324 77.5698C192.324 80.9722 192.35 81.1292 192.979 81.7311C193.895 82.6733 195.386 82.621 196.329 81.6526C197.035 80.9198 197.035 80.8675 197.035 77.2296C197.035 73.7487 197.009 73.4608 196.459 72.8589C195.7 71.9952 194.523 71.7858 193.554 72.3354Z" fill="white" fill-opacity="0.4"/>
<path d="M43.7453 76.3919C39.2699 77.1509 34.5852 80.37 31.7324 84.636C29.5602 87.8813 28.932 89.8966 28.8012 93.8224L28.6965 97.0415H27.5449C26.6551 97.0415 26.2102 97.1985 25.5559 97.8005L24.6922 98.5595L24.6137 107.196L24.5352 115.833L25.3727 116.775C26.1055 117.613 26.3148 117.717 27.4664 117.717H28.7488V119.366C28.7488 125.778 33.4598 133.002 39.6102 136.064C43.9809 138.21 43.1434 138.158 62.7984 138.131C81.5898 138.131 81.5375 138.131 83.8145 136.744C84.3641 136.404 88.918 132.086 93.943 127.165C100.46 120.779 103.312 118.136 103.914 117.953C105.118 117.613 110.065 117.665 110.745 118.005C111.059 118.162 115.613 122.559 120.874 127.793C130.191 137.032 130.479 137.268 131.997 137.739C133.462 138.21 134.745 138.236 151.626 138.21L169.684 138.184L171.909 137.477C179.918 134.938 185.178 128.291 185.937 119.733L186.12 117.717H187.246C188.659 117.717 189.654 116.932 189.968 115.493C190.308 114.106 190.308 99.3446 189.968 98.5071C189.601 97.5388 188.476 96.9106 187.193 96.963L186.12 96.9892L185.963 94.0841C185.728 88.8759 184.053 85.0548 180.441 81.4692C178.164 79.1923 176.07 77.936 172.825 76.8368L170.993 76.2349L108.05 76.2087C73.1102 76.1825 44.5043 76.261 43.7453 76.3919ZM170.731 81.7309C174.474 82.7255 177.902 85.5259 179.63 89.0329C180.598 90.9435 180.65 91.2052 180.834 94.5028C181.148 100.313 180.834 120.204 180.389 122.009C179.08 127.349 174.709 131.641 169.37 132.766C167.931 133.08 164.45 133.159 151.102 133.159C135.504 133.159 134.562 133.133 133.515 132.661C132.861 132.347 131.264 130.934 129.301 128.919L126.134 125.7L127.129 124.784C131.369 120.806 142.989 110.023 144.036 109.081C144.769 108.426 146.941 106.411 148.878 104.605C161.519 92.8802 160.184 93.9009 163.063 93.9009C165.811 93.9009 167.093 94.3458 167.381 95.4188C167.564 96.1517 167.879 95.8376 161.309 101.857C159.713 103.323 154.557 108.086 149.82 112.483C145.083 116.88 140.634 121.015 139.901 121.669C138.749 122.69 138.566 123.004 138.566 123.841C138.566 124.522 138.749 124.993 139.273 125.517L139.979 126.223L152.856 126.302C164.057 126.354 165.889 126.302 167.172 125.935C169.501 125.281 171.15 123.815 172.302 121.46L172.956 120.099V107.327V94.5552L172.328 93.2466C171.569 91.5977 169.789 89.9489 168.088 89.2946C166.832 88.8235 165.209 88.7974 107.395 88.7974H47.9852L46.3363 89.5563C44.4781 90.42 43.091 91.8071 42.2797 93.613C41.7563 94.7907 41.7563 95.1833 41.8086 107.51L41.8871 120.204L42.6461 121.8C43.4574 123.527 44.5828 124.679 46.3625 125.621C47.4355 126.197 47.6973 126.223 56.491 126.302C62.432 126.354 65.8605 126.302 66.4887 126.118C67.5879 125.778 68.8965 124.627 76.3816 117.456C81.5637 112.483 90.8809 103.742 98.0258 97.0938L101.48 93.9009H127.024C141.837 93.9009 152.542 94.0056 152.542 94.1364C152.542 94.2673 151.573 95.2356 150.396 96.2825C149.192 97.3556 146.104 100.208 143.512 102.668C140.921 105.102 137.493 108.295 135.923 109.709C133.279 112.09 127.809 117.141 124.224 120.518C123.412 121.277 122.68 121.905 122.601 121.905C122.496 121.905 120.691 120.151 118.571 117.979C114.174 113.504 113.205 112.928 109.515 112.431C106.636 112.038 103.81 112.404 101.507 113.425C99.9887 114.106 98.8633 115.1 90.7762 123.03C85.8035 127.898 81.2758 132.164 80.7 132.452C79.6531 133.028 79.4961 133.028 63.6359 133.106C45.8914 133.185 45.4465 133.159 42.1488 131.536C40.0289 130.489 36.548 127.165 35.475 125.124C35.0824 124.391 34.5328 122.873 34.2449 121.748C33.7477 119.863 33.7215 118.817 33.7215 106.49C33.7215 91.7548 33.7215 91.6501 35.475 88.3524C36.077 87.2009 36.993 86.0231 38.0922 85.0024C39.898 83.3013 41.1543 82.5685 43.4051 81.8356C44.766 81.3907 48.1684 81.3645 107.003 81.3645C162.016 81.3384 169.37 81.3907 170.731 81.7309ZM70.8855 94.1364C70.8855 94.2673 70.1266 95.0786 69.2367 95.9161C68.3207 96.7536 62.9293 101.909 57.25 107.379L46.9383 117.325L46.8598 106.725C46.8074 99.1876 46.8859 95.9161 47.0953 95.3927C47.7234 93.8747 47.4879 93.9009 59.684 93.9009C66.2531 93.9009 70.8855 94.0056 70.8855 94.1364ZM93.498 94.2673C93.4195 94.4505 92.268 95.602 90.9594 96.806C89.6246 98.0099 85.3324 102.067 81.3805 105.809C70.4668 116.173 66.7504 119.602 65.7035 120.413L64.7352 121.12L57.407 121.067L50.0789 120.989L52.5652 118.659C55.6012 115.781 73.2672 99.0306 76.3555 96.0731L78.6062 93.927L86.1176 93.9009C92.3727 93.9009 93.6027 93.9532 93.498 94.2673ZM167.591 119.445C167.486 120.073 167.224 120.361 166.465 120.701C165.602 121.093 164.45 121.12 156.755 121.067L148.04 120.989L150.762 118.502C152.254 117.141 155.787 113.896 158.587 111.279C161.388 108.688 164.555 105.757 165.628 104.788L167.591 103.035L167.669 110.834C167.695 115.126 167.669 119 167.591 119.445Z" fill="white" fill-opacity="0.4"/>
<path d="M15.1408 77.0726C14.1201 77.7792 13.8583 78.2503 13.8322 79.428C13.806 82.2808 17.4177 83.4062 19.0665 81.0769C20.7939 78.6429 17.5748 75.3976 15.1408 77.0726Z" fill="white" fill-opacity="0.4"/>
<path d="M192.849 127.872C191.802 128.946 191.776 130.045 192.823 131.092C193.346 131.615 193.844 131.851 194.419 131.851C195.519 131.851 196.775 130.621 196.775 129.521C196.775 128.448 195.833 127.428 194.629 127.218C193.791 127.087 193.556 127.192 192.849 127.872Z" fill="white" fill-opacity="0.4"/>
<path d="M13.1254 129.757C12.3926 130.045 12 130.804 12 131.903C12.0262 132.871 12.3664 133.447 13.2301 133.892C14.0152 134.337 20.2965 134.311 21.1602 133.866C22.1547 133.369 22.5734 132.296 22.207 131.196C21.7098 129.652 21.2125 129.495 17.2344 129.521C15.2977 129.521 13.4395 129.626 13.1254 129.757Z" fill="white" fill-opacity="0.4"/>
<path d="M106.298 133.028C104.728 133.709 104.44 135.358 105.67 136.588C106.246 137.137 106.691 137.347 107.398 137.347C108.497 137.347 109.884 136.195 109.884 135.279C109.884 134.311 109.387 133.447 108.602 133.028C107.659 132.557 107.371 132.557 106.298 133.028Z" fill="white" fill-opacity="0.4"/>
<path d="M105.566 140.618C104.938 141.22 104.912 141.377 104.912 144.91V148.548L100.567 148.653L96.2228 148.731L95.3853 149.674C94.5478 150.563 94.5216 150.668 94.3908 153.599C94.1029 159.226 94.1291 168.413 94.4169 169.486C94.6002 170.14 95.0712 170.847 95.6209 171.344L96.563 172.155H107.11C117.658 172.155 117.658 172.155 118.547 171.553C120.092 170.533 120.092 170.533 120.092 160.404C120.092 151.375 120.065 151.113 119.516 150.249C118.678 148.862 117.762 148.601 113.575 148.601H109.911L109.832 144.779C109.754 141.142 109.727 140.932 109.126 140.461C108.21 139.702 106.377 139.781 105.566 140.618ZM115.119 160.378V167.183H107.267H99.4158V160.509V153.835L104.205 153.756C106.822 153.73 110.356 153.678 112.057 153.626L115.119 153.573V160.378Z" fill="white" fill-opacity="0.4"/>
<path d="M105.199 158.939C104.309 159.986 104.152 161.006 104.754 162.184C105.749 164.068 108.759 163.885 109.701 161.896C110.224 160.771 110.015 159.75 109.046 158.808C108.418 158.18 108.052 158.023 107.136 158.023C106.168 158.023 105.906 158.154 105.199 158.939Z" fill="white" fill-opacity="0.4"/>
<path d="M193.082 141.927C191.04 143.052 191.852 146.245 194.155 146.245C195.49 146.245 196.51 145.224 196.51 143.89C196.51 142.188 194.574 141.089 193.082 141.927Z" fill="white" fill-opacity="0.4"/>
<path d="M17.0512 142.843C16.266 143.314 16.1875 143.471 16.1875 144.622C16.1875 146.219 16.9203 147.03 18.3336 147.03C19.0664 147.03 19.4328 146.847 19.9562 146.219C20.3227 145.774 20.6367 145.198 20.6367 144.91C20.6367 144.073 19.9562 142.974 19.1973 142.633C18.2812 142.215 18.0195 142.241 17.0512 142.843Z" fill="white" fill-opacity="0.4"/>
<path d="M41.6527 143.602C41.2078 143.89 36.5754 148.339 31.3934 153.495C22.1023 162.707 21.9453 162.89 21.9453 163.911C21.9453 164.906 22.1809 165.167 31.7074 174.72C37.0465 180.111 41.7051 184.613 42.0191 184.744C43.5633 185.346 43.8773 185.084 54.032 174.982C59.3973 169.643 63.8988 165.01 64.082 164.696C64.2652 164.356 64.3437 163.754 64.2391 163.335C64.0297 162.419 45.5262 143.994 44.2699 143.471C43.1445 142.974 42.6473 143 41.6527 143.602ZM50.6035 156.531C54.5555 160.404 57.8008 163.676 57.8008 163.78C57.8008 164.094 43.4324 178.436 43.1184 178.436C42.9613 178.436 39.559 175.139 35.5285 171.134L28.2004 163.833L33.1207 159.043C35.8164 156.426 39.1141 153.181 40.3965 151.82C41.7051 150.485 42.909 149.438 43.066 149.464C43.2492 149.49 46.6516 152.683 50.6035 156.531Z" fill="white" fill-opacity="0.4"/>
<path d="M42.3855 159.593C40.4227 160.038 38.957 161.844 38.957 163.833C38.957 165.324 39.3496 166.214 40.5273 167.313C41.2602 168.02 41.5219 168.099 42.9875 168.099C44.2699 168.099 44.8195 167.968 45.5262 167.471C46.9133 166.528 47.5938 165.324 47.5938 163.859C47.5676 160.954 45.1598 158.991 42.3855 159.593Z" fill="white" fill-opacity="0.4"/>
<path d="M133.069 146.638C131.054 147.475 129.405 149.098 128.699 150.93C126.762 156.112 130.478 161.477 136.001 161.477C138.277 161.477 140.738 160.273 142.072 158.467L142.988 157.237H155.629H168.244L169.056 155.929C170.809 153.05 174.002 152.631 176.488 154.908C178.268 156.557 178.451 157.159 178.451 161.399V165.089H174.63H170.809L170.024 165.874C169.343 166.581 169.239 166.816 169.37 167.654C169.474 168.282 169.815 168.884 170.338 169.329L171.123 170.062H176.174C180.44 170.062 181.33 169.983 182.115 169.59C183.66 168.831 183.712 168.517 183.529 161.948C183.372 156.086 183.372 156.06 182.586 154.411C181.121 151.322 177.718 148.81 174.526 148.444C171.594 148.129 168.14 149.281 166.255 151.218L165.235 152.265H154.426C144.376 152.265 143.617 152.238 143.486 151.794C143.407 151.558 143.041 150.721 142.674 149.962C140.973 146.481 136.89 145.067 133.069 146.638ZM137.649 151.977C138.722 153.024 138.879 153.626 138.356 154.725C138.016 155.536 137.257 156.06 136.105 156.321C135.372 156.478 135.137 156.374 134.352 155.588C133.252 154.489 133.122 153.259 133.985 152.16C135.137 150.694 136.315 150.616 137.649 151.977Z" fill="white" fill-opacity="0.4"/>
<path d="M66.5684 146.638C66.4375 146.69 65.9926 146.795 65.6 146.873C64.841 147.056 64.082 148.156 64.082 149.098C64.082 149.386 64.3961 149.962 64.7625 150.406L65.443 151.218H72.6402C77.0633 151.218 80.0207 151.113 80.3348 150.956C81.0414 150.563 81.6695 149.255 81.4602 148.496C81.3816 148.156 81.0152 147.58 80.6488 147.24C80.0207 146.638 79.9422 146.638 73.4254 146.585C69.7875 146.559 66.7254 146.585 66.5684 146.638Z" fill="white" fill-opacity="0.4"/>
<path d="M192.665 153.416C191.095 154.777 192.09 157.499 194.157 157.499C196.356 157.499 197.376 154.856 195.701 153.469C194.707 152.605 193.634 152.605 192.665 153.416Z" fill="white" fill-opacity="0.4"/>
<path d="M77.1698 162.655C75.678 163.204 75.3378 165.272 76.5417 166.502C77.196 167.156 77.3792 167.183 79.944 167.183C82.4303 167.183 82.6921 167.13 83.4249 166.528C83.8436 166.162 84.2362 165.534 84.2885 165.141C84.4194 164.278 83.8698 163.1 83.2155 162.733C82.6921 162.472 77.8764 162.393 77.1698 162.655Z" fill="white" fill-opacity="0.4"/>
<path d="M193.24 163.833C192.377 164.304 192.062 164.879 192.062 166.031C192.062 166.921 192.193 167.261 192.743 167.68C193.136 167.994 193.79 168.229 194.209 168.229C195.282 168.229 196.512 166.973 196.512 165.874C196.512 165.298 196.276 164.801 195.753 164.278C194.941 163.492 194.13 163.335 193.24 163.833Z" fill="white" fill-opacity="0.4"/>
<path d="M153.433 167.418C144.377 167.575 144.534 167.549 143.749 169.041C143.461 169.643 143.383 171.475 143.383 178.751C143.383 187.256 143.409 187.78 143.906 188.591C144.194 189.062 144.744 189.56 145.11 189.69C145.477 189.847 149.507 189.952 154.611 189.952C163.3 189.952 163.483 189.952 164.189 189.376C165.341 188.46 165.629 187.44 165.629 183.933V180.792H167.199C169.659 180.792 170.602 180.138 170.602 178.437C170.602 176.735 169.659 176.081 167.199 176.081H165.629V172.81C165.629 169.355 165.42 168.491 164.425 167.837C163.587 167.287 162.802 167.261 153.433 167.418ZM159.06 172.312L160.656 172.496V178.724V184.979H154.506H148.355V178.698V172.443L151.051 172.338C152.517 172.312 154.558 172.234 155.579 172.208C156.6 172.181 158.17 172.234 159.06 172.312Z" fill="white" fill-opacity="0.4"/>
<path d="M72.3263 176.133C71.1747 177.154 71.5934 179.928 72.9282 180.033C73.1638 180.059 77.9794 180.059 83.5802 180.006C93.4993 179.954 93.8134 179.954 94.3891 179.404C95.0434 178.803 95.1743 177.285 94.6247 176.578C93.8657 175.61 93.3946 175.557 83.0829 175.557C73.0067 175.557 73.0067 175.557 72.3263 176.133Z" fill="white" fill-opacity="0.4"/>
<path d="M122.785 176.473C121.66 177.259 121.791 179.902 122.995 180.53C124.172 181.158 125.612 180.713 126.24 179.483C126.816 178.358 126.737 177.703 125.873 176.84C124.984 175.976 123.727 175.819 122.785 176.473Z" fill="white" fill-opacity="0.4"/>
<path d="M130.192 176.892C129.8 177.337 129.512 178.018 129.512 178.437C129.512 179.431 130.663 180.792 131.527 180.792C132.888 180.792 134.223 179.51 134.223 178.175C134.223 177.913 133.909 177.337 133.542 176.892C133.019 176.238 132.652 176.081 131.867 176.081C131.082 176.081 130.716 176.238 130.192 176.892Z" fill="white" fill-opacity="0.4"/>
<path d="M173.98 176.84C172.462 178.384 173.351 180.792 175.445 180.792C176.78 180.792 177.67 179.85 177.67 178.437C177.67 176.238 175.524 175.322 173.98 176.84Z" fill="white" fill-opacity="0.4"/>
<path d="M181.201 176.735C180.364 177.547 180.311 179.117 181.097 180.112C181.515 180.635 181.856 180.792 182.667 180.792C184.08 180.792 184.996 179.902 184.996 178.489C184.996 176.369 182.615 175.296 181.201 176.735Z" fill="white" fill-opacity="0.4"/>
<path d="M188.606 176.604C187.481 177.468 187.455 179.274 188.528 180.347C188.79 180.609 189.365 180.792 189.967 180.792C190.779 180.792 191.093 180.635 191.668 179.954C192.244 179.274 192.349 178.934 192.218 178.201C191.93 176.369 189.993 175.505 188.606 176.604Z" fill="white" fill-opacity="0.4"/>
<path d="M56.0474 185.11C55.2099 185.712 54.7912 187.178 55.1837 188.146C55.5501 188.984 56.6232 189.69 57.5654 189.69C58.4291 189.69 59.8947 188.068 59.8947 187.073C59.8947 185.294 57.5392 184.063 56.0474 185.11Z" fill="white" fill-opacity="0.4"/>
<path d="M76.9047 186.209C75.4653 186.471 74.6278 187.911 75.0727 189.324C75.6747 191.104 74.3922 190.999 97.4235 190.999H118.204L119.015 190.188C119.486 189.716 119.827 189.114 119.827 188.722C119.827 187.937 119.094 186.628 118.544 186.393C118.073 186.209 77.9255 186.026 76.9047 186.209Z" fill="white" fill-opacity="0.4"/>
</svg>
