<svg width="40" height="40" viewBox="0 0 40 40" fill="none" xmlns="http://www.w3.org/2000/svg">
<path d="M7.90039 5.00073L35.0007 32.1005L32.1015 34.9996L5.00125 7.89983L7.90039 5.00073Z" fill="#0E0214"/>
<path d="M34.998 7.901L7.89776 35.0008L4.99862 32.1017L32.0989 5.00191L34.998 7.901Z" fill="#0E0214"/>
<path d="M7.90039 5.00073L35.0007 32.1005L32.1015 34.9996L5.00125 7.89983L7.90039 5.00073Z" fill="#0E0214"/>
<path d="M34.998 7.901L7.89776 35.0008L4.99862 32.1017L32.0989 5.00191L34.998 7.901Z" fill="#0E0214"/>
<path d="M19.7413 33.0603C20.2832 33.0603 20.7057 33.47 20.7057 33.9553C20.7057 34.4406 20.2832 34.8502 19.7413 34.8502C19.1995 34.8502 18.777 34.4406 18.777 33.9553C18.777 33.47 19.1995 33.0603 19.7413 33.0603Z" stroke="#0E0214" stroke-width="0.3"/>
<path d="M19.7413 5.15005C20.2832 5.15005 20.7057 5.55968 20.7057 6.04501C20.7057 6.53033 20.2832 6.93997 19.7413 6.93997C19.1995 6.93997 18.777 6.53033 18.777 6.04501C18.777 5.55968 19.1995 5.15004 19.7413 5.15005Z" stroke="#0E0214" stroke-width="0.3"/>
<path d="M6.07879 19.174C6.07879 19.6593 5.65625 20.0689 5.11439 20.0689C4.57254 20.0689 4.15 19.6593 4.15 19.174C4.15 18.6887 4.57254 18.279 5.11439 18.279C5.65625 18.279 6.07879 18.6887 6.07879 19.174Z" stroke="#0E0214" stroke-width="0.3"/>
<path d="M35.4714 18.9631C35.4714 19.4484 35.0488 19.858 34.507 19.858C33.9651 19.858 33.5426 19.4484 33.5426 18.9631C33.5426 18.4777 33.9651 18.0681 34.507 18.0681C35.0488 18.0681 35.4714 18.4777 35.4714 18.9631Z" stroke="#0E0214" stroke-width="0.3"/>
</svg>
