<svg width="32" height="32" viewBox="0 0 32 32" fill="none" xmlns="http://www.w3.org/2000/svg">
<path d="M6.32031 4.00061L28.0005 25.6804L25.6812 27.9997L4.001 6.31988L6.32031 4.00061Z" fill="#0E0214"/>
<path d="M27.999 6.3208L6.3188 28.0006L3.99948 25.6814L25.6797 4.00153L27.999 6.3208Z" fill="#0E0214"/>
<path d="M6.32031 4.00061L28.0005 25.6804L25.6812 27.9997L4.001 6.31988L6.32031 4.00061Z" fill="#0E0214"/>
<path d="M27.999 6.3208L6.3188 28.0006L3.99948 25.6814L25.6797 4.00153L27.999 6.3208Z" fill="#0E0214"/>
<path d="M15.7929 26.4782C16.2116 26.4782 16.5344 26.7942 16.5344 27.1642C16.5344 27.5341 16.2116 27.8501 15.7929 27.8501C15.3741 27.8501 15.0514 27.5341 15.0514 27.1642C15.0514 26.7942 15.3741 26.4782 15.7929 26.4782Z" stroke="#0E0214" stroke-width="0.3"/>
<path d="M15.7929 4.14994C16.2116 4.14994 16.5344 4.466 16.5344 4.83591C16.5344 5.20581 16.2116 5.52188 15.7929 5.52188C15.3741 5.52188 15.0514 5.20581 15.0514 4.83591C15.0514 4.466 15.3741 4.14994 15.7929 4.14994Z" stroke="#0E0214" stroke-width="0.3"/>
<path d="M4.83323 15.3391C4.83323 15.709 4.51047 16.0251 4.09171 16.0251C3.67295 16.0251 3.3502 15.709 3.3502 15.3391C3.3502 14.9692 3.67295 14.6532 4.09171 14.6532C4.51047 14.6532 4.83323 14.9692 4.83323 15.3391Z" stroke="#0E0214" stroke-width="0.3"/>
<path d="M28.3469 15.1704C28.3469 15.5403 28.0241 15.8564 27.6054 15.8564C27.1866 15.8564 26.8639 15.5403 26.8639 15.1704C26.8639 14.8005 27.1866 14.4845 27.6054 14.4845C28.0241 14.4845 28.3469 14.8005 28.3469 15.1704Z" stroke="#0E0214" stroke-width="0.3"/>
</svg>
