<svg width="40" height="40" viewBox="0 0 40 40" fill="none" xmlns="http://www.w3.org/2000/svg">
<circle cx="20" cy="20" r="20" fill="white"/>
<path d="M17.06 9.92997C15.17 9.91997 13.33 11.74 14.17 14H11C10.4696 14 9.96086 14.2107 9.58579 14.5858C9.21071 14.9608 9 15.4695 9 16V18C9 18.2652 9.10536 18.5195 9.29289 18.7071C9.48043 18.8946 9.73478 19 10 19H19V16H21V19H30C30.2652 19 30.5196 18.8946 30.7071 18.7071C30.8946 18.5195 31 18.2652 31 18V16C31 15.4695 30.7893 14.9608 30.4142 14.5858C30.0391 14.2107 29.5304 14 29 14H25.83C27 10.73 22.6 8.41997 20.57 11.24L20 12L19.43 11.22C18.8 10.33 17.93 9.93997 17.06 9.92997ZM17 12C17.89 12 18.34 13.08 17.71 13.71C17.08 14.34 16 13.89 16 13C16 12.7348 16.1054 12.4804 16.2929 12.2929C16.4804 12.1053 16.7348 12 17 12ZM23 12C23.89 12 24.34 13.08 23.71 13.71C23.08 14.34 22 13.89 22 13C22 12.7348 22.1054 12.4804 22.2929 12.2929C22.4804 12.1053 22.7348 12 23 12ZM10 20V28C10 28.5304 10.2107 29.0391 10.5858 29.4142C10.9609 29.7893 11.4696 30 12 30H28C28.5304 30 29.0391 29.7893 29.4142 29.4142C29.7893 29.0391 30 28.5304 30 28V20H21V28H19V20H10Z" fill="#AA00FF"/>
</svg>
