<svg width="1078" height="1331" viewBox="0 0 1078 1331" fill="none" xmlns="http://www.w3.org/2000/svg">
<g clip-path="url(#clip0_1175_31992)">
<g opacity="0.5">
<path d="M1135.2 1019.27C939.277 1311.72 641.819 1092.54 517.58 946.402C238.693 518.286 651.642 447.462 892.57 646.807C1133.5 846.152 1086.27 251.448 1468.3 327.074C1911.29 414.766 1380.11 653.708 1135.2 1019.27Z" stroke="white"/>
<path opacity="0.95875" d="M1124.94 1006.08C939.342 1305.19 634.415 1096.53 505.152 954.811C211.494 536.689 621.719 451.496 869.458 642.311C1117.2 833.126 1049.24 240.433 1433.68 302.68C1879.46 374.859 1356.94 632.193 1124.94 1006.08Z" stroke="white"/>
<path opacity="0.9175" d="M1114.22 993.253C939.178 1298.66 627.155 1100.77 493.025 963.648C184.953 556.029 591.956 456.571 846.202 638.625C1100.45 820.678 1011.85 230.717 1398.23 279.51C1846.26 336.087 1333.03 611.5 1114.22 993.253Z" stroke="white"/>
<path opacity="0.87625" d="M1103.07 980.811C938.786 1292.14 620.048 1105.26 481.213 972.903C159.104 576.284 562.387 462.683 822.833 635.752C1083.28 808.821 974.143 222.312 1361.99 257.59C1811.72 298.497 1308.42 591.653 1103.07 980.811Z" stroke="white"/>
<path opacity="0.835" d="M1091.48 968.765C938.167 1285.64 613.101 1109.99 469.732 982.565C133.977 597.429 533.05 469.823 799.377 633.697C1065.7 797.571 936.166 215.228 1325.01 236.949C1775.89 262.136 1283.13 572.678 1091.48 968.765Z" stroke="white"/>
<path opacity="0.79375" d="M1079.49 957.131C937.322 1279.16 606.324 1114.97 458.595 992.622C109.604 619.438 503.98 477.982 775.864 632.461C1047.75 786.941 897.965 209.473 1287.33 217.611C1738.81 227.047 1257.19 554.597 1079.49 957.131Z" stroke="white"/>
<path opacity="0.7525" d="M1067.09 945.923C936.251 1272.72 599.724 1120.18 447.816 1003.06C86.0129 642.284 475.212 487.15 752.322 632.047C1029.43 776.944 859.587 205.056 1249 199.6C1700.54 193.273 1230.64 537.433 1067.09 945.923Z" stroke="white"/>
<path opacity="0.71125" d="M1054.31 935.155C934.956 1266.31 593.311 1125.61 437.407 1013.87C63.2339 665.939 446.782 497.317 728.78 632.455C1010.78 767.593 821.077 201.98 1210.06 182.937C1661.1 160.856 1203.5 521.205 1054.31 935.155Z" stroke="white"/>
<path opacity="0.67" d="M1041.16 924.839C933.438 1259.96 587.091 1131.27 427.383 1025.04C41.2944 690.375 418.724 508.47 705.266 633.684C991.808 758.898 782.484 200.25 1170.57 167.644C1620.56 129.835 1175.82 505.934 1041.16 924.839Z" stroke="white"/>
<path opacity="0.62875" d="M1027.66 914.988C931.7 1253.67 581.072 1137.14 417.754 1036.54C20.2211 715.562 391.073 520.596 681.81 635.733C972.547 750.871 743.854 199.869 1130.56 153.738C1578.97 100.247 1147.62 491.639 1027.66 914.988Z" stroke="white"/>
<path opacity="0.5875" d="M1013.83 905.614C929.742 1247.44 575.262 1143.22 408.532 1048.38C0.0396149 741.469 363.861 533.679 658.439 638.6C953.018 743.52 705.235 200.835 1090.1 141.236C1536.36 72.1295 1118.93 478.337 1013.83 905.614Z" stroke="white"/>
<path opacity="0.54625" d="M999.673 896.73C927.569 1241.28 569.667 1149.5 399.729 1060.54C-19.226 768.066 337.122 547.705 635.183 642.281C933.243 736.858 666.672 203.15 1049.22 130.156C1492.8 45.5172 1089.8 466.045 999.673 896.73Z" stroke="white"/>
<path opacity="0.505" d="M985.218 888.344C925.181 1235.2 564.294 1155.96 391.355 1072.99C-37.5511 795.317 310.89 562.655 612.069 646.771C913.249 730.887 628.213 206.809 1007.98 120.508C1448.34 20.44 1060.26 454.776 985.218 888.344Z" stroke="white"/>
<path opacity="0.46375" d="M970.479 880.466C922.584 1229.2 559.152 1162.61 383.422 1085.72C-54.9136 823.19 285.195 578.509 589.127 652.063C893.058 725.617 589.907 211.805 966.432 112.304C1403.03 -3.07179 1030.35 444.543 970.479 880.466Z" stroke="white"/>
<path opacity="0.4225" d="M955.473 873.111C919.778 1223.31 554.243 1169.44 375.937 1098.73C-71.2936 851.655 260.068 595.253 566.382 658.156C872.696 721.058 551.797 218.139 924.62 105.557C1356.92 -24.985 1000.09 435.364 955.473 873.111Z" stroke="white"/>
<path opacity="0.38125" d="M940.221 866.28C916.769 1217.51 549.577 1176.43 368.912 1111.99C-86.6693 880.671 235.543 612.861 543.865 665.035C852.187 717.209 513.932 225.796 882.599 100.271C1310.08 -45.2786 969.535 427.243 940.221 866.28Z" stroke="white"/>
<path opacity="0.34" d="M924.738 859.989C913.559 1211.82 545.157 1183.58 362.353 1125.49C-101.024 910.209 211.645 631.318 521.601 672.699C831.556 714.081 476.357 234.772 840.418 96.458C1262.56 -63.9223 938.712 420.196 924.738 859.989Z" stroke="white"/>
<path opacity="0.29875" d="M909.046 854.241C910.153 1206.25 540.989 1190.89 356.269 1139.2C-114.339 940.229 188.407 650.595 499.618 681.135C810.828 711.674 439.118 245.053 798.131 94.1176C1214.42 -80.8977 907.663 414.228 909.046 854.241Z" stroke="white"/>
<path opacity="0.2575" d="M893.163 849.044C906.554 1200.8 537.079 1198.33 350.667 1153.12C-126.597 970.695 165.856 670.672 477.943 690.332C790.03 709.991 402.261 256.627 755.787 93.2543C1165.72 -96.1827 876.424 409.347 893.163 849.044Z" stroke="white"/>
<path opacity="0.21625" d="M877.109 844.403C902.767 1195.48 533.431 1205.9 345.556 1167.23C-137.785 1001.57 144.019 691.522 456.602 700.278C769.185 709.034 365.83 269.479 713.44 93.8679C1116.51 -109.76 845.035 405.558 877.109 844.403Z" stroke="white"/>
<path opacity="0.175" d="M860.901 840.328C898.797 1190.29 530.049 1213.6 340.939 1181.51C-147.889 1032.82 122.923 713.125 435.621 710.966C748.319 708.808 329.87 283.597 671.139 95.9621C1066.85 -121.609 813.532 402.87 860.901 840.328Z" stroke="white"/>
<path opacity="0.13375" d="M844.562 836.819C894.648 1185.25 526.938 1221.41 336.823 1195.94C-156.896 1064.4 102.594 735.449 415.026 722.379C727.458 709.309 294.424 298.961 628.937 99.5296C1016.82 -131.719 781.954 401.281 844.562 836.819Z" stroke="white"/>
<path opacity="0.0925" d="M828.11 833.883C890.325 1180.35 524.102 1229.33 333.213 1210.5C-164.796 1096.27 83.0561 758.469 394.842 734.503C706.628 710.537 259.537 315.552 586.885 104.568C966.459 -140.076 750.34 400.795 828.11 833.883Z" stroke="white"/>
<path opacity="0.05125" d="M811.565 831.523C885.835 1175.61 521.544 1237.33 330.114 1225.19C-171.578 1128.41 64.3337 782.157 375.093 747.324C685.853 712.492 225.249 333.35 545.035 111.071C915.84 -146.672 718.729 401.413 811.565 831.523Z" stroke="white"/>
<path opacity="0.01" d="M794.949 829.742C881.181 1171.03 519.266 1245.43 327.53 1239.97C-177.234 1160.75 46.4495 806.483 355.804 760.827C665.158 715.17 191.604 352.335 503.438 119.03C865.022 -151.496 687.158 403.134 794.949 829.742Z" stroke="white"/>
</g>
</g>
<defs>
<clipPath id="clip0_1175_31992">
<rect width="1078" height="1331" fill="white"/>
</clipPath>
</defs>
</svg>
