<svg width="360" height="904" viewBox="0 0 360 904" fill="none" xmlns="http://www.w3.org/2000/svg">
<g clip-path="url(#clip0_1175_32355)">
<g opacity="0.5">
<path d="M619.336 743.926C477.754 955.077 262.801 796.832 173.021 691.316C-28.512 382.21 269.899 331.074 444.002 475.004C618.105 618.933 583.974 189.549 860.047 244.152C1180.16 307.467 796.313 479.986 619.336 743.926Z" stroke="white"/>
<path opacity="0.95875" d="M611.921 734.402C477.801 950.362 257.45 799.708 164.04 697.387C-48.1672 395.497 248.276 333.986 427.3 471.757C606.324 609.529 557.216 181.596 835.028 226.539C1157.16 278.653 779.57 464.452 611.921 734.402Z" stroke="white"/>
<path opacity="0.9175" d="M604.177 725.143C477.682 945.648 252.204 802.77 155.277 703.767C-67.3463 409.461 226.768 337.651 410.495 469.096C594.222 600.541 530.197 174.581 809.41 209.81C1133.17 250.659 762.296 449.511 604.177 725.143Z" stroke="white"/>
<path opacity="0.87625" d="M596.115 716.159C477.399 940.941 247.068 806.012 146.741 710.45C-86.026 424.085 205.4 342.064 393.607 467.022C581.814 591.98 502.949 168.512 783.222 193.984C1108.21 223.519 744.51 435.182 596.115 716.159Z" stroke="white"/>
<path opacity="0.835" d="M587.744 707.462C476.952 936.246 242.048 809.431 138.445 717.426C-104.184 439.352 184.2 347.218 376.657 465.538C569.114 583.857 475.506 163.398 756.498 179.081C1082.32 197.266 726.234 421.482 587.744 707.462Z" stroke="white"/>
<path opacity="0.79375" d="M579.074 699.062C476.341 931.57 237.15 813.023 130.397 724.686C-121.797 455.243 163.193 353.109 359.666 464.646C556.138 576.182 447.9 159.243 729.269 165.118C1055.53 171.931 707.49 408.427 579.074 699.062Z" stroke="white"/>
<path opacity="0.7525" d="M570.116 690.97C475.567 926.918 232.381 816.784 122.607 732.224C-138.844 471.738 142.405 359.729 342.654 464.347C542.902 568.965 420.167 156.053 701.569 152.114C1027.87 147.546 688.303 396.034 570.116 690.97Z" stroke="white"/>
<path opacity="0.71125" d="M560.881 683.195C474.631 922.296 227.747 820.709 115.086 740.028C-155.305 488.817 121.86 367.07 325.641 464.641C529.422 562.213 392.339 153.833 673.432 140.083C999.372 124.14 668.694 384.317 560.881 683.195Z" stroke="white"/>
<path opacity="0.67" d="M551.38 675.746C473.535 917.71 223.252 824.793 107.841 748.09C-171.159 506.46 101.585 375.123 308.65 465.529C515.715 555.935 364.45 152.584 644.892 129.041C970.076 101.743 648.687 373.292 551.38 675.746Z" stroke="white"/>
<path opacity="0.62875" d="M541.625 668.634C472.278 913.164 218.903 829.032 100.883 756.399C-186.388 524.646 81.6026 383.877 291.699 467.008C501.796 550.139 336.535 152.308 615.984 119.001C940.016 80.38 628.308 362.97 541.625 668.634Z" stroke="white"/>
<path opacity="0.5875" d="M531.627 661.866C470.864 908.665 214.704 833.419 94.2193 764.946C-200.971 543.351 61.9386 393.324 274.811 469.078C487.683 544.832 308.627 153.006 586.742 109.975C909.228 60.0786 607.581 353.366 531.627 661.866Z" stroke="white"/>
<path opacity="0.54625" d="M521.399 655.451C469.293 904.219 210.661 837.951 87.8581 773.72C-214.893 562.553 42.6165 403.45 258.005 471.736C473.394 540.021 280.76 154.677 557.203 101.975C877.749 40.8638 586.53 344.491 521.399 655.451Z" stroke="white"/>
<path opacity="0.505" d="M510.953 649.396C467.568 899.83 206.779 842.62 81.8072 782.711C-228.135 582.229 23.6598 414.244 241.303 474.977C458.945 535.71 252.969 157.318 527.402 95.0085C845.619 22.7576 565.183 336.354 510.953 649.396Z" stroke="white"/>
<path opacity="0.46375" d="M500.301 643.709C465.691 895.503 203.062 847.421 76.0741 791.907C-240.682 602.355 5.09171 425.691 224.723 478.799C444.355 531.906 225.287 160.927 497.377 89.0852C812.876 5.78234 543.564 328.966 500.301 643.709Z" stroke="white"/>
<path opacity="0.4225" d="M489.458 638.397C463.664 891.245 199.516 852.35 70.6656 801.297C-252.519 622.906 -13.0653 437.781 208.288 483.197C429.64 528.613 197.748 165.499 467.162 84.2136C779.56 -10.0399 521.701 322.338 489.458 638.397Z" stroke="white"/>
<path opacity="0.38125" d="M478.436 633.466C461.489 887.059 196.143 857.399 65.5885 810.87C-263.63 643.857 -30.7888 450.495 192.015 488.165C414.82 525.835 170.385 171.028 436.796 80.3976C745.711 -24.6915 499.619 316.475 478.436 633.466Z" stroke="white"/>
<path opacity="0.34" d="M467.248 628.924C459.17 882.953 192.949 862.563 60.8489 820.615C-274.003 665.183 -48.0575 463.82 175.927 493.698C399.911 523.576 143.232 177.508 406.316 77.6437C711.371 -38.1531 477.346 311.387 467.248 628.924Z" stroke="white"/>
<path opacity="0.29875" d="M455.908 624.773C456.708 878.929 189.938 867.835 56.4525 830.519C-283.625 686.858 -64.8502 477.738 160.041 499.788C384.933 521.838 116.322 184.931 375.757 75.9538C676.582 -50.4096 454.909 307.078 455.908 624.773Z" stroke="white"/>
<path opacity="0.2575" d="M444.431 621.021C454.107 874.994 187.112 873.209 52.4047 840.57C-292.483 708.855 -81.1467 492.234 144.378 506.428C369.903 520.623 89.6878 193.288 345.158 75.3306C641.386 -61.4455 432.335 303.554 444.431 621.021Z" stroke="white"/>
<path opacity="0.21625" d="M432.829 617.67C451.371 871.152 184.476 878.678 48.7105 850.756C-300.568 731.147 -96.9266 507.289 128.957 513.611C354.84 519.932 63.3617 202.568 314.556 75.7741C605.826 -71.248 409.651 300.819 432.829 617.67Z" stroke="white"/>
<path opacity="0.175" d="M421.117 614.728C448.502 867.408 182.032 884.236 45.3743 861.065C-307.869 753.708 -112.171 522.885 113.795 521.327C339.761 519.769 37.3757 212.761 283.988 77.2856C569.946 -79.8034 386.886 298.877 421.117 614.728Z" stroke="white"/>
<path opacity="0.13375" d="M409.31 612.194C445.504 863.766 179.784 889.875 42.4002 871.484C-314.378 776.51 -126.862 539.004 98.9124 529.567C324.687 520.13 11.7615 223.853 253.492 79.8614C533.788 -87.1031 364.067 297.73 409.31 612.194Z" stroke="white"/>
<path opacity="0.0925" d="M397.421 610.074C442.38 860.231 177.735 895.59 39.7918 882C-320.087 799.524 -140.98 555.624 84.3267 538.321C309.634 521.017 -13.4496 235.832 223.104 83.499C497.397 -93.1375 341.222 297.379 397.421 610.074Z" stroke="white"/>
<path opacity="0.05125" d="M385.465 608.37C439.135 856.806 175.886 901.372 37.5524 892.6C-324.988 822.724 -154.51 572.727 70.0556 547.578C294.621 522.428 -38.2269 248.683 192.862 88.1941C460.818 -97.8993 318.379 297.825 385.465 608.37Z" stroke="white"/>
<path opacity="0.01" d="M373.458 607.084C435.772 853.498 174.24 907.215 35.6846 903.273C-329.075 846.08 -167.434 590.292 56.1165 557.327C279.667 524.362 -62.5402 262.39 162.802 93.941C424.095 -101.383 295.564 299.068 373.458 607.084Z" stroke="white"/>
</g>
</g>
<defs>
<clipPath id="clip0_1175_32355">
<rect width="360" height="904" fill="white"/>
</clipPath>
</defs>
</svg>
