<svg width="28" height="388" viewBox="0 0 28 388" fill="none" xmlns="http://www.w3.org/2000/svg">
<path d="M28 0V17L0 43V26L28 0Z" fill="#FFAA00"/>
<path d="M28 26.5V43.5L0 69.5V52.5L28 26.5Z" fill="#FFAA00"/>
<path d="M28 53V70L0 96V79L28 53Z" fill="#FFAA00"/>
<path d="M28 79.5V96.5L0 122.5V105.5L28 79.5Z" fill="#FFAA00"/>
<path d="M28 106V123L0 149V132L28 106Z" fill="#FFAA00"/>
<path d="M28 132.5V149.5L0 175.5V158.5L28 132.5Z" fill="#FFAA00"/>
<path d="M28 159V176L0 202V185L28 159Z" fill="#FFAA00"/>
<path d="M28 185.5V202.5L0 228.5V211.5L28 185.5Z" fill="#FFAA00" fill-opacity="0.5"/>
<path d="M28 212V229L0 255V238L28 212Z" fill="#FFAA00" fill-opacity="0.5"/>
<path d="M28 238.5V255.5L0 281.5V264.5L28 238.5Z" fill="#FFAA00" fill-opacity="0.5"/>
<path d="M28 265V282L0 308V291L28 265Z" fill="#FFAA00" fill-opacity="0.5"/>
<path d="M28 291.5V308.5L0 334.5V317.5L28 291.5Z" fill="#FFAA00" fill-opacity="0.5"/>
<path d="M28 318V335L0 361V344L28 318Z" fill="#FFAA00" fill-opacity="0.5"/>
<path d="M28 344.5V361.5L0 387.5V370.5L28 344.5Z" fill="#FFAA00" fill-opacity="0.5"/>
</svg>
