<svg width="21" height="256" viewBox="0 0 21 256" fill="none" xmlns="http://www.w3.org/2000/svg">
<path d="M21 0V13.0465L0 33L0 19.9535L21 0Z" fill="#FFAA00"/>
<path d="M21 16.5V29.9419L0 50.5L0 37.0581L21 16.5Z" fill="#FFAA00"/>
<path d="M21 34V47.4419L0 68L0 54.5581L21 34Z" fill="#FFAA00"/>
<path d="M21 51.5V64.5465L0 84.5L0 71.4535L21 51.5Z" fill="#FFAA00"/>
<path d="M21 68V81.0465L0 101L0 87.9535L21 68Z" fill="#FFAA00"/>
<path d="M21 84.5V97.5465L0 117.5L0 104.453L21 84.5Z" fill="#FFAA00"/>
<path d="M21 101V114.047L0 134L0 120.953L21 101Z" fill="#FFAA00"/>
<path d="M21 117.5V130.547L0 150.5L0 137.453L21 117.5Z" fill="#FFAA00" fill-opacity="0.5"/>
<path d="M21 134V147.047L0 167L0 153.953L21 134Z" fill="#FFAA00" fill-opacity="0.5"/>
<path d="M21 150.5V163.547L0 183.5L0 170.453L21 150.5Z" fill="#FFAA00" fill-opacity="0.5"/>
<path d="M21 167V180.047L0 200L0 186.953L21 167Z" fill="#FFAA00" fill-opacity="0.5"/>
<path d="M21 183.5V196.942L0 217.5L0 204.058L21 183.5Z" fill="#FFAA00" fill-opacity="0.5"/>
<path d="M21 201V214.442L0 235L0 221.558L21 201Z" fill="#FFAA00" fill-opacity="0.5"/>
<path d="M21 218.5V231.547L0 251.5L0 238.453L21 218.5Z" fill="#FFAA00" fill-opacity="0.5"/>
</svg>
