<svg width="235" height="233" viewBox="0 0 235 233" fill="none" xmlns="http://www.w3.org/2000/svg">
<mask id="path-1-inside-1_1093_10774" fill="white">
<path fill-rule="evenodd" clip-rule="evenodd" d="M114.435 80.0522L3.91014e-06 213.529L19.2868 233L31.2819 219.028L31.2819 218.014L43.0695 205.297L114.435 122.168L114.435 80.0522ZM121.982 71.2494L122.149 71.244L122.149 113.181L182.425 42.97L146.227 42.9699L121.982 71.2494ZM114.435 140.44L114.435 147.629L122.149 138.081L122.149 131.453L235 -6.13003e-06L234.738 85.1912L131.721 205.191L117.274 205.191L149.492 167.662L153.995 167.542L153.995 162.416L158.795 156.825L153.995 154.533L153.995 104.842L146.28 112.705L146.28 150.848L142.675 149.126L94.5442 205.191L58.8471 205.191L114.435 140.44Z"/>
</mask>
<path d="M3.91014e-06 213.529L-3.03673 210.926L-5.43648 213.725L-2.84181 216.344L3.91014e-06 213.529ZM114.435 80.0522L118.435 80.0522L118.435 69.241L111.398 77.4487L114.435 80.0522ZM19.2868 233L16.445 235.815L19.497 238.896L22.3218 235.606L19.2868 233ZM31.2819 219.028L34.3169 221.633L35.2818 220.509L35.2818 219.028L31.2819 219.028ZM31.2819 218.014L28.3482 215.295L27.2819 216.445L27.2819 218.014L31.2819 218.014ZM43.0695 205.297L46.0031 208.016L46.0549 207.96L46.1045 207.902L43.0695 205.297ZM114.435 122.168L117.47 124.773L118.435 123.649L118.435 122.168L114.435 122.168ZM121.982 71.2494L118.945 68.6459L113.034 75.5409L122.111 75.2473L121.982 71.2494ZM122.149 71.244L126.149 71.244L126.149 67.1125L122.02 67.2461L122.149 71.244ZM122.149 113.181L118.149 113.181L118.149 123.981L125.184 115.787L122.149 113.181ZM182.425 42.97L185.46 45.5755L191.13 38.97L182.425 38.97L182.425 42.97ZM146.227 42.9699L146.227 38.9699L144.387 38.9699L143.19 40.3664L146.227 42.9699ZM114.435 147.629L110.435 147.629L110.435 158.944L117.546 150.143L114.435 147.629ZM114.435 140.44L118.435 140.44L118.435 129.64L111.4 137.834L114.435 140.44ZM122.149 138.081L125.261 140.595L126.149 139.495L126.149 138.081L122.149 138.081ZM122.149 131.453L119.114 128.848L118.149 129.972L118.149 131.453L122.149 131.453ZM235 -6.13003e-06L239 0.0122794L239.033 -10.839L231.965 -2.60552L235 -6.13003e-06ZM234.738 85.1912L237.773 87.7967L238.734 86.6779L238.738 85.2035L234.738 85.1912ZM131.721 205.191L131.721 209.191L133.559 209.191L134.756 207.796L131.721 205.191ZM117.274 205.191L114.239 202.585L108.568 209.191L117.274 209.191L117.274 205.191ZM149.492 167.662L149.385 163.663L147.612 163.711L146.457 165.056L149.492 167.662ZM153.995 167.542L154.102 171.54L157.995 171.437L157.995 167.542L153.995 167.542ZM153.995 162.416L150.96 159.811L149.995 160.935L149.995 162.416L153.995 162.416ZM158.795 156.825L161.83 159.431L165.233 155.467L160.519 153.216L158.795 156.825ZM153.995 154.533L149.995 154.533L149.995 157.055L152.271 158.142L153.995 154.533ZM153.995 104.842L157.995 104.842L157.995 95.0537L151.14 102.041L153.995 104.842ZM146.28 112.705L143.425 109.904L142.28 111.071L142.28 112.705L146.28 112.705ZM146.28 150.848L144.557 154.458L150.28 157.192L150.28 150.848L146.28 150.848ZM142.675 149.126L144.399 145.517L141.635 144.197L139.64 146.521L142.675 149.126ZM94.5442 205.191L94.5442 209.191L96.3821 209.191L97.5792 207.796L94.5442 205.191ZM58.8471 205.191L55.812 202.585L50.1413 209.191L58.8471 209.191L58.8471 205.191ZM3.03674 216.133L117.472 82.6557L111.398 77.4487L-3.03673 210.926L3.03674 216.133ZM22.1286 230.185L2.84181 210.714L-2.84181 216.344L16.445 235.815L22.1286 230.185ZM28.2468 216.422L16.2518 230.395L22.3218 235.606L34.3169 221.633L28.2468 216.422ZM27.2819 218.014L27.2819 219.028L35.2818 219.028L35.2818 218.014L27.2819 218.014ZM40.1359 202.578L28.3482 215.295L34.2155 220.733L46.0031 208.016L40.1359 202.578ZM111.4 119.562L40.0345 202.691L46.1045 207.902L117.47 124.773L111.4 119.562ZM118.435 122.168L118.435 80.0522L110.435 80.0522L110.435 122.168L118.435 122.168ZM122.111 75.2473L122.279 75.2419L122.02 67.2461L121.852 67.2515L122.111 75.2473ZM118.149 71.244L118.149 113.181L126.149 113.181L126.149 71.244L118.149 71.244ZM179.39 40.3645L119.114 110.576L125.184 115.787L185.46 45.5755L179.39 40.3645ZM146.227 46.9699L182.425 46.97L182.425 38.97L146.227 38.9699L146.227 46.9699ZM125.018 73.8529L149.264 45.5734L143.19 40.3664L118.945 68.6459L125.018 73.8529ZM118.435 147.629L118.435 140.44L110.435 140.44L110.435 147.629L118.435 147.629ZM119.038 135.567L111.323 145.115L117.546 150.143L125.261 140.595L119.038 135.567ZM118.149 131.453L118.149 138.081L126.149 138.081L126.149 131.453L118.149 131.453ZM125.184 134.059L238.035 2.6055L231.965 -2.60552L119.114 128.848L125.184 134.059ZM231 -0.0122916L230.738 85.1789L238.738 85.2035L239 0.0122794L231 -0.0122916ZM231.703 82.5857L128.686 202.585L134.756 207.796L237.773 87.7967L231.703 82.5857ZM131.721 201.191L117.274 201.191L117.274 209.191L131.721 209.191L131.721 201.191ZM120.309 207.796L152.527 170.267L146.457 165.056L114.239 202.585L120.309 207.796ZM149.598 171.661L154.102 171.54L153.889 163.543L149.385 163.663L149.598 171.661ZM157.995 167.542L157.995 162.416L149.995 162.416L149.995 167.542L157.995 167.542ZM157.03 165.022L161.83 159.431L155.76 154.22L150.96 159.811L157.03 165.022ZM160.519 153.216L155.719 150.924L152.271 158.142L157.071 160.435L160.519 153.216ZM157.995 154.533L157.995 104.842L149.995 104.842L149.995 154.533L157.995 154.533ZM151.14 102.041L143.425 109.904L149.136 115.507L156.85 107.644L151.14 102.041ZM142.28 112.705L142.28 150.848L150.28 150.848L150.28 112.705L142.28 112.705ZM148.004 147.239L144.399 145.517L140.951 152.736L144.557 154.458L148.004 147.239ZM139.64 146.521L91.5092 202.585L97.5792 207.796L145.71 151.732L139.64 146.521ZM94.5442 201.191L58.8471 201.191L58.8471 209.191L94.5442 209.191L94.5442 201.191ZM61.8821 207.796L117.47 143.045L111.4 137.834L55.812 202.585L61.8821 207.796Z" fill="url(#paint0_linear_1093_10774)" mask="url(#path-1-inside-1_1093_10774)"/>
<defs>
<linearGradient id="paint0_linear_1093_10774" x1="2.13334e-06" y1="116.5" x2="235" y2="116.5" gradientUnits="userSpaceOnUse">
<stop stop-color="#FFAA00"/>
<stop offset="1" stop-color="#AA00FF"/>
</linearGradient>
</defs>
</svg>
