<svg width="440" height="440" viewBox="0 0 440 440" fill="none" xmlns="http://www.w3.org/2000/svg">
<mask id="path-1-inside-1_1175_32020" fill="white">
<path fill-rule="evenodd" clip-rule="evenodd" d="M214.261 151.172L7.38395e-06 403.232L36.1115 440L58.5703 413.615L58.5703 411.701L80.6413 387.685L80.6488 387.677L214.261 230.703L214.261 151.172ZM228.392 134.548L228.706 134.538L228.706 213.733L341.561 81.145L273.787 81.1449L228.392 134.548ZM214.261 265.208L214.261 278.785L228.706 260.754L228.706 248.238L440.001 -1.14775e-05L439.511 160.876L246.626 387.485L219.577 387.485L279.9 316.615L288.332 316.388L288.332 306.709L297.318 296.151L288.332 291.822L288.332 197.985L273.887 212.834L273.887 284.864L267.136 281.612L177.019 387.485L110.182 387.485L214.261 265.208Z"/>
</mask>
<path d="M7.38395e-06 403.232L-3.04769 400.641L-5.41534 403.426L-2.85381 406.034L7.38395e-06 403.232ZM214.261 151.172L218.261 151.172L218.261 140.29L211.213 148.581L214.261 151.172ZM36.1115 440L33.2577 442.803L36.3225 445.923L39.1575 442.593L36.1115 440ZM58.5703 413.615L61.6163 416.207L62.5703 415.087L62.5703 413.615L58.5703 413.615ZM58.5703 411.701L55.6251 408.994L54.5703 410.142L54.5703 411.701L58.5703 411.701ZM80.6413 387.685L77.6964 384.978L77.6961 384.978L80.6413 387.685ZM80.6488 387.677L83.5937 390.384L83.6453 390.327L83.6947 390.269L80.6488 387.677ZM214.261 230.703L217.307 233.296L218.261 232.175L218.261 230.703L214.261 230.703ZM228.392 134.548L225.344 131.958L219.493 138.841L228.522 138.546L228.392 134.548ZM228.706 134.538L232.706 134.538L232.706 130.405L228.575 130.54L228.706 134.538ZM228.706 213.733L224.706 213.733L224.706 224.604L231.752 216.326L228.706 213.733ZM341.561 81.145L344.607 83.7377L350.219 77.145L341.562 77.145L341.561 81.145ZM273.787 81.1449L273.787 77.1449L271.937 77.1449L270.739 78.5542L273.787 81.1449ZM214.261 278.785L210.261 278.785L210.261 290.175L217.383 281.285L214.261 278.785ZM214.261 265.208L218.261 265.208L218.261 254.338L211.215 262.616L214.261 265.208ZM228.706 260.754L231.827 263.255L232.706 262.158L232.706 260.754L228.706 260.754ZM228.706 248.238L225.66 245.646L224.706 246.766L224.706 248.238L228.706 248.238ZM440.001 -1.14775e-05L444.001 0.0121699L444.034 -10.9097L436.955 -2.59269L440.001 -1.14775e-05ZM439.511 160.876L442.557 163.469L443.506 162.353L443.511 160.888L439.511 160.876ZM246.626 387.485L246.626 391.485L248.474 391.485L249.672 390.078L246.626 387.485ZM219.577 387.485L216.531 384.892L210.919 391.485L219.577 391.485L219.577 387.485ZM279.9 316.615L279.792 312.616L278.01 312.664L276.854 314.022L279.9 316.615ZM288.332 316.388L288.439 320.387L292.332 320.282L292.332 316.388L288.332 316.388ZM288.332 306.709L285.286 304.116L284.332 305.237L284.332 306.709L288.332 306.709ZM297.318 296.151L300.364 298.744L303.724 294.797L299.054 292.547L297.318 296.151ZM288.332 291.822L284.332 291.822L284.332 294.335L286.596 295.426L288.332 291.822ZM288.332 197.985L292.332 197.985L292.332 188.137L285.465 195.196L288.332 197.985ZM273.887 212.834L271.02 210.045L269.887 211.21L269.887 212.834L273.887 212.834ZM273.887 284.864L272.151 288.468L277.887 291.231L277.887 284.864L273.887 284.864ZM267.136 281.612L268.872 278.008L266.09 276.668L264.09 279.019L267.136 281.612ZM177.019 387.485L177.019 391.485L178.867 391.485L180.065 390.078L177.019 387.485ZM110.182 387.485L107.136 384.892L101.524 391.485L110.182 391.485L110.182 387.485ZM3.0477 405.822L217.309 153.762L211.213 148.581L-3.04769 400.641L3.0477 405.822ZM38.9653 437.197L2.85382 400.429L-2.85381 406.034L33.2577 442.803L38.9653 437.197ZM55.5243 411.022L33.0655 437.407L39.1575 442.593L61.6163 416.207L55.5243 411.022ZM54.5703 411.701L54.5703 413.615L62.5703 413.615L62.5703 411.701L54.5703 411.701ZM77.6961 384.978L55.6251 408.994L61.5155 414.407L83.5865 390.391L77.6961 384.978ZM77.7038 384.97L77.6964 384.978L83.5862 390.392L83.5937 390.384L77.7038 384.97ZM211.215 228.111L77.6028 385.084L83.6947 390.269L217.307 233.296L211.215 228.111ZM218.261 230.703L218.261 151.172L210.261 151.172L210.261 230.703L218.261 230.703ZM228.522 138.546L228.836 138.536L228.575 130.54L228.261 130.55L228.522 138.546ZM224.706 134.538L224.706 213.733L232.706 213.733L232.706 134.538L224.706 134.538ZM338.516 78.5524L225.66 211.14L231.752 216.326L344.607 83.7377L338.516 78.5524ZM273.787 85.1449L341.561 85.145L341.562 77.145L273.787 77.1449L273.787 85.1449ZM231.439 137.139L276.834 83.7356L270.739 78.5542L225.344 131.958L231.439 137.139ZM218.261 278.785L218.261 265.208L210.261 265.208L210.261 278.785L218.261 278.785ZM225.584 258.253L211.139 276.284L217.383 281.285L231.827 263.255L225.584 258.253ZM224.706 248.238L224.706 260.754L232.706 260.754L232.706 248.238L224.706 248.238ZM231.752 250.831L443.047 2.59267L436.955 -2.59269L225.66 245.646L231.752 250.831ZM436.001 -0.0121928L435.511 160.864L443.511 160.888L444.001 0.0121699L436.001 -0.0121928ZM436.465 158.283L243.58 384.892L249.672 390.078L442.557 163.469L436.465 158.283ZM246.626 383.485L219.577 383.485L219.577 391.485L246.626 391.485L246.626 383.485ZM222.623 390.078L282.946 319.208L276.854 314.022L216.531 384.892L222.623 390.078ZM280.007 320.613L288.439 320.387L288.224 312.39L279.792 312.616L280.007 320.613ZM292.332 316.388L292.332 306.709L284.332 306.709L284.332 316.388L292.332 316.388ZM291.378 309.302L300.364 298.744L294.272 293.558L285.286 304.116L291.378 309.302ZM299.054 292.547L290.068 288.218L286.596 295.426L295.582 299.755L299.054 292.547ZM292.332 291.822L292.332 197.985L284.332 197.985L284.332 291.822L292.332 291.822ZM285.465 195.196L271.02 210.045L276.754 215.623L291.199 200.774L285.465 195.196ZM269.887 212.834L269.887 284.864L277.887 284.864L277.887 212.834L269.887 212.834ZM275.623 281.26L268.872 278.008L265.4 285.215L272.151 288.468L275.623 281.26ZM264.09 279.019L173.973 384.892L180.065 390.078L270.182 284.204L264.09 279.019ZM177.019 383.485L110.182 383.485L110.182 391.485L177.019 391.485L177.019 383.485ZM113.228 390.078L217.307 267.801L211.215 262.616L107.136 384.892L113.228 390.078Z" fill="url(#paint0_linear_1175_32020)" mask="url(#path-1-inside-1_1175_32020)"/>
<defs>
<linearGradient id="paint0_linear_1175_32020" x1="4.02863e-06" y1="220" x2="440" y2="220" gradientUnits="userSpaceOnUse">
<stop stop-color="#FFAA00"/>
<stop offset="1" stop-color="#AA00FF"/>
</linearGradient>
</defs>
</svg>
