<svg width="87" height="48" viewBox="0 0 87 48" fill="none" xmlns="http://www.w3.org/2000/svg">
<g clip-path="url(#clip0_1198_1162)">
<mask id="mask0_1198_1162" style="mask-type:luminance" maskUnits="userSpaceOnUse" x="0" y="0" width="87" height="48">
<path d="M86.5574 0H0V48H86.5574V0Z" fill="white"/>
</mask>
<g mask="url(#mask0_1198_1162)">
<path fill-rule="evenodd" clip-rule="evenodd" d="M64.7915 2.77905H59.5019L54.9209 14.6527L57.7302 20.2106L64.7915 2.77905Z" fill="white"/>
<path fill-rule="evenodd" clip-rule="evenodd" d="M53.2758 31.8316L61.4254 48H67.3224L56.642 27.5369H50.8715L53.2758 31.8316Z" fill="white"/>
<path fill-rule="evenodd" clip-rule="evenodd" d="M54.3134 18.9475L46.2904 2.77905H40.4946L51.0232 23.2422H56.6925L54.3134 18.9475Z" fill="white"/>
<path fill-rule="evenodd" clip-rule="evenodd" d="M56.9456 44.2105L54.1616 39.4105H50.9474L52.6431 36.3031L49.8338 30.821L41.0009 48H46.2652L48.3405 44.2105H56.9456Z" fill="white"/>
<path fill-rule="evenodd" clip-rule="evenodd" d="M83.5962 18.1643C85.2413 17.4569 86.0512 16.118 86.3802 14.0212C86.5321 13.1369 86.5574 11.6212 86.5574 10.6612C86.5574 9.67589 86.5068 8.05905 86.3549 7.27589C85.7222 4.01695 83.6975 2.77905 79.6733 2.77905H68.4866V7.25063H79.1924C80.2048 7.25063 81.0147 8.05905 81.0147 9.09484V12.2022C81.0147 13.1875 80.2048 14.0464 79.1924 14.0464H68.4866L66.3101 18.7706H77.8764L80.4579 23.2422H86.5574L83.5962 18.1643Z" fill="white"/>
<path fill-rule="evenodd" clip-rule="evenodd" d="M83.6468 42.72C85.2666 42.0379 86.0512 40.699 86.3802 38.6274C86.5321 37.7684 86.5574 36.2527 86.5574 35.3179C86.5574 34.3327 86.5068 32.7411 86.3549 31.9579C85.7222 28.7495 83.7481 27.5369 79.7998 27.5369H66.3101L68.7904 31.9579H79.2937C80.2807 31.9579 81.0906 32.7663 81.0906 33.7769V36.8337C81.0906 37.819 80.306 38.6527 79.2937 38.6527H68.7904V43.3263H78.0282L80.5591 48H86.5574L83.6468 42.72Z" fill="white"/>
<path d="M22.4492 48H29.9408V32.7411C29.9408 25.5663 27.2833 22.3579 19.9436 22.3579H10.3768C3.3155 22.3579 0 24.6063 0 31.7811V48H7.49152V31.3769C7.49152 28.8253 9.18723 27.9411 11.9206 27.9411H18.3745C21.7406 27.9411 22.4239 29.0021 22.4239 31.4021V48H22.4492Z" fill="white"/>
<path fill-rule="evenodd" clip-rule="evenodd" d="M33.5268 3.36402C32.9189 2.78226 31.7542 2.78226 29.5257 2.78226H26.2593C25.1197 0.910557 23.0686 0 19.6754 0H10.2808C5.11511 0 3.064 2.09934 2.60819 6.47507H0V11.8625H2.50691V12.9754C2.50691 18.9952 5.11511 21.2211 11.0152 21.2211H18.8904C23.7523 21.2211 26.3858 19.7288 27.1709 15.8336H29.0446C29.6272 15.8336 34.1598 14.4678 34.1598 10.7749V8.04326C34.1851 5.31158 34.1851 3.99633 33.5268 3.36402ZM11.1418 4.62867H18.8145C19.1943 4.62867 19.5235 4.67924 19.8274 4.75513C19.5995 5.23571 19.4475 5.79216 19.3715 6.44979H8.55893C8.88813 5.31158 9.69843 4.62867 11.1418 4.62867ZM18.7891 16.5671H11.1925C9.21732 16.5671 8.35636 15.9853 8.35636 13.2537V11.8373H19.3462C19.5235 13.5825 20.1819 14.6701 21.3973 15.2518C20.9415 16.3142 20.1312 16.5671 18.7891 16.5671ZM27.12 5.43805C26.8416 5.51394 26.3858 5.53923 25.9553 5.53923C25.8794 5.53923 25.7782 5.53923 25.7022 5.56451H25.6769C25.6007 5.56451 25.4995 5.56451 25.4236 5.5898H25.3983C25.3223 5.5898 25.2463 5.5898 25.1704 5.61512H25.145C25.0691 5.61512 24.9931 5.6404 24.9424 5.6404C24.9424 5.6404 24.9424 5.6404 24.9171 5.6404C24.8918 5.6404 24.8918 5.6404 24.8665 5.6404C24.8412 5.6404 24.8412 5.6404 24.8158 5.6404C24.7905 5.6404 24.7905 5.6404 24.7652 5.6404C24.7399 5.6404 24.7399 5.6404 24.7146 5.6404C24.6892 5.6404 24.6892 5.6404 24.6639 5.66569C24.6386 5.66569 24.6386 5.66569 24.6133 5.66569C24.5879 5.66569 24.5879 5.66569 24.5626 5.69098C24.5626 5.69098 24.5373 5.69098 24.5373 5.71627C24.5373 5.71627 24.512 5.71627 24.512 5.74158C24.512 5.74158 24.4867 5.74158 24.4867 5.76687L24.4613 5.79216C24.4613 5.79216 24.436 5.79216 24.436 5.81745L24.4107 5.84274C24.4107 5.84274 24.4107 5.84274 24.4107 5.86805C24.4107 5.89334 24.4107 5.89334 24.3854 5.91863C24.36 6.0451 24.4107 6.32332 24.436 6.65212C24.512 7.30974 24.6133 8.14444 24.3854 8.29619C24.3347 8.32148 24.3094 8.34677 24.2587 8.37206C24.2587 8.37206 24.2587 8.37206 24.2334 8.37206C24.1828 8.39737 24.1321 8.42266 24.0815 8.44795H24.0562C24.0055 8.47324 23.9296 8.49853 23.8789 8.52384H23.8536C23.8029 8.54913 23.727 8.57442 23.651 8.59971H23.6257C23.5497 8.62499 23.4991 8.62499 23.4231 8.65031H23.3978C23.3218 8.6756 23.2459 8.6756 23.1952 8.6756C23.1952 8.6756 23.1952 8.6756 23.1699 8.6756C23.0939 8.6756 23.018 8.6756 22.9673 8.6756C22.8913 8.6756 22.8407 8.65031 22.7647 8.62499C22.7647 8.62499 22.7647 8.62499 22.7394 8.62499C22.7141 8.59971 22.6635 8.59971 22.6381 8.57442C22.233 8.32148 22.233 6.67743 22.2836 5.86805C22.157 5.48865 22.1063 4.85631 22.5115 4.60338C22.5368 4.57809 22.5622 4.57809 22.6128 4.5528H22.6381C22.6888 4.52749 22.7141 4.52749 22.7647 4.5022H22.7901C22.8407 4.47691 22.8913 4.47691 22.942 4.45162C22.9673 4.45162 22.9673 4.45162 22.9926 4.45162C23.0433 4.42633 23.1192 4.42633 23.1952 4.40102C23.2205 4.40102 23.2205 4.40102 23.2459 4.40102C23.3218 4.37573 23.3725 4.37573 23.4484 4.35044H23.4738C23.5497 4.32515 23.6257 4.32515 23.727 4.29987C23.7523 4.29987 23.7776 4.29987 23.7776 4.29987C23.8536 4.27455 23.9549 4.27455 24.0562 4.24926C24.0562 4.24926 24.0562 4.24926 24.0815 4.24926C24.1828 4.22398 24.2587 4.22398 24.36 4.19869C24.3854 4.19869 24.4107 4.19869 24.436 4.19869C24.5373 4.1734 24.6386 4.1734 24.7146 4.14808C24.7399 4.14808 24.7399 4.14808 24.7652 4.14808C24.8412 4.14808 24.9424 4.1228 25.0184 4.1228C25.0437 4.1228 25.0691 4.1228 25.0944 4.1228C25.1957 4.1228 25.297 4.09751 25.373 4.09751C25.3983 4.09751 25.4236 4.09751 25.4236 4.09751C25.4995 4.09751 25.6007 4.07222 25.6769 4.07222C25.7022 4.07222 25.7022 4.07222 25.7275 4.07222C25.8288 4.07222 25.9047 4.04693 26.0059 4.04693C26.0312 4.04693 26.0566 4.04693 26.0819 4.04693C26.1834 4.04693 26.2593 4.04693 26.3352 4.04693C26.4111 4.04693 26.4871 4.04693 26.563 4.04693C26.5883 4.04693 26.5883 4.04693 26.6136 4.04693C26.6898 4.04693 26.7657 4.04693 26.8416 4.04693C27.1962 4.07222 27.424 4.1228 27.4999 4.19869C27.8039 4.62867 27.8798 5.261 27.12 5.43805Z" fill="white"/>
</g>
</g>
<defs>
<clipPath id="clip0_1198_1162">
<rect width="86.5574" height="48" fill="white"/>
</clipPath>
</defs>
</svg>
