<svg width="30" height="32" viewBox="0 0 30 32" fill="none" xmlns="http://www.w3.org/2000/svg">
<path d="M22.5485 27.0768C22.1674 23.6678 19.6688 14.7618 7.93848 15.401C17.9749 11.8642 25.174 20.3014 25.2587 26.8637C24.3271 27.1194 22.5485 27.0768 22.5485 27.0768Z" fill="#046FB7"/>
<path d="M4.80452 10.117C7.93827 11.4806 16.916 13.526 22.0401 2.91553C20.2615 13.4834 9.42044 15.6992 3.66113 12.6311C3.91522 11.6937 4.80452 10.117 4.80452 10.117Z" fill="#FB331A"/>
<path d="M28.9005 2.40436C25.9362 4.23669 18.9911 10.4155 24.6234 20.8981C17.0855 13.2279 21.6167 2.9157 27.5031 0.0180664C28.1806 0.742476 28.9005 2.40436 28.9005 2.40436Z" fill="#6BD1F9"/>
<path d="M25.0045 31.2956C-0.573611 25.543 0.485086 10.7139 0.696826 9.13721C0.485086 10.2025 0.400391 11.3104 0.400391 12.4184C0.400391 23.2419 9.12405 31.9774 19.8381 31.9774C21.6167 32.02 23.3529 31.7644 25.0045 31.2956Z" fill="#6BD1F9"/>
</svg>
