<svg width="1360" height="760" viewBox="0 0 1360 760" fill="none" xmlns="http://www.w3.org/2000/svg">
<path d="M688.225 0H0L0.5 117L60.5 57.5H634L688.225 0Z" fill="#0E0214"/>
<path d="M1359.5 0L1360 265L1302.5 208.5L1300.03 2.5H1300L1298 0H1300H1359.5Z" fill="#0E0214"/>
<path d="M446 758H165.5H6C3.79086 758 2 756.209 2 754V659V117.501C2 116.434 2.42622 115.411 3.18391 114.66L1.78445 113.248L3.18391 114.66L59.1695 59.1593C59.9187 58.4167 60.9308 58 61.9856 58H630.384C632.608 58 634.732 57.0737 636.246 55.4436L684.685 3.2782C685.442 2.46313 686.504 2 687.616 2H1298C1300.21 2 1302 3.79086 1302 6V205.483C1302 207.63 1302.86 209.686 1304.39 211.191L1356.8 262.663C1357.57 263.415 1358 264.444 1358 265.517V754C1358 756.209 1356.21 758 1354 758H446Z" stroke="url(#paint0_linear_2254_24991)" stroke-width="4"/>
<path d="M115 0H649L621 28H87L115 0Z" fill="url(#paint1_linear_2254_24991)"/>
<path d="M1332 197L1360 225V0H1332V197Z" fill="url(#paint2_linear_2254_24991)"/>
<defs>
<linearGradient id="paint0_linear_2254_24991" x1="0" y1="380" x2="1360" y2="380" gradientUnits="userSpaceOnUse">
<stop stop-color="#FFAA00"/>
<stop offset="1" stop-color="#AA00FF"/>
</linearGradient>
<linearGradient id="paint1_linear_2254_24991" x1="87" y1="14" x2="649" y2="14" gradientUnits="userSpaceOnUse">
<stop stop-color="#FFAA00"/>
<stop offset="1" stop-color="#AA00FF"/>
</linearGradient>
<linearGradient id="paint2_linear_2254_24991" x1="1332" y1="112.5" x2="1360" y2="112.5" gradientUnits="userSpaceOnUse">
<stop stop-color="#FFAA00"/>
<stop offset="1" stop-color="#AA00FF"/>
</linearGradient>
</defs>
</svg>
