<svg width="25" height="24" viewBox="0 0 25 24" fill="none" xmlns="http://www.w3.org/2000/svg">
<path fill-rule="evenodd" clip-rule="evenodd" d="M17.052 22.133C15.612 22.08 11.531 21.516 7.257 17.243C2.984 12.969 2.421 8.88897 2.367 7.44797C2.287 5.25197 3.969 3.11897 5.912 2.28597C6.14598 2.18494 6.4022 2.14647 6.65553 2.17435C6.90886 2.20222 7.15059 2.29548 7.357 2.44497C8.957 3.61097 10.061 5.37497 11.009 6.76197C11.2176 7.0667 11.3068 7.43752 11.2596 7.80377C11.2123 8.17002 11.032 8.5061 10.753 8.74797L8.802 10.197C8.70774 10.265 8.64139 10.365 8.61528 10.4783C8.58916 10.5916 8.60505 10.7105 8.66 10.813C9.102 11.616 9.888 12.812 10.788 13.712C11.689 14.612 12.941 15.45 13.8 15.942C13.9077 16.0024 14.0345 16.0193 14.1543 15.9892C14.274 15.9591 14.3777 15.8842 14.444 15.78L15.714 13.847C15.9475 13.5368 16.2919 13.329 16.6752 13.2672C17.0584 13.2053 17.4508 13.2941 17.77 13.515C19.177 14.489 20.819 15.574 22.021 17.113C22.1826 17.3209 22.2854 17.5684 22.3187 17.8296C22.3519 18.0908 22.3144 18.3562 22.21 18.598C21.373 20.551 19.255 22.214 17.052 22.133Z" fill="white"/>
</svg>
