<svg width="20" height="20" viewBox="0 0 20 20" fill="none" xmlns="http://www.w3.org/2000/svg">
<path d="M10.1322 9.05817C10.0488 9.04984 9.94883 9.04984 9.85716 9.05817C7.87383 8.9915 6.29883 7.3665 6.29883 5.3665C6.29883 3.32484 7.94883 1.6665 9.99883 1.6665C12.0405 1.6665 13.6988 3.32484 13.6988 5.3665C13.6905 7.3665 12.1155 8.9915 10.1322 9.05817Z" stroke="#0E0214" stroke-width="1.5" stroke-linecap="round" stroke-linejoin="round"/>
<path d="M5.96563 12.1335C3.94896 13.4835 3.94896 15.6835 5.96563 17.0252C8.25729 18.5585 12.0156 18.5585 14.3073 17.0252C16.324 15.6752 16.324 13.4752 14.3073 12.1335C12.024 10.6085 8.26562 10.6085 5.96563 12.1335Z" stroke="#0E0214" stroke-width="1.5" stroke-linecap="round" stroke-linejoin="round"/>
</svg>
