<svg width="28" height="390" viewBox="0 0 28 390" fill="none" xmlns="http://www.w3.org/2000/svg">
<path d="M0 0L0 17L28 43L28 26L0 0Z" fill="#FFAA00"/>
<path d="M0 26.5L0 43.5L28 69.5L28 52.5L0 26.5Z" fill="#FFAA00"/>
<path d="M0 53L0 70L28 96L28 79L0 53Z" fill="#FFAA00"/>
<path d="M0 79.5L0 96.5L28 122.5L28 105.5L0 79.5Z" fill="#FFAA00"/>
<path d="M0 106L0 123L28 149L28 132L0 106Z" fill="#FFAA00"/>
<path d="M0 132.5L0 149.5L28 175.5L28 158.5L0 132.5Z" fill="#FFAA00"/>
<path d="M0 159L0 176L28 202L28 185L0 159Z" fill="#FFAA00"/>
<path d="M0 185.5L0 202.5L28 228.5L28 211.5L0 185.5Z" fill="#FFAA00" fill-opacity="0.5"/>
<path d="M0 212L0 229L28 255L28 238L0 212Z" fill="#FFAA00" fill-opacity="0.5"/>
<path d="M0 238.5L0 255.5L28 281.5L28 264.5L0 238.5Z" fill="#FFAA00" fill-opacity="0.5"/>
<path d="M0 265L0 282L28 308L28 291L0 265Z" fill="#FFAA00" fill-opacity="0.5"/>
<path d="M0 291.5L0 308.5L28 334.5L28 317.5L0 291.5Z" fill="#FFAA00" fill-opacity="0.5"/>
<path d="M0 318L0 335L28 361L28 344L0 318Z" fill="#FFAA00" fill-opacity="0.5"/>
<path d="M0 344.5L0 361.5L28 387.5L28 370.5L0 344.5Z" fill="#FFAA00" fill-opacity="0.5"/>
</svg>
