<svg width="293" height="29" viewBox="0 0 293 29" fill="none" xmlns="http://www.w3.org/2000/svg">
<path d="M293 28.5H276L250 0.5H267L293 28.5Z" fill="#FFAA00"/>
<path d="M268 28.5H251L225 0.5H242L268 28.5Z" fill="#FFAA00"/>
<path d="M243 28.5H226L200 0.5H217L243 28.5Z" fill="#FFAA00"/>
<path d="M218 28.5H201L175 0.5H192L218 28.5Z" fill="#FFAA00"/>
<path d="M193 28.5H176L150 0.5H167L193 28.5Z" fill="#FFAA00"/>
<path d="M168 28.5H151L125 0.5H142L168 28.5Z" fill="#FFAA00"/>
<path d="M143 28.5H126L100 0.5H117L143 28.5Z" fill="#FFAA00"/>
<path d="M118 28.5H101L75 0.5H92L118 28.5Z" fill="#FFAA00" fill-opacity="0.5"/>
<path d="M93 28.5H76L50 0.5H67L93 28.5Z" fill="#FFAA00" fill-opacity="0.5"/>
<path d="M68 28.5H51L25 0.5H42L68 28.5Z" fill="#FFAA00" fill-opacity="0.5"/>
<path d="M43 28.5H26L0 0.5H17L43 28.5Z" fill="#FFAA00" fill-opacity="0.5"/>
</svg>
