<svg width="151" height="15" viewBox="0 0 151 15" fill="none" xmlns="http://www.w3.org/2000/svg">
<path d="M151 14.5H142.239L128.84 0.5H137.601L151 14.5Z" fill="#FFAA00"/>
<path d="M138.116 14.5H129.355L115.956 0.5H124.717L138.116 14.5Z" fill="#FFAA00"/>
<path d="M125.232 14.5H116.471L103.072 0.5H111.833L125.232 14.5Z" fill="#FFAA00"/>
<path d="M112.348 14.5H103.587L90.1877 0.5H98.9488L112.348 14.5Z" fill="#FFAA00"/>
<path d="M99.4641 14.5H90.703L77.3037 0.5H86.0648L99.4641 14.5Z" fill="#FFAA00"/>
<path d="M86.5803 14.5H77.8192L64.4199 0.5H73.181L86.5803 14.5Z" fill="#FFAA00"/>
<path d="M73.6963 14.5H64.9352L51.5359 0.5H60.297L73.6963 14.5Z" fill="#FFAA00"/>
<path d="M60.8124 14.5H52.0513L38.652 0.5H47.4131L60.8124 14.5Z" fill="#FFAA00" fill-opacity="0.5"/>
<path d="M47.9283 14.5H39.1673L25.7679 0.5H34.529L47.9283 14.5Z" fill="#FFAA00" fill-opacity="0.5"/>
<path d="M35.0444 14.5H26.2833L12.884 0.5H21.6451L35.0444 14.5Z" fill="#FFAA00" fill-opacity="0.5"/>
<path d="M22.1604 14.5H13.3993L-9.53674e-06 0.5H8.76108L22.1604 14.5Z" fill="#FFAA00" fill-opacity="0.5"/>
</svg>
