<svg width="210" height="21" viewBox="0 0 210 21" fill="none" xmlns="http://www.w3.org/2000/svg">
<path d="M210 0.5H197.816L179.181 20.5H191.365L210 0.5Z" fill="#AA00FF"/>
<path d="M192.082 0.5H179.898L161.263 20.5H173.447L192.082 0.5Z" fill="#AA00FF"/>
<path d="M174.164 0.5H161.98L143.345 20.5H155.529L174.164 0.5Z" fill="#AA00FF"/>
<path d="M156.246 0.5H144.061L125.426 20.5H137.611L156.246 0.5Z" fill="#AA00FF"/>
<path d="M138.328 0.5H126.143L107.509 20.5H119.693L138.328 0.5Z" fill="#AA00FF"/>
<path d="M120.41 0.5H108.225L89.5906 20.5H101.775L120.41 0.5Z" fill="#AA00FF"/>
<path d="M102.492 0.5H90.3074L71.6726 20.5H83.8569L102.492 0.5Z" fill="#AA00FF"/>
<path d="M84.5732 0.5H72.3889L53.7541 20.5H65.9384L84.5732 0.5Z" fill="#AA00FF" fill-opacity="0.5"/>
<path d="M66.6553 0.5H54.471L35.8362 20.5H48.0205L66.6553 0.5Z" fill="#AA00FF" fill-opacity="0.5"/>
<path d="M48.7373 0.5H36.553L17.9182 20.5H30.1025L48.7373 0.5Z" fill="#AA00FF" fill-opacity="0.5"/>
<path d="M30.8193 0.5H18.635L0.00022316 20.5H12.1845L30.8193 0.5Z" fill="#AA00FF" fill-opacity="0.5"/>
</svg>
