<svg width="27" height="26" viewBox="0 0 27 26" fill="none" xmlns="http://www.w3.org/2000/svg">
<path d="M14.3125 3.61004C14.6223 3.42659 14.8644 3.14343 15.0013 2.80447C15.1382 2.46551 15.1622 2.08969 15.0696 1.7353C14.977 1.38091 14.773 1.06776 14.4892 0.844411C14.2054 0.621062 13.8577 0.5 13.5 0.5C13.1423 0.5 12.7946 0.621062 12.5108 0.844411C12.227 1.06776 12.023 1.38091 11.9304 1.7353C11.8378 2.08969 11.8618 2.46551 11.9987 2.80447C12.1356 3.14343 12.3777 3.42659 12.6875 3.61004V5.50003H9.4375C7.4981 5.50003 5.63814 6.29021 4.26678 7.69673C2.89542 9.10325 2.125 11.0109 2.125 13V13.8334C1.69402 13.8334 1.2807 14.0089 0.975951 14.3215C0.671205 14.6341 0.5 15.058 0.5 15.5L0.5 18.8333C0.5 19.2754 0.671205 19.6993 0.975951 20.0119C1.2807 20.3244 1.69402 20.5 2.125 20.5V22.1667C2.125 23.0507 2.46741 23.8986 3.0769 24.5237C3.6864 25.1488 4.51305 25.5 5.375 25.5H21.625C22.487 25.5 23.3136 25.1488 23.9231 24.5237C24.5326 23.8986 24.875 23.0507 24.875 22.1667V20.5C25.306 20.5 25.7193 20.3244 26.024 20.0119C26.3288 19.6993 26.5 19.2754 26.5 18.8333V15.5C26.5 15.058 26.3288 14.6341 26.024 14.3215C25.7193 14.0089 25.306 13.8334 24.875 13.8334V13C24.875 11.0109 24.1046 9.10325 22.7332 7.69673C21.3619 6.29021 19.5019 5.50003 17.5625 5.50003H14.3125V3.61004ZM23.25 13V22.1667C23.25 22.6087 23.0788 23.0326 22.774 23.3452C22.4693 23.6577 22.056 23.8333 21.625 23.8333H5.375C4.94402 23.8333 4.5307 23.6577 4.22595 23.3452C3.9212 23.0326 3.75 22.6087 3.75 22.1667V13C3.75 11.4529 4.34922 9.9692 5.41583 8.87524C6.48244 7.78128 7.92908 7.1667 9.4375 7.1667H17.5625C19.0709 7.1667 20.5176 7.78128 21.5842 8.87524C22.6508 9.9692 23.25 11.4529 23.25 13Z" fill="white"/>
</svg>
