<svg width="20" height="20" viewBox="0 0 20 20" fill="none" xmlns="http://www.w3.org/2000/svg">
<path d="M11.4421 2.88776L12.9087 5.72672C13.1087 6.12192 13.6421 6.50098 14.0921 6.57357L16.7504 7.00103C18.4504 7.27524 18.8504 8.4689 17.6254 9.64642L15.5587 11.6466C15.2087 11.9853 15.0171 12.6386 15.1254 13.1064L15.7171 15.5824C16.1837 17.5423 15.1087 18.3004 13.3171 17.2761L10.8254 15.8486C10.3754 15.5905 9.63375 15.5905 9.17541 15.8486L6.68375 17.2761C4.90041 18.3004 3.81708 17.5342 4.28375 15.5824L4.87541 13.1064C4.98375 12.6386 4.79208 11.9853 4.44208 11.6466L2.37541 9.64642C1.15875 8.4689 1.55041 7.27524 3.25041 7.00103L5.90875 6.57357C6.35041 6.50098 6.88375 6.12192 7.08375 5.72672L8.55041 2.88776C9.35041 1.34731 10.6504 1.34731 11.4421 2.88776Z" fill="url(#paint0_linear_2111_52693)"/>
<defs>
<linearGradient id="paint0_linear_2111_52693" x1="1.66797" y1="9.73242" x2="18.3365" y2="9.73242" gradientUnits="userSpaceOnUse">
<stop stop-color="#FFAA00"/>
<stop offset="1" stop-color="#AA00FF"/>
</linearGradient>
</defs>
</svg>
