<svg width="664" height="624" viewBox="0 0 664 624" fill="none" xmlns="http://www.w3.org/2000/svg">
<rect width="664" height="624" fill="#0E0214"/>
<g opacity="0.5" clip-path="url(#clip0_1178_16457)">
<g opacity="0.5">
<path d="M734.903 230.006C821.735 67.1134 646.634 -16.1734 548.229 -37.4553C281.023 -60.48 350.508 147.914 502.434 209.975C654.36 272.035 367.421 397.291 497.032 555.175C647.321 738.248 626.364 433.622 734.903 230.006Z" stroke="white"/>
<path opacity="0.95875" d="M726.257 228.525C818.728 68.7583 646.644 -20.5809 549.043 -45.2797C282.804 -77.6039 344.965 133.085 494.63 200.403C644.294 267.721 353.154 382.899 477.168 545.205C620.968 733.405 610.668 428.234 726.257 228.525Z" stroke="white"/>
<path opacity="0.9175" d="M717.668 226.744C815.666 70.2974 646.808 -24.9854 550.13 -53.0709C285.183 -94.6552 339.944 118.072 487.164 190.566C634.385 263.059 339.398 368.019 457.665 534.549C594.801 727.646 595.171 422.302 717.668 226.744Z" stroke="white"/>
<path opacity="0.87625" d="M709.147 224.664C812.552 71.7289 647.126 -29.3814 551.488 -60.8196C288.156 -111.613 335.45 102.893 480.048 180.474C624.645 258.055 326.17 352.669 438.546 523.219C568.851 720.979 579.891 415.834 709.147 224.664Z" stroke="white"/>
<path opacity="0.835" d="M700.703 222.289C809.389 73.0509 647.598 -33.7637 553.117 -68.5162C291.72 -128.457 331.489 87.5668 473.288 170.14C615.086 252.714 313.486 336.867 419.834 511.23C543.149 713.411 564.846 408.837 700.703 222.289Z" stroke="white"/>
<path opacity="0.79375" d="M692.348 219.621C806.182 74.2619 648.222 -38.1268 555.013 -76.1513C295.87 -145.167 328.066 72.1118 466.893 159.577C605.72 247.043 301.363 320.633 401.553 498.597C517.728 704.953 550.054 401.32 692.348 219.621Z" stroke="white"/>
<path opacity="0.7525" d="M684.09 216.663C802.935 75.3604 648.999 -42.4656 557.175 -83.7157C300.601 -161.722 325.185 56.547 460.871 148.798C596.557 241.049 289.814 303.986 383.725 485.333C492.617 695.613 535.534 393.292 684.09 216.663Z" stroke="white"/>
<path opacity="0.71125" d="M675.942 213.419C799.652 76.345 649.926 -46.7746 559.6 -91.2001C305.908 -178.101 322.85 40.8911 455.23 137.815C587.61 234.74 278.854 286.947 366.37 471.457C467.849 685.403 521.304 384.762 675.942 213.419Z" stroke="white"/>
<path opacity="0.67" d="M667.911 209.894C796.336 77.2146 651.004 -51.0487 562.285 -98.5954C311.785 -194.286 321.064 25.1634 449.976 126.643C578.888 228.122 268.496 269.536 349.511 456.984C443.452 674.337 507.38 375.742 667.911 209.894Z" stroke="white"/>
<path opacity="0.62875" d="M660.009 206.09C792.992 77.9676 652.23 -55.2831 565.227 -105.893C318.223 -210.257 319.828 9.38256 445.115 115.293C570.403 221.204 258.753 251.774 333.169 441.931C419.457 662.427 493.78 366.242 660.009 206.09Z" stroke="white"/>
<path opacity="0.5875" d="M652.244 202.013C789.623 78.6045 653.604 -59.4712 568.422 -113.083C325.215 -225.992 319.144 -6.43084 440.654 103.782C562.165 213.995 249.636 233.684 317.362 426.319C395.892 649.688 480.52 356.274 652.244 202.013Z" stroke="white"/>
<path opacity="0.54625" d="M644.627 197.668C786.234 79.1232 655.123 -63.6093 571.866 -120.157C332.753 -241.475 319.014 -22.2589 436.598 92.1223C554.183 206.503 241.157 215.287 302.11 410.166C372.787 636.135 467.617 345.85 644.627 197.668Z" stroke="white"/>
<path opacity="0.505" d="M637.166 193.061C782.83 79.5234 656.786 -67.692 575.556 -127.108C340.828 -256.685 319.436 -38.0819 432.952 80.328C546.469 198.738 233.327 196.605 287.432 393.49C350.17 621.786 455.086 334.982 637.166 193.061Z" stroke="white"/>
<path opacity="0.46375" d="M629.87 188.195C779.413 79.8042 658.59 -71.7148 579.486 -133.925C349.429 -271.606 320.411 -53.8809 429.721 68.4134C539.03 190.708 226.153 177.662 273.346 376.313C328.068 606.656 442.942 323.684 629.87 188.195Z" stroke="white"/>
<path opacity="0.4225" d="M622.749 183.079C775.988 79.9668 660.534 -75.6712 583.652 -140.601C358.546 -286.216 321.938 -69.6354 426.907 56.3944C531.877 182.424 219.646 158.481 259.869 358.655C306.508 590.766 431.2 311.97 622.749 183.079Z" stroke="white"/>
<path opacity="0.38125" d="M615.811 177.718C772.56 80.0089 662.615 -79.5584 588.049 -147.128C368.168 -300.501 324.014 -85.328 424.516 44.2837C525.017 173.895 213.814 139.084 247.017 340.539C285.517 574.133 419.875 299.854 615.811 177.718Z" stroke="white"/>
<path opacity="0.34" d="M609.065 172.118C769.133 79.9325 664.83 -83.3698 592.671 -153.498C378.284 -314.441 326.638 -100.938 422.549 32.098C518.46 165.134 208.662 119.497 234.805 321.986C265.119 556.78 408.98 287.351 609.065 172.118Z" stroke="white"/>
<path opacity="0.29875" d="M602.519 166.287C765.71 79.7361 667.178 -87.1021 597.512 -159.702C388.88 -328.02 329.805 -116.447 421.009 19.8505C512.212 156.148 204.198 99.741 223.25 303.018C245.341 538.725 398.529 274.475 602.519 166.287Z" stroke="white"/>
<path opacity="0.2575" d="M596.18 160.23C762.297 79.4206 669.654 -90.7503 602.568 -165.735C399.945 -341.221 333.512 -131.836 419.898 7.55704C506.283 146.951 200.428 79.8419 212.364 283.659C226.205 519.993 388.534 261.242 596.18 160.23Z" stroke="white"/>
<path opacity="0.21625" d="M590.057 153.957C758.896 78.9863 672.256 -94.31 607.832 -171.587C411.464 -354.029 337.755 -147.087 419.217 -4.76774C500.678 137.552 197.355 59.8236 202.162 263.933C207.735 500.605 379.007 247.67 590.057 153.957Z" stroke="white"/>
<path opacity="0.175" d="M584.156 147.474C755.513 78.4337 674.981 -97.7768 613.296 -177.252C423.424 -366.427 342.528 -162.181 418.967 -17.1088C495.406 127.963 194.983 39.7101 192.655 243.862C189.955 480.585 369.961 233.774 584.156 147.474Z" stroke="white"/>
<path opacity="0.13375" d="M578.486 140.789C752.151 77.7636 677.826 -101.147 618.956 -182.723C435.809 -378.402 347.826 -177.099 419.149 -29.4511C490.472 118.197 193.316 19.5263 183.855 223.473C172.884 459.957 361.405 219.57 578.486 140.789Z" stroke="white"/>
<path opacity="0.0925" d="M573.053 133.91C748.814 76.9766 680.787 -104.415 624.803 -187.994C448.606 -389.937 353.641 -191.824 419.762 -41.7794C485.882 108.265 192.355 -0.70333 175.773 202.789C156.546 438.747 353.352 205.078 573.053 133.91Z" stroke="white"/>
<path opacity="0.05125" d="M567.864 126.847C745.507 76.0739 683.86 -107.578 630.831 -193.058C461.797 -401.019 359.968 -206.336 420.805 -54.0789C481.641 98.1785 192.101 -20.954 168.418 181.837C140.957 416.981 345.809 190.313 567.864 126.847Z" stroke="white"/>
<path opacity="0.01" d="M562.924 119.607C742.234 75.0564 687.041 -110.633 637.032 -197.908C475.368 -411.634 366.798 -220.62 422.277 -66.3345C477.756 87.9505 192.555 -41.2013 161.801 160.64C126.14 394.684 338.787 175.295 562.924 119.607Z" stroke="white"/>
</g>
</g>
<defs>
<clipPath id="clip0_1178_16457">
<rect width="597" height="624" fill="white" transform="translate(67)"/>
</clipPath>
</defs>
</svg>
