<svg width="23" height="16" viewBox="0 0 23 16" fill="none" xmlns="http://www.w3.org/2000/svg">
<path d="M1.5 6C1.5 5.46957 1.71071 4.96086 2.08579 4.58579C2.46086 4.21071 2.96957 4 3.5 4H19.5C20.0304 4 20.5391 4.21071 20.9142 4.58579C21.2893 4.96086 21.5 5.46957 21.5 6V13C21.5 13.5304 21.2893 14.0391 20.9142 14.4142C20.5391 14.7893 20.0304 15 19.5 15H15.632C15.2866 15 14.9471 14.9106 14.6466 14.7404C14.3461 14.5702 14.0947 14.3252 13.917 14.029L12.357 11.429C12.2681 11.2811 12.1425 11.1588 11.9923 11.0739C11.8421 10.989 11.6725 10.9443 11.5 10.9443C11.3275 10.9443 11.1579 10.989 11.0077 11.0739C10.8575 11.1588 10.7319 11.2811 10.643 11.429L9.083 14.029C8.90531 14.3252 8.65395 14.5702 8.3534 14.7404C8.05286 14.9106 7.71337 15 7.368 15H3.5C2.96957 15 2.46086 14.7893 2.08579 14.4142C1.71071 14.0391 1.5 13.5304 1.5 13V6ZM3.313 2.781C3.67819 2.23329 4.17291 1.78418 4.75327 1.4735C5.33364 1.16282 5.98171 1.00018 6.64 1H16.358C17.0165 1.00001 17.6647 1.16257 18.2453 1.47326C18.8258 1.78395 19.3207 2.23315 19.686 2.781L20.5 4H2.5L3.313 2.781Z" stroke="white" stroke-width="2" stroke-linecap="round" stroke-linejoin="round"/>
</svg>
